<?xml version="1.0" encoding="UTF-8" standalone="no"?>
<!-- Created with Inkscape (http://www.inkscape.org/) -->

<svg
   xmlns:dc="http://purl.org/dc/elements/1.1/"
   xmlns:cc="http://creativecommons.org/ns#"
   xmlns:rdf="http://www.w3.org/1999/02/22-rdf-syntax-ns#"
   xmlns:svg="http://www.w3.org/2000/svg"
   xmlns="http://www.w3.org/2000/svg"
   xmlns:sodipodi="http://sodipodi.sourceforge.net/DTD/sodipodi-0.dtd"
   xmlns:inkscape="http://www.inkscape.org/namespaces/inkscape"
   width="420.23312mm"
   height="420.23312mm"
   viewBox="0 0 420.23312 420.23312"
   version="1.1"
   id="svg8"
   inkscape:version="0.92.4 (5da689c313, 2019-01-14)"
   sodipodi:docname="Grille v1.svg">
  <defs
     id="defs2" />
  <sodipodi:namedview
     id="base"
     pagecolor="#ffffff"
     bordercolor="#666666"
     borderopacity="1.0"
     inkscape:pageopacity="0.0"
     inkscape:pageshadow="2"
     inkscape:zoom="0.49497475"
     inkscape:cx="201.93589"
     inkscape:cy="845.05917"
     inkscape:document-units="mm"
     inkscape:current-layer="layer1"
     showgrid="false"
     fit-margin-top="10"
     fit-margin-left="10"
     fit-margin-bottom="10"
     fit-margin-right="10"
     inkscape:window-width="1920"
     inkscape:window-height="1017"
     inkscape:window-x="-8"
     inkscape:window-y="-8"
     inkscape:window-maximized="1" />
  <metadata
     id="metadata5">
    <rdf:RDF>
      <cc:Work
         rdf:about="">
        <dc:format>image/svg+xml</dc:format>
        <dc:type
           rdf:resource="http://purl.org/dc/dcmitype/StillImage" />
        <dc:title></dc:title>
      </cc:Work>
    </rdf:RDF>
  </metadata>
  <g
     inkscape:label="Layer 1"
     inkscape:groupmode="layer"
     id="layer1"
     transform="translate(-121.74653,-90.663207)">
    <g
       transform="matrix(0.35277777,0,0,-0.35277777,-257.69911,759.8142)"
       inkscape:label="Grille"
       id="g823"
       style="fill:none;stroke:#ff0000;stroke-width:0.05669291;stroke-miterlimit:4;stroke-dasharray:none;stroke-opacity:1">
      <g
         transform="translate(1107.3,734.3)"
         id="g825"
         style="fill:none;stroke:#ff0000;stroke-width:0.05669291;stroke-miterlimit:4;stroke-dasharray:none;stroke-opacity:1">
        <path
           inkscape:connector-curvature="0"
           id="path827"
           style="fill:none;stroke:#ff0000;stroke-width:0.05669291;stroke-linecap:round;stroke-linejoin:round;stroke-miterlimit:4;stroke-dasharray:none;stroke-opacity:1"
           d="M 0,0 H 1133.8 M 99.2,1006.3 l 5.4,0.5 5.1,1.5 4.8,2.5 4.3,3.3 3.5,4.1 2.7,4.6 1.7,5.1 0.8,5.4 -0.2,5.4 -1.3,5.2 -2.2,4.9 -3.2,4.4 -3.9,3.7 -4.5,2.9 -5,2 -5.3,1 h -5.4 l -5.3,-1 -5,-2 -4.5,-2.9 -3.9,-3.7 -3.1,-4.4 -2.3,-4.9 -1.3,-5.2 -0.2,-5.4 0.8,-5.4 1.7,-5.1 2.7,-4.6 3.5,-4.1 4.3,-3.3 4.8,-2.5 5.1,-1.5 5.4,-0.5 m 0,-85.1 5.4,0.5 5.1,1.6 4.8,2.4 4.3,3.4 3.5,4 2.7,4.7 1.7,5.1 0.8,5.3 -0.2,5.4 -1.3,5.3 -2.2,4.9 -3.2,4.3 -3.9,3.8 -4.5,2.9 -5,2 -5.3,1 h -5.4 l -5.3,-1 -5,-2 -4.5,-2.9 -3.9,-3.8 -3.1,-4.3 -2.3,-4.9 -1.3,-5.3 -0.2,-5.4 0.8,-5.3 1.7,-5.1 2.7,-4.7 3.5,-4 4.3,-3.4 4.8,-2.4 5.1,-1.6 5.4,-0.5 m 0,-85 5.4,0.5 5.1,1.5 4.8,2.5 4.3,3.3 3.5,4.1 2.7,4.7 1.7,5.1 0.8,5.3 -0.2,5.4 -1.3,5.2 -2.2,4.9 -3.2,4.4 -3.9,3.7 -4.5,2.9 -5,2 -5.3,1.1 h -5.4 l -5.3,-1.1 -5,-2 -4.5,-2.9 -3.9,-3.7 -3.1,-4.4 -2.3,-4.9 -1.3,-5.2 -0.2,-5.4 0.8,-5.3 1.7,-5.1 2.7,-4.7 3.5,-4.1 4.3,-3.3 4.8,-2.5 5.1,-1.5 5.4,-0.5 m 0,-85 5.4,0.5 5.1,1.5 4.8,2.5 4.3,3.3 3.5,4.1 2.7,4.6 1.7,5.1 0.8,5.4 -0.2,5.3 -1.3,5.3 -2.2,4.9 -3.2,4.4 -3.9,3.7 -4.5,2.9 -5,2 -5.3,1 h -5.4 l -5.3,-1 -5,-2 -4.5,-2.9 -3.9,-3.7 -3.1,-4.4 -2.3,-4.9 -1.3,-5.3 -0.2,-5.3 0.8,-5.4 1.7,-5.1 2.7,-4.6 3.5,-4.1 4.3,-3.3 4.8,-2.5 5.1,-1.5 5.4,-0.5 m 0,-85.1 5.4,0.5 5.1,1.5 4.8,2.5 4.3,3.3 3.5,4.1 2.7,4.7 1.7,5.1 0.8,5.3 -0.2,5.4 -1.3,5.2 -2.2,4.9 -3.2,4.4 -3.9,3.7 -4.5,3 -5,2 -5.3,1 h -5.4 l -5.3,-1 -5,-2 -4.5,-3 -3.9,-3.7 -3.1,-4.4 -2.3,-4.9 -1.3,-5.2 -0.2,-5.4 0.8,-5.3 1.7,-5.1 2.7,-4.7 3.5,-4.1 4.3,-3.3 4.8,-2.5 5.1,-1.5 5.4,-0.5 m 0,-85 5.4,0.5 5.1,1.5 4.8,2.5 4.3,3.3 3.5,4.1 2.7,4.6 1.7,5.1 0.8,5.4 -0.2,5.4 -1.3,5.2 -2.2,4.9 -3.2,4.4 -3.9,3.7 -4.5,2.9 -5,2 -5.3,1 h -5.4 l -5.3,-1 -5,-2 -4.5,-2.9 -3.9,-3.7 -3.1,-4.4 -2.3,-4.9 -1.3,-5.2 -0.2,-5.4 0.8,-5.4 1.7,-5.1 2.7,-4.6 3.5,-4.1 4.3,-3.3 4.8,-2.5 5.1,-1.5 5.4,-0.5 m 0,-85.1 5.4,0.6 5.1,1.5 4.8,2.4 4.3,3.4 3.5,4 2.7,4.7 1.7,5.1 0.8,5.3 -0.2,5.4 -1.3,5.3 -2.2,4.9 -3.2,4.3 -3.9,3.8 -4.5,2.9 -5,2 -5.3,1 h -5.4 l -5.3,-1 -5,-2 -4.5,-2.9 -3.9,-3.8 -3.1,-4.3 -2.3,-4.9 -1.3,-5.3 -0.2,-5.4 0.8,-5.3 1.7,-5.1 2.7,-4.7 3.5,-4 4.3,-3.4 4.8,-2.4 5.1,-1.5 5.4,-0.6 m 0,-85 5.4,0.5 5.1,1.5 4.8,2.5 4.3,3.3 3.5,4.1 2.7,4.7 1.7,5.1 0.8,5.3 -0.2,5.4 -1.3,5.2 -2.2,4.9 -3.2,4.4 -3.9,3.7 -4.5,2.9 -5,2 -5.3,1.1 h -5.4 l -5.3,-1.1 -5,-2 -4.5,-2.9 -3.9,-3.7 -3.1,-4.4 -2.3,-4.9 -1.3,-5.2 -0.2,-5.4 0.8,-5.3 1.7,-5.1 2.7,-4.7 3.5,-4.1 4.3,-3.3 4.8,-2.5 5.1,-1.5 5.4,-0.5 m 0,-85 5.4,0.5 5.1,1.5 4.8,2.5 4.3,3.3 3.5,4.1 2.7,4.6 1.7,5.1 0.8,5.4 -0.2,5.3 -1.3,5.3 -2.2,4.9 -3.2,4.4 -3.9,3.7 -4.5,2.9 -5,2 -5.3,1 h -5.4 l -5.3,-1 -5,-2 -4.5,-2.9 -3.9,-3.7 -3.1,-4.4 -2.3,-4.9 -1.3,-5.3 -0.2,-5.3 0.8,-5.4 1.7,-5.1 2.7,-4.6 3.5,-4.1 4.3,-3.3 4.8,-2.5 5.1,-1.5 5.4,-0.5 m 0,-85.1 5.4,0.5 5.1,1.6 4.8,2.4 4.3,3.4 3.5,4 2.7,4.7 1.7,5.1 0.8,5.3 -0.2,5.4 -1.3,5.2 -2.2,4.9 -3.2,4.4 -3.9,3.7 -4.5,3 -5,2 -5.3,1 h -5.4 l -5.3,-1 -5,-2 -4.5,-3 -3.9,-3.7 -3.1,-4.4 -2.3,-4.9 -1.3,-5.2 -0.2,-5.4 0.8,-5.3 1.7,-5.1 2.7,-4.7 3.5,-4 4.3,-3.4 4.8,-2.4 5.1,-1.6 5.4,-0.5 m 0,-85 5.4,0.5 5.1,1.5 4.8,2.5 4.3,3.3 3.5,4.1 2.7,4.7 1.7,5 0.8,5.4 -0.2,5.4 -1.3,5.2 -2.2,4.9 -3.2,4.4 -3.9,3.7 -4.5,2.9 -5,2 -5.3,1 h -5.4 l -5.3,-1 -5,-2 -4.5,-2.9 -3.9,-3.7 -3.1,-4.4 -2.3,-4.9 -1.3,-5.2 -0.2,-5.4 0.8,-5.4 1.7,-5 2.7,-4.7 3.5,-4.1 4.3,-3.3 4.8,-2.5 5.1,-1.5 5.4,-0.5 m 935.4,850.4 5.4,0.5 5.2,1.5 4.8,2.5 4.2,3.3 3.5,4.1 2.7,4.6 1.8,5.1 0.7,5.4 -0.2,5.4 -1.3,5.2 -2.2,4.9 -3.1,4.4 -3.9,3.7 -4.6,2.9 -5,2 -5.3,1 h -5.4 l -5.3,-1 -5,-2 -4.5,-2.9 -3.9,-3.7 -3.1,-4.4 -2.3,-4.9 -1.2,-5.2 -0.3,-5.4 0.8,-5.4 1.7,-5.1 2.7,-4.6 3.6,-4.1 4.2,-3.3 4.8,-2.5 5.2,-1.5 5.3,-0.5 m -85,0 5.4,0.5 5.1,1.5 4.8,2.5 4.3,3.3 3.5,4.1 2.7,4.6 1.7,5.1 0.8,5.4 -0.2,5.4 -1.3,5.2 -2.3,4.9 -3.1,4.4 -3.9,3.7 -4.5,2.9 -5,2 -5.3,1 h -5.4 l -5.3,-1 -5,-2 -4.5,-2.9 -3.9,-3.7 -3.2,-4.4 -2.2,-4.9 -1.3,-5.2 -0.2,-5.4 0.7,-5.4 1.8,-5.1 2.7,-4.6 3.5,-4.1 4.3,-3.3 4.8,-2.5 5.1,-1.5 5.4,-0.5 m -85,0 5.3,0.5 5.2,1.5 4.8,2.5 4.2,3.3 3.5,4.1 2.7,4.6 1.8,5.1 0.8,5.4 -0.3,5.4 -1.3,5.2 -2.2,4.9 -3.1,4.4 -3.9,3.7 -4.6,2.9 -5,2 -5.2,1 h -5.4 l -5.3,-1 -5,-2 -4.6,-2.9 -3.9,-3.7 -3.1,-4.4 -2.2,-4.9 -1.3,-5.2 -0.3,-5.4 0.8,-5.4 1.8,-5.1 2.7,-4.6 3.5,-4.1 4.2,-3.3 4.8,-2.5 5.2,-1.5 5.4,-0.5 m -85.1,0 5.4,0.5 5.2,1.5 4.7,2.5 4.3,3.3 3.5,4.1 2.7,4.6 1.8,5.1 0.7,5.4 -0.2,5.4 -1.3,5.2 -2.2,4.9 -3.2,4.4 -3.9,3.7 -4.5,2.9 -5,2 -5.3,1 h -5.4 l -5.3,-1 -5,-2 -4.5,-2.9 -3.9,-3.7 -3.1,-4.4 -2.3,-4.9 -1.2,-5.2 -0.3,-5.4 0.8,-5.4 1.7,-5.1 2.7,-4.6 3.6,-4.1 4.2,-3.3 4.8,-2.5 5.2,-1.5 5.3,-0.5 m -85,0 5.3,0.5 5.2,1.5 4.8,2.5 4.2,3.3 3.6,4.1 2.7,4.6 1.7,5.1 0.8,5.4 -0.3,5.4 -1.2,5.2 -2.3,4.9 -3.1,4.4 -3.9,3.7 -4.5,2.9 -5,2 -5.3,1 h -5.4 l -5.3,-1 -5,-2 -4.5,-2.9 -3.9,-3.7 -3.2,-4.4 -2.2,-4.9 -1.3,-5.2 -0.2,-5.4 0.7,-5.4 1.8,-5.1 2.7,-4.6 3.5,-4.1 4.3,-3.3 4.7,-2.5 5.2,-1.5 5.4,-0.5 m -85.1,0 5.4,0.5 5.2,1.5 4.8,2.5 4.2,3.3 3.5,4.1 2.7,4.6 1.8,5.1 0.8,5.4 -0.3,5.4 -1.3,5.2 -2.2,4.9 -3.1,4.4 -3.9,3.7 -4.6,2.9 -5,2 -5.3,1 h -5.4 l -5.2,-1 -5.1,-2 -4.5,-2.9 -3.9,-3.7 -3.1,-4.4 -2.2,-4.9 -1.3,-5.2 -0.3,-5.4 0.8,-5.4 1.8,-5.1 2.6,-4.6 3.6,-4.1 4.2,-3.3 4.8,-2.5 5.2,-1.5 5.3,-0.5 m -85,0 5.4,0.5 5.1,1.5 4.8,2.5 4.3,3.3 3.5,4.1 2.7,4.6 1.7,5.1 0.8,5.4 -0.2,5.4 -1.3,5.2 -2.3,4.9 -3.1,4.4 -3.9,3.7 -4.5,2.9 -5,2 -5.3,1 h -5.4 l -5.3,-1 -5,-2 -4.5,-2.9 -3.9,-3.7 -3.2,-4.4 -2.2,-4.9 -1.3,-5.2 -0.2,-5.4 0.8,-5.4 1.7,-5.1 2.7,-4.6 3.5,-4.1 4.3,-3.3 4.8,-2.5 5.1,-1.5 5.4,-0.5 m -85,0 5.3,0.5 5.2,1.5 4.8,2.5 4.2,3.3 3.5,4.1 2.7,4.6 1.8,5.1 0.8,5.4 -0.3,5.4 -1.3,5.2 -2.2,4.9 -3.1,4.4 -3.9,3.7 -4.6,2.9 -5,2 -5.2,1 h -5.4 l -5.3,-1 -5,-2 -4.6,-2.9 -3.9,-3.7 -3.1,-4.4 -2.2,-4.9 -1.3,-5.2 -0.3,-5.4 0.8,-5.4 1.8,-5.1 2.7,-4.6 3.5,-4.1 4.2,-3.3 4.8,-2.5 5.2,-1.5 5.4,-0.5 m -85.1,0 5.4,0.5 5.2,1.5 4.7,2.5 4.3,3.3 3.5,4.1 2.7,4.6 1.8,5.1 0.7,5.4 -0.2,5.4 -1.3,5.2 -2.2,4.9 -3.2,4.4 -3.9,3.7 -4.5,2.9 -5,2 -5.3,1 h -5.4 l -5.3,-1 -5,-2 -4.5,-2.9 -3.9,-3.7 -3.1,-4.4 -2.3,-4.9 -1.2,-5.2 -0.3,-5.4 0.8,-5.4 1.7,-5.1 2.7,-4.6 3.6,-4.1 4.2,-3.3 4.8,-2.5 5.2,-1.5 5.3,-0.5 m -85,0 5.3,0.5 5.2,1.5 4.8,2.5 4.2,3.3 3.6,4.1 2.7,4.6 1.7,5.1 0.8,5.4 -0.3,5.4 -1.2,5.2 -2.3,4.9 -3.1,4.4 -3.9,3.7 -4.5,2.9 -5,2 -5.3,1 h -5.4 l -5.3,-1 -5,-2 -4.5,-2.9 -3.9,-3.7 -3.2,-4.4 -2.2,-4.9 -1.3,-5.2 -0.2,-5.4 0.7,-5.4 1.8,-5.1 2.7,-4.6 3.5,-4.1 4.3,-3.3 4.7,-2.5 5.2,-1.5 5.4,-0.5 m -85.1,0 5.4,0.5 5.2,1.5 4.8,2.5 4.2,3.3 3.5,4.1 2.7,4.6 1.8,5.1 0.8,5.4 -0.3,5.4 -1.3,5.2 -2.2,4.9 -3.1,4.4 -3.9,3.7 -4.6,2.9 -5,2 -5.3,1 h -5.4 l -5.2,-1 -5,-2 -4.6,-2.9 -3.9,-3.7 -3.1,-4.4 -2.2,-4.9 -1.3,-5.2 -0.3,-5.4 0.8,-5.4 1.8,-5.1 2.7,-4.6 3.5,-4.1 4.2,-3.3 4.8,-2.5 5.2,-1.5 5.3,-0.5 m 850.4,-85.1 5.4,0.5 5.2,1.6 4.8,2.4 4.2,3.4 3.5,4 2.7,4.7 1.8,5.1 0.7,5.3 -0.2,5.4 -1.3,5.3 -2.2,4.9 -3.1,4.3 -3.9,3.8 -4.6,2.9 -5,2 -5.3,1 h -5.4 l -5.3,-1 -5,-2 -4.5,-2.9 -3.9,-3.8 -3.1,-4.3 -2.3,-4.9 -1.2,-5.3 -0.3,-5.4 0.8,-5.3 1.7,-5.1 2.7,-4.7 3.6,-4 4.2,-3.4 4.8,-2.4 5.2,-1.6 5.3,-0.5 m -85,0 5.4,0.5 5.1,1.6 4.8,2.4 4.3,3.4 3.5,4 2.7,4.7 1.7,5.1 0.8,5.3 -0.2,5.4 -1.3,5.3 -2.3,4.9 -3.1,4.3 -3.9,3.8 -4.5,2.9 -5,2 -5.3,1 h -5.4 l -5.3,-1 -5,-2 -4.5,-2.9 -3.9,-3.8 -3.2,-4.3 -2.2,-4.9 -1.3,-5.3 -0.2,-5.4 0.7,-5.3 1.8,-5.1 2.7,-4.7 3.5,-4 4.3,-3.4 4.8,-2.4 5.1,-1.6 5.4,-0.5 m -85,0 5.3,0.5 5.2,1.6 4.8,2.4 4.2,3.4 3.5,4 2.7,4.7 1.8,5.1 0.8,5.3 -0.3,5.4 -1.3,5.3 -2.2,4.9 -3.1,4.3 -3.9,3.8 -4.6,2.9 -5,2 -5.2,1 h -5.4 l -5.3,-1 -5,-2 -4.6,-2.9 -3.9,-3.8 -3.1,-4.3 -2.2,-4.9 -1.3,-5.3 -0.3,-5.4 0.8,-5.3 1.8,-5.1 2.7,-4.7 3.5,-4 4.2,-3.4 4.8,-2.4 5.2,-1.6 5.4,-0.5 m -85.1,0 5.4,0.5 5.2,1.6 4.7,2.4 4.3,3.4 3.5,4 2.7,4.7 1.8,5.1 0.7,5.3 -0.2,5.4 -1.3,5.3 -2.2,4.9 -3.2,4.3 -3.9,3.8 -4.5,2.9 -5,2 -5.3,1 h -5.4 l -5.3,-1 -5,-2 -4.5,-2.9 -3.9,-3.8 -3.1,-4.3 -2.3,-4.9 -1.2,-5.3 -0.3,-5.4 0.8,-5.3 1.7,-5.1 2.7,-4.7 3.6,-4 4.2,-3.4 4.8,-2.4 5.2,-1.6 5.3,-0.5 m -85,0 5.3,0.5 5.2,1.6 4.8,2.4 4.2,3.4 3.6,4 2.7,4.7 1.7,5.1 0.8,5.3 -0.3,5.4 -1.2,5.3 -2.3,4.9 -3.1,4.3 -3.9,3.8 -4.5,2.9 -5,2 -5.3,1 h -5.4 l -5.3,-1 -5,-2 -4.5,-2.9 -3.9,-3.8 -3.2,-4.3 -2.2,-4.9 -1.3,-5.3 -0.2,-5.4 0.7,-5.3 1.8,-5.1 2.7,-4.7 3.5,-4 4.3,-3.4 4.7,-2.4 5.2,-1.6 5.4,-0.5 m -85.1,0 5.4,0.5 5.2,1.6 4.8,2.4 4.2,3.4 3.5,4 2.7,4.7 1.8,5.1 0.8,5.3 -0.3,5.4 -1.3,5.3 -2.2,4.9 -3.1,4.3 -3.9,3.8 -4.6,2.9 -5,2 -5.3,1 h -5.4 l -5.2,-1 -5.1,-2 -4.5,-2.9 -3.9,-3.8 -3.1,-4.3 -2.2,-4.9 -1.3,-5.3 -0.3,-5.4 0.8,-5.3 1.8,-5.1 2.6,-4.7 3.6,-4 4.2,-3.4 4.8,-2.4 5.2,-1.6 5.3,-0.5 m -85,0 5.4,0.5 5.1,1.6 4.8,2.4 4.3,3.4 3.5,4 2.7,4.7 1.7,5.1 0.8,5.3 -0.2,5.4 -1.3,5.3 -2.3,4.9 -3.1,4.3 -3.9,3.8 -4.5,2.9 -5,2 -5.3,1 h -5.4 l -5.3,-1 -5,-2 -4.5,-2.9 -3.9,-3.8 -3.2,-4.3 -2.2,-4.9 -1.3,-5.3 -0.2,-5.4 0.8,-5.3 1.7,-5.1 2.7,-4.7 3.5,-4 4.3,-3.4 4.8,-2.4 5.1,-1.6 5.4,-0.5 m -85,0 5.3,0.5 5.2,1.6 4.8,2.4 4.2,3.4 3.5,4 2.7,4.7 1.8,5.1 0.8,5.3 -0.3,5.4 -1.3,5.3 -2.2,4.9 -3.1,4.3 -3.9,3.8 -4.6,2.9 -5,2 -5.2,1 h -5.4 l -5.3,-1 -5,-2 -4.6,-2.9 -3.9,-3.8 -3.1,-4.3 -2.2,-4.9 -1.3,-5.3 -0.3,-5.4 0.8,-5.3 1.8,-5.1 2.7,-4.7 3.5,-4 4.2,-3.4 4.8,-2.4 5.2,-1.6 5.4,-0.5 m -85.1,0 5.4,0.5 5.2,1.6 4.7,2.4 4.3,3.4 3.5,4 2.7,4.7 1.8,5.1 0.7,5.3 -0.2,5.4 -1.3,5.3 -2.2,4.9 -3.2,4.3 -3.9,3.8 -4.5,2.9 -5,2 -5.3,1 h -5.4 l -5.3,-1 -5,-2 -4.5,-2.9 -3.9,-3.8 -3.1,-4.3 -2.3,-4.9 -1.2,-5.3 -0.3,-5.4 0.8,-5.3 1.7,-5.1 2.7,-4.7 3.6,-4 4.2,-3.4 4.8,-2.4 5.2,-1.6 5.3,-0.5 m -85,0 5.3,0.5 5.2,1.6 4.8,2.4 4.2,3.4 3.6,4 2.7,4.7 1.7,5.1 0.8,5.3 -0.3,5.4 -1.2,5.3 -2.3,4.9 -3.1,4.3 -3.9,3.8 -4.5,2.9 -5,2 -5.3,1 h -5.4 l -5.3,-1 -5,-2 -4.5,-2.9 -3.9,-3.8 -3.2,-4.3 -2.2,-4.9 -1.3,-5.3 -0.2,-5.4 0.7,-5.3 1.8,-5.1 2.7,-4.7 3.5,-4 4.3,-3.4 4.7,-2.4 5.2,-1.6 5.4,-0.5 m -85.1,0 5.4,0.5 5.2,1.6 4.8,2.4 4.2,3.4 3.5,4 2.7,4.7 1.8,5.1 0.8,5.3 -0.3,5.4 -1.3,5.3 -2.2,4.9 -3.1,4.3 -3.9,3.8 -4.6,2.9 -5,2 -5.3,1 h -5.4 l -5.2,-1 -5,-2 -4.6,-2.9 -3.9,-3.8 -3.1,-4.3 -2.2,-4.9 -1.3,-5.3 -0.3,-5.4 0.8,-5.3 1.8,-5.1 2.7,-4.7 3.5,-4 4.2,-3.4 4.8,-2.4 5.2,-1.6 5.3,-0.5 m 850.4,-85 5.4,0.5 5.2,1.5 4.8,2.5 4.2,3.3 3.5,4.1 2.7,4.7 1.8,5.1 0.7,5.3 -0.2,5.4 -1.3,5.2 -2.2,4.9 -3.1,4.4 -3.9,3.7 -4.6,2.9 -5,2 -5.3,1.1 h -5.4 l -5.3,-1.1 -5,-2 -4.5,-2.9 -3.9,-3.7 -3.1,-4.4 -2.3,-4.9 -1.2,-5.2 -0.3,-5.4 0.8,-5.3 1.7,-5.1 2.7,-4.7 3.6,-4.1 4.2,-3.3 4.8,-2.5 5.2,-1.5 5.3,-0.5 m -85,0 5.4,0.5 5.1,1.5 4.8,2.5 4.3,3.3 3.5,4.1 2.7,4.7 1.7,5.1 0.8,5.3 -0.2,5.4 -1.3,5.2 -2.3,4.9 -3.1,4.4 -3.9,3.7 -4.5,2.9 -5,2 -5.3,1.1 h -5.4 l -5.3,-1.1 -5,-2 -4.5,-2.9 -3.9,-3.7 -3.2,-4.4 -2.2,-4.9 -1.3,-5.2 -0.2,-5.4 0.7,-5.3 1.8,-5.1 2.7,-4.7 3.5,-4.1 4.3,-3.3 4.8,-2.5 5.1,-1.5 5.4,-0.5 m -85,0 5.3,0.5 5.2,1.5 4.8,2.5 4.2,3.3 3.5,4.1 2.7,4.7 1.8,5.1 0.8,5.3 -0.3,5.4 -1.3,5.2 -2.2,4.9 -3.1,4.4 -3.9,3.7 -4.6,2.9 -5,2 -5.2,1.1 h -5.4 l -5.3,-1.1 -5,-2 -4.6,-2.9 -3.9,-3.7 -3.1,-4.4 -2.2,-4.9 -1.3,-5.2 -0.3,-5.4 0.8,-5.3 1.8,-5.1 2.7,-4.7 3.5,-4.1 4.2,-3.3 4.8,-2.5 5.2,-1.5 5.4,-0.5 m -85.1,0 5.4,0.5 5.2,1.5 4.7,2.5 4.3,3.3 3.5,4.1 2.7,4.7 1.8,5.1 0.7,5.3 -0.2,5.4 -1.3,5.2 -2.2,4.9 -3.2,4.4 -3.9,3.7 -4.5,2.9 -5,2 -5.3,1.1 h -5.4 l -5.3,-1.1 -5,-2 -4.5,-2.9 -3.9,-3.7 -3.1,-4.4 -2.3,-4.9 -1.2,-5.2 -0.3,-5.4 0.8,-5.3 1.7,-5.1 2.7,-4.7 3.6,-4.1 4.2,-3.3 4.8,-2.5 5.2,-1.5 5.3,-0.5 m -85,0 5.3,0.5 5.2,1.5 4.8,2.5 4.2,3.3 3.6,4.1 2.7,4.7 1.7,5.1 0.8,5.3 -0.3,5.4 -1.2,5.2 -2.3,4.9 -3.1,4.4 -3.9,3.7 -4.5,2.9 -5,2 -5.3,1.1 h -5.4 l -5.3,-1.1 -5,-2 -4.5,-2.9 -3.9,-3.7 -3.2,-4.4 -2.2,-4.9 -1.3,-5.2 -0.2,-5.4 0.7,-5.3 1.8,-5.1 2.7,-4.7 3.5,-4.1 4.3,-3.3 4.7,-2.5 5.2,-1.5 5.4,-0.5 m -85.1,0 5.4,0.5 5.2,1.5 4.8,2.5 4.2,3.3 3.5,4.1 2.7,4.7 1.8,5.1 0.8,5.3 -0.3,5.4 -1.3,5.2 -2.2,4.9 -3.1,4.4 -3.9,3.7 -4.6,2.9 -5,2 -5.3,1.1 h -5.4 l -5.2,-1.1 -5.1,-2 -4.5,-2.9 -3.9,-3.7 -3.1,-4.4 -2.2,-4.9 -1.3,-5.2 -0.3,-5.4 0.8,-5.3 1.8,-5.1 2.6,-4.7 3.6,-4.1 4.2,-3.3 4.8,-2.5 5.2,-1.5 5.3,-0.5 m -85,0 5.4,0.5 5.1,1.5 4.8,2.5 4.3,3.3 3.5,4.1 2.7,4.7 1.7,5.1 0.8,5.3 -0.2,5.4 -1.3,5.2 -2.3,4.9 -3.1,4.4 -3.9,3.7 -4.5,2.9 -5,2 -5.3,1.1 h -5.4 l -5.3,-1.1 -5,-2 -4.5,-2.9 -3.9,-3.7 -3.2,-4.4 -2.2,-4.9 -1.3,-5.2 -0.2,-5.4 0.8,-5.3 1.7,-5.1 2.7,-4.7 3.5,-4.1 4.3,-3.3 4.8,-2.5 5.1,-1.5 5.4,-0.5 m -85,0 5.3,0.5 5.2,1.5 4.8,2.5 4.2,3.3 3.5,4.1 2.7,4.7 1.8,5.1 0.8,5.3 -0.3,5.4 -1.3,5.2 -2.2,4.9 -3.1,4.4 -3.9,3.7 -4.6,2.9 -5,2 -5.2,1.1 h -5.4 l -5.3,-1.1 -5,-2 -4.6,-2.9 -3.9,-3.7 -3.1,-4.4 -2.2,-4.9 -1.3,-5.2 -0.3,-5.4 0.8,-5.3 1.8,-5.1 2.7,-4.7 3.5,-4.1 4.2,-3.3 4.8,-2.5 5.2,-1.5 5.4,-0.5 m -85.1,0 5.4,0.5 5.2,1.5 4.7,2.5 4.3,3.3 3.5,4.1 2.7,4.7 1.8,5.1 0.7,5.3 -0.2,5.4 -1.3,5.2 -2.2,4.9 -3.2,4.4 -3.9,3.7 -4.5,2.9 -5,2 -5.3,1.1 h -5.4 l -5.3,-1.1 -5,-2 -4.5,-2.9 -3.9,-3.7 -3.1,-4.4 -2.3,-4.9 -1.2,-5.2 -0.3,-5.4 0.8,-5.3 1.7,-5.1 2.7,-4.7 3.6,-4.1 4.2,-3.3 4.8,-2.5 5.2,-1.5 5.3,-0.5 m -85,0 5.3,0.5 5.2,1.5 4.8,2.5 4.2,3.3 3.6,4.1 2.7,4.7 1.7,5.1 0.8,5.3 -0.3,5.4 -1.2,5.2 -2.3,4.9 -3.1,4.4 -3.9,3.7 -4.5,2.9 -5,2 -5.3,1.1 h -5.4 l -5.3,-1.1 -5,-2 -4.5,-2.9 -3.9,-3.7 -3.2,-4.4 -2.2,-4.9 -1.3,-5.2 -0.2,-5.4 0.7,-5.3 1.8,-5.1 2.7,-4.7 3.5,-4.1 4.3,-3.3 4.7,-2.5 5.2,-1.5 5.4,-0.5 m -85.1,0 5.4,0.5 5.2,1.5 4.8,2.5 4.2,3.3 3.5,4.1 2.7,4.7 1.8,5.1 0.8,5.3 -0.3,5.4 -1.3,5.2 -2.2,4.9 -3.1,4.4 -3.9,3.7 -4.6,2.9 -5,2 -5.3,1.1 h -5.4 l -5.2,-1.1 -5,-2 -4.6,-2.9 -3.9,-3.7 -3.1,-4.4 -2.2,-4.9 -1.3,-5.2 -0.3,-5.4 0.8,-5.3 1.8,-5.1 2.7,-4.7 3.5,-4.1 4.2,-3.3 4.8,-2.5 5.2,-1.5 5.3,-0.5 m 850.4,-85 5.4,0.5 5.2,1.5 4.8,2.5 4.2,3.3 3.5,4.1 2.7,4.6 1.8,5.1 0.7,5.4 -0.2,5.3 -1.3,5.3 -2.2,4.9 -3.1,4.4 -3.9,3.7 -4.6,2.9 -5,2 -5.3,1 h -5.4 l -5.3,-1 -5,-2 -4.5,-2.9 -3.9,-3.7 -3.1,-4.4 -2.3,-4.9 -1.2,-5.3 -0.3,-5.3 0.8,-5.4 1.7,-5.1 2.7,-4.6 3.6,-4.1 4.2,-3.3 4.8,-2.5 5.2,-1.5 5.3,-0.5 m -85,0 5.4,0.5 5.1,1.5 4.8,2.5 4.3,3.3 3.5,4.1 2.7,4.6 1.7,5.1 0.8,5.4 -0.2,5.3 -1.3,5.3 -2.3,4.9 -3.1,4.4 -3.9,3.7 -4.5,2.9 -5,2 -5.3,1 h -5.4 l -5.3,-1 -5,-2 -4.5,-2.9 -3.9,-3.7 -3.2,-4.4 -2.2,-4.9 -1.3,-5.3 -0.2,-5.3 0.7,-5.4 1.8,-5.1 2.7,-4.6 3.5,-4.1 4.3,-3.3 4.8,-2.5 5.1,-1.5 5.4,-0.5 m -85,0 5.3,0.5 5.2,1.5 4.8,2.5 4.2,3.3 3.5,4.1 2.7,4.6 1.8,5.1 0.8,5.4 -0.3,5.3 -1.3,5.3 -2.2,4.9 -3.1,4.4 -3.9,3.7 -4.6,2.9 -5,2 -5.2,1 h -5.4 l -5.3,-1 -5,-2 -4.6,-2.9 -3.9,-3.7 -3.1,-4.4 -2.2,-4.9 -1.3,-5.3 -0.3,-5.3 0.8,-5.4 1.8,-5.1 2.7,-4.6 3.5,-4.1 4.2,-3.3 4.8,-2.5 5.2,-1.5 5.4,-0.5 m -85.1,0 5.4,0.5 5.2,1.5 4.7,2.5 4.3,3.3 3.5,4.1 2.7,4.6 1.8,5.1 0.7,5.4 -0.2,5.3 -1.3,5.3 -2.2,4.9 -3.2,4.4 -3.9,3.7 -4.5,2.9 -5,2 -5.3,1 h -5.4 l -5.3,-1 -5,-2 -4.5,-2.9 -3.9,-3.7 -3.1,-4.4 -2.3,-4.9 -1.2,-5.3 -0.3,-5.3 0.8,-5.4 1.7,-5.1 2.7,-4.6 3.6,-4.1 4.2,-3.3 4.8,-2.5 5.2,-1.5 5.3,-0.5 m -85,0 5.3,0.5 5.2,1.5 4.8,2.5 4.2,3.3 3.6,4.1 2.7,4.6 1.7,5.1 0.8,5.4 -0.3,5.3 -1.2,5.3 -2.3,4.9 -3.1,4.4 -3.9,3.7 -4.5,2.9 -5,2 -5.3,1 h -5.4 l -5.3,-1 -5,-2 -4.5,-2.9 -3.9,-3.7 -3.2,-4.4 -2.2,-4.9 -1.3,-5.3 -0.2,-5.3 0.7,-5.4 1.8,-5.1 2.7,-4.6 3.5,-4.1 4.3,-3.3 4.7,-2.5 5.2,-1.5 5.4,-0.5 m -85.1,0 5.4,0.5 5.2,1.5 4.8,2.5 4.2,3.3 3.5,4.1 2.7,4.6 1.8,5.1 0.8,5.4 -0.3,5.3 -1.3,5.3 -2.2,4.9 -3.1,4.4 -3.9,3.7 -4.6,2.9 -5,2 -5.3,1 h -5.4 l -5.2,-1 -5.1,-2 -4.5,-2.9 -3.9,-3.7 -3.1,-4.4 -2.2,-4.9 -1.3,-5.3 -0.3,-5.3 0.8,-5.4 1.8,-5.1 2.6,-4.6 3.6,-4.1 4.2,-3.3 4.8,-2.5 5.2,-1.5 5.3,-0.5 m -85,0 5.4,0.5 5.1,1.5 4.8,2.5 4.3,3.3 3.5,4.1 2.7,4.6 1.7,5.1 0.8,5.4 -0.2,5.3 -1.3,5.3 -2.3,4.9 -3.1,4.4 -3.9,3.7 -4.5,2.9 -5,2 -5.3,1 h -5.4 l -5.3,-1 -5,-2 -4.5,-2.9 -3.9,-3.7 -3.2,-4.4 -2.2,-4.9 -1.3,-5.3 -0.2,-5.3 0.8,-5.4 1.7,-5.1 2.7,-4.6 3.5,-4.1 4.3,-3.3 4.8,-2.5 5.1,-1.5 5.4,-0.5 m -85,0 5.3,0.5 5.2,1.5 4.8,2.5 4.2,3.3 3.5,4.1 2.7,4.6 1.8,5.1 0.8,5.4 -0.3,5.3 -1.3,5.3 -2.2,4.9 -3.1,4.4 -3.9,3.7 -4.6,2.9 -5,2 -5.2,1 h -5.4 l -5.3,-1 -5,-2 -4.6,-2.9 -3.9,-3.7 -3.1,-4.4 -2.2,-4.9 -1.3,-5.3 -0.3,-5.3 0.8,-5.4 1.8,-5.1 2.7,-4.6 3.5,-4.1 4.2,-3.3 4.8,-2.5 5.2,-1.5 5.4,-0.5 m -85.1,0 5.4,0.5 5.2,1.5 4.7,2.5 4.3,3.3 3.5,4.1 2.7,4.6 1.8,5.1 0.7,5.4 -0.2,5.3 -1.3,5.3 -2.2,4.9 -3.2,4.4 -3.9,3.7 -4.5,2.9 -5,2 -5.3,1 h -5.4 l -5.3,-1 -5,-2 -4.5,-2.9 -3.9,-3.7 -3.1,-4.4 -2.3,-4.9 -1.2,-5.3 -0.3,-5.3 0.8,-5.4 1.7,-5.1 2.7,-4.6 3.6,-4.1 4.2,-3.3 4.8,-2.5 5.2,-1.5 5.3,-0.5 m -85,0 5.3,0.5 5.2,1.5 4.8,2.5 4.2,3.3 3.6,4.1 2.7,4.6 1.7,5.1 0.8,5.4 -0.3,5.3 -1.2,5.3 -2.3,4.9 -3.1,4.4 -3.9,3.7 -4.5,2.9 -5,2 -5.3,1 h -5.4 l -5.3,-1 -5,-2 -4.5,-2.9 -3.9,-3.7 -3.2,-4.4 -2.2,-4.9 -1.3,-5.3 -0.2,-5.3 0.7,-5.4 1.8,-5.1 2.7,-4.6 3.5,-4.1 4.3,-3.3 4.7,-2.5 5.2,-1.5 5.4,-0.5 m -85.1,0 5.4,0.5 5.2,1.5 4.8,2.5 4.2,3.3 3.5,4.1 2.7,4.6 1.8,5.1 0.8,5.4 -0.3,5.3 -1.3,5.3 -2.2,4.9 -3.1,4.4 -3.9,3.7 -4.6,2.9 -5,2 -5.3,1 h -5.4 l -5.2,-1 -5,-2 -4.6,-2.9 -3.9,-3.7 -3.1,-4.4 -2.2,-4.9 -1.3,-5.3 -0.3,-5.3 0.8,-5.4 1.8,-5.1 2.7,-4.6 3.5,-4.1 4.2,-3.3 4.8,-2.5 5.2,-1.5 5.3,-0.5 m 850.4,-85.1 5.4,0.5 5.2,1.5 4.8,2.5 4.2,3.3 3.5,4.1 2.7,4.7 1.8,5.1 0.7,5.3 -0.2,5.4 -1.3,5.2 -2.2,4.9 -3.1,4.4 -3.9,3.7 -4.6,3 -5,2 -5.3,1 h -5.4 l -5.3,-1 -5,-2 -4.5,-3 -3.9,-3.7 -3.1,-4.4 -2.3,-4.9 -1.2,-5.2 -0.3,-5.4 0.8,-5.3 1.7,-5.1 2.7,-4.7 3.6,-4.1 4.2,-3.3 4.8,-2.5 5.2,-1.5 5.3,-0.5 m -85,0 5.4,0.5 5.1,1.5 4.8,2.5 4.3,3.3 3.5,4.1 2.7,4.7 1.7,5.1 0.8,5.3 -0.2,5.4 -1.3,5.2 -2.3,4.9 -3.1,4.4 -3.9,3.7 -4.5,3 -5,2 -5.3,1 h -5.4 l -5.3,-1 -5,-2 -4.5,-3 -3.9,-3.7 -3.2,-4.4 -2.2,-4.9 -1.3,-5.2 -0.2,-5.4 0.7,-5.3 1.8,-5.1 2.7,-4.7 3.5,-4.1 4.3,-3.3 4.8,-2.5 5.1,-1.5 5.4,-0.5 m -85,0 5.3,0.5 5.2,1.5 4.8,2.5 4.2,3.3 3.5,4.1 2.7,4.7 1.8,5.1 0.8,5.3 -0.3,5.4 -1.3,5.2 -2.2,4.9 -3.1,4.4 -3.9,3.7 -4.6,3 -5,2 -5.2,1 h -5.4 l -5.3,-1 -5,-2 -4.6,-3 -3.9,-3.7 -3.1,-4.4 -2.2,-4.9 -1.3,-5.2 -0.3,-5.4 0.8,-5.3 1.8,-5.1 2.7,-4.7 3.5,-4.1 4.2,-3.3 4.8,-2.5 5.2,-1.5 5.4,-0.5 m -85.1,0 5.4,0.5 5.2,1.5 4.7,2.5 4.3,3.3 3.5,4.1 2.7,4.7 1.8,5.1 0.7,5.3 -0.2,5.4 -1.3,5.2 -2.2,4.9 -3.2,4.4 -3.9,3.7 -4.5,3 -5,2 -5.3,1 h -5.4 l -5.3,-1 -5,-2 -4.5,-3 -3.9,-3.7 -3.1,-4.4 -2.3,-4.9 -1.2,-5.2 -0.3,-5.4 0.8,-5.3 1.7,-5.1 2.7,-4.7 3.6,-4.1 4.2,-3.3 4.8,-2.5 5.2,-1.5 5.3,-0.5 m -85,0 5.3,0.5 5.2,1.5 4.8,2.5 4.2,3.3 3.6,4.1 2.7,4.7 1.7,5.1 0.8,5.3 -0.3,5.4 -1.2,5.2 -2.3,4.9 -3.1,4.4 -3.9,3.7 -4.5,3 -5,2 -5.3,1 h -5.4 l -5.3,-1 -5,-2 -4.5,-3 -3.9,-3.7 -3.2,-4.4 -2.2,-4.9 -1.3,-5.2 -0.2,-5.4 0.7,-5.3 1.8,-5.1 2.7,-4.7 3.5,-4.1 4.3,-3.3 4.7,-2.5 5.2,-1.5 5.4,-0.5 m -85.1,0 5.4,0.5 5.2,1.5 4.8,2.5 4.2,3.3 3.5,4.1 2.7,4.7 1.8,5.1 0.8,5.3 -0.3,5.4 -1.3,5.2 -2.2,4.9 -3.1,4.4 -3.9,3.7 -4.6,3 -5,2 -5.3,1 h -5.4 l -5.2,-1 -5.1,-2 -4.5,-3 -3.9,-3.7 -3.1,-4.4 -2.2,-4.9 -1.3,-5.2 -0.3,-5.4 0.8,-5.3 1.8,-5.1 2.6,-4.7 3.6,-4.1 4.2,-3.3 4.8,-2.5 5.2,-1.5 5.3,-0.5 m -85,0 5.4,0.5 5.1,1.5 4.8,2.5 4.3,3.3 3.5,4.1 2.7,4.7 1.7,5.1 0.8,5.3 -0.2,5.4 -1.3,5.2 -2.3,4.9 -3.1,4.4 -3.9,3.7 -4.5,3 -5,2 -5.3,1 h -5.4 l -5.3,-1 -5,-2 -4.5,-3 -3.9,-3.7 -3.2,-4.4 -2.2,-4.9 -1.3,-5.2 -0.2,-5.4 0.8,-5.3 1.7,-5.1 2.7,-4.7 3.5,-4.1 4.3,-3.3 4.8,-2.5 5.1,-1.5 5.4,-0.5 m -85,0 5.3,0.5 5.2,1.5 4.8,2.5 4.2,3.3 3.5,4.1 2.7,4.7 1.8,5.1 0.8,5.3 -0.3,5.4 -1.3,5.2 -2.2,4.9 -3.1,4.4 -3.9,3.7 -4.6,3 -5,2 -5.2,1 h -5.4 l -5.3,-1 -5,-2 -4.6,-3 -3.9,-3.7 -3.1,-4.4 -2.2,-4.9 -1.3,-5.2 -0.3,-5.4 0.8,-5.3 1.8,-5.1 2.7,-4.7 3.5,-4.1 4.2,-3.3 4.8,-2.5 5.2,-1.5 5.4,-0.5 m -85.1,0 5.4,0.5 5.2,1.5 4.7,2.5 4.3,3.3 3.5,4.1 2.7,4.7 1.8,5.1 0.7,5.3 -0.2,5.4 -1.3,5.2 -2.2,4.9 -3.2,4.4 -3.9,3.7 -4.5,3 -5,2 -5.3,1 h -5.4 l -5.3,-1 -5,-2 -4.5,-3 -3.9,-3.7 -3.1,-4.4 -2.3,-4.9 -1.2,-5.2 -0.3,-5.4 0.8,-5.3 1.7,-5.1 2.7,-4.7 3.6,-4.1 4.2,-3.3 4.8,-2.5 5.2,-1.5 5.3,-0.5 m -85,0 5.3,0.5 5.2,1.5 4.8,2.5 4.2,3.3 3.6,4.1 2.7,4.7 1.7,5.1 0.8,5.3 -0.3,5.4 -1.2,5.2 -2.3,4.9 -3.1,4.4 -3.9,3.7 -4.5,3 -5,2 -5.3,1 h -5.4 l -5.3,-1 -5,-2 -4.5,-3 -3.9,-3.7 -3.2,-4.4 -2.2,-4.9 -1.3,-5.2 -0.2,-5.4 0.7,-5.3 1.8,-5.1 2.7,-4.7 3.5,-4.1 4.3,-3.3 4.7,-2.5 5.2,-1.5 5.4,-0.5 m -85.1,0 5.4,0.5 5.2,1.5 4.8,2.5 4.2,3.3 3.5,4.1 2.7,4.7 1.8,5.1 0.8,5.3 -0.3,5.4 -1.3,5.2 -2.2,4.9 -3.1,4.4 -3.9,3.7 -4.6,3 -5,2 -5.3,1 h -5.4 l -5.2,-1 -5,-2 -4.6,-3 -3.9,-3.7 -3.1,-4.4 -2.2,-4.9 -1.3,-5.2 -0.3,-5.4 0.8,-5.3 1.8,-5.1 2.7,-4.7 3.5,-4.1 4.2,-3.3 4.8,-2.5 5.2,-1.5 5.3,-0.5 m 850.4,-85 5.4,0.5 5.2,1.5 4.8,2.5 4.2,3.3 3.5,4.1 2.7,4.6 1.8,5.1 0.7,5.4 -0.2,5.4 -1.3,5.2 -2.2,4.9 -3.1,4.4 -3.9,3.7 -4.6,2.9 -5,2 -5.3,1 h -5.4 l -5.3,-1 -5,-2 -4.5,-2.9 -3.9,-3.7 -3.1,-4.4 -2.3,-4.9 -1.2,-5.2 -0.3,-5.4 0.8,-5.4 1.7,-5.1 2.7,-4.6 3.6,-4.1 4.2,-3.3 4.8,-2.5 5.2,-1.5 5.3,-0.5 m -85,0 5.4,0.5 5.1,1.5 4.8,2.5 4.3,3.3 3.5,4.1 2.7,4.6 1.7,5.1 0.8,5.4 -0.2,5.4 -1.3,5.2 -2.3,4.9 -3.1,4.4 -3.9,3.7 -4.5,2.9 -5,2 -5.3,1 h -5.4 l -5.3,-1 -5,-2 -4.5,-2.9 -3.9,-3.7 -3.2,-4.4 -2.2,-4.9 -1.3,-5.2 -0.2,-5.4 0.7,-5.4 1.8,-5.1 2.7,-4.6 3.5,-4.1 4.3,-3.3 4.8,-2.5 5.1,-1.5 5.4,-0.5 m -85,0 5.3,0.5 5.2,1.5 4.8,2.5 4.2,3.3 3.5,4.1 2.7,4.6 1.8,5.1 0.8,5.4 -0.3,5.4 -1.3,5.2 -2.2,4.9 -3.1,4.4 -3.9,3.7 -4.6,2.9 -5,2 -5.2,1 h -5.4 l -5.3,-1 -5,-2 -4.6,-2.9 -3.9,-3.7 -3.1,-4.4 -2.2,-4.9 -1.3,-5.2 -0.3,-5.4 0.8,-5.4 1.8,-5.1 2.7,-4.6 3.5,-4.1 4.2,-3.3 4.8,-2.5 5.2,-1.5 5.4,-0.5 m -85.1,0 5.4,0.5 5.2,1.5 4.7,2.5 4.3,3.3 3.5,4.1 2.7,4.6 1.8,5.1 0.7,5.4 -0.2,5.4 -1.3,5.2 -2.2,4.9 -3.2,4.4 -3.9,3.7 -4.5,2.9 -5,2 -5.3,1 h -5.4 l -5.3,-1 -5,-2 -4.5,-2.9 -3.9,-3.7 -3.1,-4.4 -2.3,-4.9 -1.2,-5.2 -0.3,-5.4 0.8,-5.4 1.7,-5.1 2.7,-4.6 3.6,-4.1 4.2,-3.3 4.8,-2.5 5.2,-1.5 5.3,-0.5 m -85,0 5.3,0.5 5.2,1.5 4.8,2.5 4.2,3.3 3.6,4.1 2.7,4.6 1.7,5.1 0.8,5.4 -0.3,5.4 -1.2,5.2 -2.3,4.9 -3.1,4.4 -3.9,3.7 -4.5,2.9 -5,2 -5.3,1 h -5.4 l -5.3,-1 -5,-2 -4.5,-2.9 -3.9,-3.7 -3.2,-4.4 -2.2,-4.9 -1.3,-5.2 -0.2,-5.4 0.7,-5.4 1.8,-5.1 2.7,-4.6 3.5,-4.1 4.3,-3.3 4.7,-2.5 5.2,-1.5 5.4,-0.5 m -85.1,0 5.4,0.5 5.2,1.5 4.8,2.5 4.2,3.3 3.5,4.1 2.7,4.6 1.8,5.1 0.8,5.4 -0.3,5.4 -1.3,5.2 -2.2,4.9 -3.1,4.4 -3.9,3.7 -4.6,2.9 -5,2 -5.3,1 h -5.4 l -5.2,-1 -5.1,-2 -4.5,-2.9 -3.9,-3.7 -3.1,-4.4 -2.2,-4.9 -1.3,-5.2 -0.3,-5.4 0.8,-5.4 1.8,-5.1 2.6,-4.6 3.6,-4.1 4.2,-3.3 4.8,-2.5 5.2,-1.5 5.3,-0.5 m -85,0 5.4,0.5 5.1,1.5 4.8,2.5 4.3,3.3 3.5,4.1 2.7,4.6 1.7,5.1 0.8,5.4 -0.2,5.4 -1.3,5.2 -2.3,4.9 -3.1,4.4 -3.9,3.7 -4.5,2.9 -5,2 -5.3,1 h -5.4 l -5.3,-1 -5,-2 -4.5,-2.9 -3.9,-3.7 -3.2,-4.4 -2.2,-4.9 -1.3,-5.2 -0.2,-5.4 0.8,-5.4 1.7,-5.1 2.7,-4.6 3.5,-4.1 4.3,-3.3 4.8,-2.5 5.1,-1.5 5.4,-0.5 m -85,0 5.3,0.5 5.2,1.5 4.8,2.5 4.2,3.3 3.5,4.1 2.7,4.6 1.8,5.1 0.8,5.4 -0.3,5.4 -1.3,5.2 -2.2,4.9 -3.1,4.4 -3.9,3.7 -4.6,2.9 -5,2 -5.2,1 h -5.4 l -5.3,-1 -5,-2 -4.6,-2.9 -3.9,-3.7 -3.1,-4.4 -2.2,-4.9 -1.3,-5.2 -0.3,-5.4 0.8,-5.4 1.8,-5.1 2.7,-4.6 3.5,-4.1 4.2,-3.3 4.8,-2.5 5.2,-1.5 5.4,-0.5 m -85.1,0 5.4,0.5 5.2,1.5 4.7,2.5 4.3,3.3 3.5,4.1 2.7,4.6 1.8,5.1 0.7,5.4 -0.2,5.4 -1.3,5.2 -2.2,4.9 -3.2,4.4 -3.9,3.7 -4.5,2.9 -5,2 -5.3,1 h -5.4 l -5.3,-1 -5,-2 -4.5,-2.9 -3.9,-3.7 -3.1,-4.4 -2.3,-4.9 -1.2,-5.2 -0.3,-5.4 0.8,-5.4 1.7,-5.1 2.7,-4.6 3.6,-4.1 4.2,-3.3 4.8,-2.5 5.2,-1.5 5.3,-0.5 m -85,0 5.3,0.5 5.2,1.5 4.8,2.5 4.2,3.3 3.6,4.1 2.7,4.6 1.7,5.1 0.8,5.4 -0.3,5.4 -1.2,5.2 -2.3,4.9 -3.1,4.4 -3.9,3.7 -4.5,2.9 -5,2 -5.3,1 h -5.4 l -5.3,-1 -5,-2 -4.5,-2.9 -3.9,-3.7 -3.2,-4.4 -2.2,-4.9 -1.3,-5.2 -0.2,-5.4 0.7,-5.4 1.8,-5.1 2.7,-4.6 3.5,-4.1 4.3,-3.3 4.7,-2.5 5.2,-1.5 5.4,-0.5 m -85.1,0 5.4,0.5 5.2,1.5 4.8,2.5 4.2,3.3 3.5,4.1 2.7,4.6 1.8,5.1 0.8,5.4 -0.3,5.4 -1.3,5.2 -2.2,4.9 -3.1,4.4 -3.9,3.7 -4.6,2.9 -5,2 -5.3,1 h -5.4 l -5.2,-1 -5,-2 -4.6,-2.9 -3.9,-3.7 -3.1,-4.4 -2.2,-4.9 -1.3,-5.2 -0.3,-5.4 0.8,-5.4 1.8,-5.1 2.7,-4.6 3.5,-4.1 4.2,-3.3 4.8,-2.5 5.2,-1.5 5.3,-0.5 m 850.4,-85.1 5.4,0.6 5.2,1.5 4.8,2.4 4.2,3.4 3.5,4 2.7,4.7 1.8,5.1 0.7,5.3 -0.2,5.4 -1.3,5.3 -2.2,4.9 -3.1,4.3 -3.9,3.8 -4.6,2.9 -5,2 -5.3,1 h -5.4 l -5.3,-1 -5,-2 -4.5,-2.9 -3.9,-3.8 -3.1,-4.3 -2.3,-4.9 -1.2,-5.3 -0.3,-5.4 0.8,-5.3 1.7,-5.1 2.7,-4.7 3.6,-4 4.2,-3.4 4.8,-2.4 5.2,-1.5 5.3,-0.6 m -85,0 5.4,0.6 5.1,1.5 4.8,2.4 4.3,3.4 3.5,4 2.7,4.7 1.7,5.1 0.8,5.3 -0.2,5.4 -1.3,5.3 -2.3,4.9 -3.1,4.3 -3.9,3.8 -4.5,2.9 -5,2 -5.3,1 h -5.4 l -5.3,-1 -5,-2 -4.5,-2.9 -3.9,-3.8 -3.2,-4.3 -2.2,-4.9 -1.3,-5.3 -0.2,-5.4 0.7,-5.3 1.8,-5.1 2.7,-4.7 3.5,-4 4.3,-3.4 4.8,-2.4 5.1,-1.5 5.4,-0.6 m -85,0 5.3,0.6 5.2,1.5 4.8,2.4 4.2,3.4 3.5,4 2.7,4.7 1.8,5.1 0.8,5.3 -0.3,5.4 -1.3,5.3 -2.2,4.9 -3.1,4.3 -3.9,3.8 -4.6,2.9 -5,2 -5.2,1 h -5.4 l -5.3,-1 -5,-2 -4.6,-2.9 -3.9,-3.8 -3.1,-4.3 -2.2,-4.9 -1.3,-5.3 -0.3,-5.4 0.8,-5.3 1.8,-5.1 2.7,-4.7 3.5,-4 4.2,-3.4 4.8,-2.4 5.2,-1.5 5.4,-0.6 m -85.1,0 5.4,0.6 5.2,1.5 4.7,2.4 4.3,3.4 3.5,4 2.7,4.7 1.8,5.1 0.7,5.3 -0.2,5.4 -1.3,5.3 -2.2,4.9 -3.2,4.3 -3.9,3.8 -4.5,2.9 -5,2 -5.3,1 h -5.4 l -5.3,-1 -5,-2 -4.5,-2.9 -3.9,-3.8 -3.1,-4.3 -2.3,-4.9 -1.2,-5.3 -0.3,-5.4 0.8,-5.3 1.7,-5.1 2.7,-4.7 3.6,-4 4.2,-3.4 4.8,-2.4 5.2,-1.5 5.3,-0.6 m -85,0 5.3,0.6 5.2,1.5 4.8,2.4 4.2,3.4 3.6,4 2.7,4.7 1.7,5.1 0.8,5.3 -0.3,5.4 -1.2,5.3 -2.3,4.9 -3.1,4.3 -3.9,3.8 -4.5,2.9 -5,2 -5.3,1 h -5.4 l -5.3,-1 -5,-2 -4.5,-2.9 -3.9,-3.8 -3.2,-4.3 -2.2,-4.9 -1.3,-5.3 -0.2,-5.4 0.7,-5.3 1.8,-5.1 2.7,-4.7 3.5,-4 4.3,-3.4 4.7,-2.4 5.2,-1.5 5.4,-0.6 m -85.1,0 5.4,0.6 5.2,1.5 4.8,2.4 4.2,3.4 3.5,4 2.7,4.7 1.8,5.1 0.8,5.3 -0.3,5.4 -1.3,5.3 -2.2,4.9 -3.1,4.3 -3.9,3.8 -4.6,2.9 -5,2 -5.3,1 h -5.4 l -5.2,-1 -5.1,-2 -4.5,-2.9 -3.9,-3.8 -3.1,-4.3 -2.2,-4.9 -1.3,-5.3 -0.3,-5.4 0.8,-5.3 1.8,-5.1 2.6,-4.7 3.6,-4 4.2,-3.4 4.8,-2.4 5.2,-1.5 5.3,-0.6 m -85,0 5.4,0.6 5.1,1.5 4.8,2.4 4.3,3.4 3.5,4 2.7,4.7 1.7,5.1 0.8,5.3 -0.2,5.4 -1.3,5.3 -2.3,4.9 -3.1,4.3 -3.9,3.8 -4.5,2.9 -5,2 -5.3,1 h -5.4 l -5.3,-1 -5,-2 -4.5,-2.9 -3.9,-3.8 -3.2,-4.3 -2.2,-4.9 -1.3,-5.3 -0.2,-5.4 0.8,-5.3 1.7,-5.1 2.7,-4.7 3.5,-4 4.3,-3.4 4.8,-2.4 5.1,-1.5 5.4,-0.6 m -85,0 5.3,0.6 5.2,1.5 4.8,2.4 4.2,3.4 3.5,4 2.7,4.7 1.8,5.1 0.8,5.3 -0.3,5.4 -1.3,5.3 -2.2,4.9 -3.1,4.3 -3.9,3.8 -4.6,2.9 -5,2 -5.2,1 h -5.4 l -5.3,-1 -5,-2 -4.6,-2.9 -3.9,-3.8 -3.1,-4.3 -2.2,-4.9 -1.3,-5.3 -0.3,-5.4 0.8,-5.3 1.8,-5.1 2.7,-4.7 3.5,-4 4.2,-3.4 4.8,-2.4 5.2,-1.5 5.4,-0.6 m -85.1,0 5.4,0.6 5.2,1.5 4.7,2.4 4.3,3.4 3.5,4 2.7,4.7 1.8,5.1 0.7,5.3 -0.2,5.4 -1.3,5.3 -2.2,4.9 -3.2,4.3 -3.9,3.8 -4.5,2.9 -5,2 -5.3,1 h -5.4 l -5.3,-1 -5,-2 -4.5,-2.9 -3.9,-3.8 -3.1,-4.3 -2.3,-4.9 -1.2,-5.3 -0.3,-5.4 0.8,-5.3 1.7,-5.1 2.7,-4.7 3.6,-4 4.2,-3.4 4.8,-2.4 5.2,-1.5 5.3,-0.6 m -85,0 5.3,0.6 5.2,1.5 4.8,2.4 4.2,3.4 3.6,4 2.7,4.7 1.7,5.1 0.8,5.3 -0.3,5.4 -1.2,5.3 -2.3,4.9 -3.1,4.3 -3.9,3.8 -4.5,2.9 -5,2 -5.3,1 h -5.4 l -5.3,-1 -5,-2 -4.5,-2.9 -3.9,-3.8 -3.2,-4.3 -2.2,-4.9 -1.3,-5.3 -0.2,-5.4 0.7,-5.3 1.8,-5.1 2.7,-4.7 3.5,-4 4.3,-3.4 4.7,-2.4 5.2,-1.5 5.4,-0.6 m -85.1,0 5.4,0.6 5.2,1.5 4.8,2.4 4.2,3.4 3.5,4 2.7,4.7 1.8,5.1 0.8,5.3 -0.3,5.4 -1.3,5.3 -2.2,4.9 -3.1,4.3 -3.9,3.8 -4.6,2.9 -5,2 -5.3,1 h -5.4 l -5.2,-1 -5,-2 -4.6,-2.9 -3.9,-3.8 -3.1,-4.3 -2.2,-4.9 -1.3,-5.3 -0.3,-5.4 0.8,-5.3 1.8,-5.1 2.7,-4.7 3.5,-4 4.2,-3.4 4.8,-2.4 5.2,-1.5 5.3,-0.6 m 850.4,-85 5.4,0.5 5.2,1.5 4.8,2.5 4.2,3.3 3.5,4.1 2.7,4.7 1.8,5.1 0.7,5.3 -0.2,5.4 -1.3,5.2 -2.2,4.9 -3.1,4.4 -3.9,3.7 -4.6,2.9 -5,2 -5.3,1.1 h -5.4 l -5.3,-1.1 -5,-2 -4.5,-2.9 -3.9,-3.7 -3.1,-4.4 -2.3,-4.9 -1.2,-5.2 -0.3,-5.4 0.8,-5.3 1.7,-5.1 2.7,-4.7 3.6,-4.1 4.2,-3.3 4.8,-2.5 5.2,-1.5 5.3,-0.5 m -85,0 5.4,0.5 5.1,1.5 4.8,2.5 4.3,3.3 3.5,4.1 2.7,4.7 1.7,5.1 0.8,5.3 -0.2,5.4 -1.3,5.2 -2.3,4.9 -3.1,4.4 -3.9,3.7 -4.5,2.9 -5,2 -5.3,1.1 h -5.4 l -5.3,-1.1 -5,-2 -4.5,-2.9 -3.9,-3.7 -3.2,-4.4 -2.2,-4.9 -1.3,-5.2 -0.2,-5.4 0.7,-5.3 1.8,-5.1 2.7,-4.7 3.5,-4.1 4.3,-3.3 4.8,-2.5 5.1,-1.5 5.4,-0.5 m -85,0 5.3,0.5 5.2,1.5 4.8,2.5 4.2,3.3 3.5,4.1 2.7,4.7 1.8,5.1 0.8,5.3 -0.3,5.4 -1.3,5.2 -2.2,4.9 -3.1,4.4 -3.9,3.7 -4.6,2.9 -5,2 -5.2,1.1 h -5.4 l -5.3,-1.1 -5,-2 -4.6,-2.9 -3.9,-3.7 -3.1,-4.4 -2.2,-4.9 -1.3,-5.2 -0.3,-5.4 0.8,-5.3 1.8,-5.1 2.7,-4.7 3.5,-4.1 4.2,-3.3 4.8,-2.5 5.2,-1.5 5.4,-0.5 m -85.1,0 5.4,0.5 5.2,1.5 4.7,2.5 4.3,3.3 3.5,4.1 2.7,4.7 1.8,5.1 0.7,5.3 -0.2,5.4 -1.3,5.2 -2.2,4.9 -3.2,4.4 -3.9,3.7 -4.5,2.9 -5,2 -5.3,1.1 h -5.4 l -5.3,-1.1 -5,-2 -4.5,-2.9 -3.9,-3.7 -3.1,-4.4 -2.3,-4.9 -1.2,-5.2 -0.3,-5.4 0.8,-5.3 1.7,-5.1 2.7,-4.7 3.6,-4.1 4.2,-3.3 4.8,-2.5 5.2,-1.5 5.3,-0.5 m -85,0 5.3,0.5 5.2,1.5 4.8,2.5 4.2,3.3 3.6,4.1 2.7,4.7 1.7,5.1 0.8,5.3 -0.3,5.4 -1.2,5.2 -2.3,4.9 -3.1,4.4 -3.9,3.7 -4.5,2.9 -5,2 -5.3,1.1 h -5.4 l -5.3,-1.1 -5,-2 -4.5,-2.9 -3.9,-3.7 -3.2,-4.4 -2.2,-4.9 -1.3,-5.2 -0.2,-5.4 0.7,-5.3 1.8,-5.1 2.7,-4.7 3.5,-4.1 4.3,-3.3 4.7,-2.5 5.2,-1.5 5.4,-0.5 m -85.1,0 5.4,0.5 5.2,1.5 4.8,2.5 4.2,3.3 3.5,4.1 2.7,4.7 1.8,5.1 0.8,5.3 -0.3,5.4 -1.3,5.2 -2.2,4.9 -3.1,4.4 -3.9,3.7 -4.6,2.9 -5,2 -5.3,1.1 h -5.4 l -5.2,-1.1 -5.1,-2 -4.5,-2.9 -3.9,-3.7 -3.1,-4.4 -2.2,-4.9 -1.3,-5.2 -0.3,-5.4 0.8,-5.3 1.8,-5.1 2.6,-4.7 3.6,-4.1 4.2,-3.3 4.8,-2.5 5.2,-1.5 5.3,-0.5 m -85,0 5.4,0.5 5.1,1.5 4.8,2.5 4.3,3.3 3.5,4.1 2.7,4.7 1.7,5.1 0.8,5.3 -0.2,5.4 -1.3,5.2 -2.3,4.9 -3.1,4.4 -3.9,3.7 -4.5,2.9 -5,2 -5.3,1.1 h -5.4 l -5.3,-1.1 -5,-2 -4.5,-2.9 -3.9,-3.7 -3.2,-4.4 -2.2,-4.9 -1.3,-5.2 -0.2,-5.4 0.8,-5.3 1.7,-5.1 2.7,-4.7 3.5,-4.1 4.3,-3.3 4.8,-2.5 5.1,-1.5 5.4,-0.5 m -85,0 5.3,0.5 5.2,1.5 4.8,2.5 4.2,3.3 3.5,4.1 2.7,4.7 1.8,5.1 0.8,5.3 -0.3,5.4 -1.3,5.2 -2.2,4.9 -3.1,4.4 -3.9,3.7 -4.6,2.9 -5,2 -5.2,1.1 h -5.4 l -5.3,-1.1 -5,-2 -4.6,-2.9 -3.9,-3.7 -3.1,-4.4 -2.2,-4.9 -1.3,-5.2 -0.3,-5.4 0.8,-5.3 1.8,-5.1 2.7,-4.7 3.5,-4.1 4.2,-3.3 4.8,-2.5 5.2,-1.5 5.4,-0.5 m -85.1,0 5.4,0.5 5.2,1.5 4.7,2.5 4.3,3.3 3.5,4.1 2.7,4.7 1.8,5.1 0.7,5.3 -0.2,5.4 -1.3,5.2 -2.2,4.9 -3.2,4.4 -3.9,3.7 -4.5,2.9 -5,2 -5.3,1.1 h -5.4 l -5.3,-1.1 -5,-2 -4.5,-2.9 -3.9,-3.7 -3.1,-4.4 -2.3,-4.9 -1.2,-5.2 -0.3,-5.4 0.8,-5.3 1.7,-5.1 2.7,-4.7 3.6,-4.1 4.2,-3.3 4.8,-2.5 5.2,-1.5 5.3,-0.5 m -85,0 5.3,0.5 5.2,1.5 4.8,2.5 4.2,3.3 3.6,4.1 2.7,4.7 1.7,5.1 0.8,5.3 -0.3,5.4 -1.2,5.2 -2.3,4.9 -3.1,4.4 -3.9,3.7 -4.5,2.9 -5,2 -5.3,1.1 h -5.4 l -5.3,-1.1 -5,-2 -4.5,-2.9 -3.9,-3.7 -3.2,-4.4 -2.2,-4.9 -1.3,-5.2 -0.2,-5.4 0.7,-5.3 1.8,-5.1 2.7,-4.7 3.5,-4.1 4.3,-3.3 4.7,-2.5 5.2,-1.5 5.4,-0.5 m -85.1,0 5.4,0.5 5.2,1.5 4.8,2.5 4.2,3.3 3.5,4.1 2.7,4.7 1.8,5.1 0.8,5.3 -0.3,5.4 -1.3,5.2 -2.2,4.9 -3.1,4.4 -3.9,3.7 -4.6,2.9 -5,2 -5.3,1.1 h -5.4 l -5.2,-1.1 -5,-2 -4.6,-2.9 -3.9,-3.7 -3.1,-4.4 -2.2,-4.9 -1.3,-5.2 -0.3,-5.4 0.8,-5.3 1.8,-5.1 2.7,-4.7 3.5,-4.1 4.2,-3.3 4.8,-2.5 5.2,-1.5 5.3,-0.5 m 850.4,-85 5.4,0.5 5.2,1.5 4.8,2.5 4.2,3.3 3.5,4.1 2.7,4.6 1.8,5.1 0.7,5.4 -0.2,5.3 -1.3,5.3 -2.2,4.9 -3.1,4.4 -3.9,3.7 -4.6,2.9 -5,2 -5.3,1 h -5.4 l -5.3,-1 -5,-2 -4.5,-2.9 -3.9,-3.7 -3.1,-4.4 -2.3,-4.9 -1.2,-5.3 -0.3,-5.3 0.8,-5.4 1.7,-5.1 2.7,-4.6 3.6,-4.1 4.2,-3.3 4.8,-2.5 5.2,-1.5 5.3,-0.5 m -85,0 5.4,0.5 5.1,1.5 4.8,2.5 4.3,3.3 3.5,4.1 2.7,4.6 1.7,5.1 0.8,5.4 -0.2,5.3 -1.3,5.3 -2.3,4.9 -3.1,4.4 -3.9,3.7 -4.5,2.9 -5,2 -5.3,1 h -5.4 l -5.3,-1 -5,-2 -4.5,-2.9 -3.9,-3.7 -3.2,-4.4 -2.2,-4.9 -1.3,-5.3 -0.2,-5.3 0.7,-5.4 1.8,-5.1 2.7,-4.6 3.5,-4.1 4.3,-3.3 4.8,-2.5 5.1,-1.5 5.4,-0.5 m -85,0 5.3,0.5 5.2,1.5 4.8,2.5 4.2,3.3 3.5,4.1 2.7,4.6 1.8,5.1 0.8,5.4 -0.3,5.3 -1.3,5.3 -2.2,4.9 -3.1,4.4 -3.9,3.7 -4.6,2.9 -5,2 -5.2,1 h -5.4 l -5.3,-1 -5,-2 -4.6,-2.9 -3.9,-3.7 -3.1,-4.4 -2.2,-4.9 -1.3,-5.3 -0.3,-5.3 0.8,-5.4 1.8,-5.1 2.7,-4.6 3.5,-4.1 4.2,-3.3 4.8,-2.5 5.2,-1.5 5.4,-0.5 m -85.1,0 5.4,0.5 5.2,1.5 4.7,2.5 4.3,3.3 3.5,4.1 2.7,4.6 1.8,5.1 0.7,5.4 -0.2,5.3 -1.3,5.3 -2.2,4.9 -3.2,4.4 -3.9,3.7 -4.5,2.9 -5,2 -5.3,1 h -5.4 l -5.3,-1 -5,-2 -4.5,-2.9 -3.9,-3.7 -3.1,-4.4 -2.3,-4.9 -1.2,-5.3 -0.3,-5.3 0.8,-5.4 1.7,-5.1 2.7,-4.6 3.6,-4.1 4.2,-3.3 4.8,-2.5 5.2,-1.5 5.3,-0.5 m -85,0 5.3,0.5 5.2,1.5 4.8,2.5 4.2,3.3 3.6,4.1 2.7,4.6 1.7,5.1 0.8,5.4 -0.3,5.3 -1.2,5.3 -2.3,4.9 -3.1,4.4 -3.9,3.7 -4.5,2.9 -5,2 -5.3,1 h -5.4 l -5.3,-1 -5,-2 -4.5,-2.9 -3.9,-3.7 -3.2,-4.4 -2.2,-4.9 -1.3,-5.3 -0.2,-5.3 0.7,-5.4 1.8,-5.1 2.7,-4.6 3.5,-4.1 4.3,-3.3 4.7,-2.5 5.2,-1.5 5.4,-0.5 m -85.1,0 5.4,0.5 5.2,1.5 4.8,2.5 4.2,3.3 3.5,4.1 2.7,4.6 1.8,5.1 0.8,5.4 -0.3,5.3 -1.3,5.3 -2.2,4.9 -3.1,4.4 -3.9,3.7 -4.6,2.9 -5,2 -5.3,1 h -5.4 l -5.2,-1 -5.1,-2 -4.5,-2.9 -3.9,-3.7 -3.1,-4.4 -2.2,-4.9 -1.3,-5.3 -0.3,-5.3 0.8,-5.4 1.8,-5.1 2.6,-4.6 3.6,-4.1 4.2,-3.3 4.8,-2.5 5.2,-1.5 5.3,-0.5 m -85,0 5.4,0.5 5.1,1.5 4.8,2.5 4.3,3.3 3.5,4.1 2.7,4.6 1.7,5.1 0.8,5.4 -0.2,5.3 -1.3,5.3 -2.3,4.9 -3.1,4.4 -3.9,3.7 -4.5,2.9 -5,2 -5.3,1 h -5.4 l -5.3,-1 -5,-2 -4.5,-2.9 -3.9,-3.7 -3.2,-4.4 -2.2,-4.9 -1.3,-5.3 -0.2,-5.3 0.8,-5.4 1.7,-5.1 2.7,-4.6 3.5,-4.1 4.3,-3.3 4.8,-2.5 5.1,-1.5 5.4,-0.5 m -85,0 5.3,0.5 5.2,1.5 4.8,2.5 4.2,3.3 3.5,4.1 2.7,4.6 1.8,5.1 0.8,5.4 -0.3,5.3 -1.3,5.3 -2.2,4.9 -3.1,4.4 -3.9,3.7 -4.6,2.9 -5,2 -5.2,1 h -5.4 l -5.3,-1 -5,-2 -4.6,-2.9 -3.9,-3.7 -3.1,-4.4 -2.2,-4.9 -1.3,-5.3 -0.3,-5.3 0.8,-5.4 1.8,-5.1 2.7,-4.6 3.5,-4.1 4.2,-3.3 4.8,-2.5 5.2,-1.5 5.4,-0.5 m -85.1,0 5.4,0.5 5.2,1.5 4.7,2.5 4.3,3.3 3.5,4.1 2.7,4.6 1.8,5.1 0.7,5.4 -0.2,5.3 -1.3,5.3 -2.2,4.9 -3.2,4.4 -3.9,3.7 -4.5,2.9 -5,2 -5.3,1 h -5.4 l -5.3,-1 -5,-2 -4.5,-2.9 -3.9,-3.7 -3.1,-4.4 -2.3,-4.9 -1.2,-5.3 -0.3,-5.3 0.8,-5.4 1.7,-5.1 2.7,-4.6 3.6,-4.1 4.2,-3.3 4.8,-2.5 5.2,-1.5 5.3,-0.5 m -85,0 5.3,0.5 5.2,1.5 4.8,2.5 4.2,3.3 3.6,4.1 2.7,4.6 1.7,5.1 0.8,5.4 -0.3,5.3 -1.2,5.3 -2.3,4.9 -3.1,4.4 -3.9,3.7 -4.5,2.9 -5,2 -5.3,1 h -5.4 l -5.3,-1 -5,-2 -4.5,-2.9 -3.9,-3.7 -3.2,-4.4 -2.2,-4.9 -1.3,-5.3 -0.2,-5.3 0.7,-5.4 1.8,-5.1 2.7,-4.6 3.5,-4.1 4.3,-3.3 4.7,-2.5 5.2,-1.5 5.4,-0.5 m -85.1,0 5.4,0.5 5.2,1.5 4.8,2.5 4.2,3.3 3.5,4.1 2.7,4.6 1.8,5.1 0.8,5.4 -0.3,5.3 -1.3,5.3 -2.2,4.9 -3.1,4.4 -3.9,3.7 -4.6,2.9 -5,2 -5.3,1 h -5.4 l -5.2,-1 -5,-2 -4.6,-2.9 -3.9,-3.7 -3.1,-4.4 -2.2,-4.9 -1.3,-5.3 -0.3,-5.3 0.8,-5.4 1.8,-5.1 2.7,-4.6 3.5,-4.1 4.2,-3.3 4.8,-2.5 5.2,-1.5 5.3,-0.5 m 850.4,-85.1 5.4,0.5 5.2,1.6 4.8,2.4 4.2,3.4 3.5,4 2.7,4.7 1.8,5.1 0.7,5.3 -0.2,5.4 -1.3,5.2 -2.2,4.9 -3.1,4.4 -3.9,3.7 -4.6,3 -5,2 -5.3,1 h -5.4 l -5.3,-1 -5,-2 -4.5,-3 -3.9,-3.7 -3.1,-4.4 -2.3,-4.9 -1.2,-5.2 -0.3,-5.4 0.8,-5.3 1.7,-5.1 2.7,-4.7 3.6,-4 4.2,-3.4 4.8,-2.4 5.2,-1.6 5.3,-0.5 m -85,0 5.4,0.5 5.1,1.6 4.8,2.4 4.3,3.4 3.5,4 2.7,4.7 1.7,5.1 0.8,5.3 -0.2,5.4 -1.3,5.2 -2.3,4.9 -3.1,4.4 -3.9,3.7 -4.5,3 -5,2 -5.3,1 h -5.4 l -5.3,-1 -5,-2 -4.5,-3 -3.9,-3.7 -3.2,-4.4 -2.2,-4.9 -1.3,-5.2 -0.2,-5.4 0.7,-5.3 1.8,-5.1 2.7,-4.7 3.5,-4 4.3,-3.4 4.8,-2.4 5.1,-1.6 5.4,-0.5 m -85,0 5.3,0.5 5.2,1.6 4.8,2.4 4.2,3.4 3.5,4 2.7,4.7 1.8,5.1 0.8,5.3 -0.3,5.4 -1.3,5.2 -2.2,4.9 -3.1,4.4 -3.9,3.7 -4.6,3 -5,2 -5.2,1 h -5.4 l -5.3,-1 -5,-2 -4.6,-3 -3.9,-3.7 -3.1,-4.4 -2.2,-4.9 -1.3,-5.2 -0.3,-5.4 0.8,-5.3 1.8,-5.1 2.7,-4.7 3.5,-4 4.2,-3.4 4.8,-2.4 5.2,-1.6 5.4,-0.5 m -85.1,0 5.4,0.5 5.2,1.6 4.7,2.4 4.3,3.4 3.5,4 2.7,4.7 1.8,5.1 0.7,5.3 -0.2,5.4 -1.3,5.2 -2.2,4.9 -3.2,4.4 -3.9,3.7 -4.5,3 -5,2 -5.3,1 h -5.4 l -5.3,-1 -5,-2 -4.5,-3 -3.9,-3.7 -3.1,-4.4 -2.3,-4.9 -1.2,-5.2 -0.3,-5.4 0.8,-5.3 1.7,-5.1 2.7,-4.7 3.6,-4 4.2,-3.4 4.8,-2.4 5.2,-1.6 5.3,-0.5 m -85,0 5.3,0.5 5.2,1.6 4.8,2.4 4.2,3.4 3.6,4 2.7,4.7 1.7,5.1 0.8,5.3 -0.3,5.4 -1.2,5.2 -2.3,4.9 -3.1,4.4 -3.9,3.7 -4.5,3 -5,2 -5.3,1 h -5.4 l -5.3,-1 -5,-2 -4.5,-3 -3.9,-3.7 -3.2,-4.4 -2.2,-4.9 -1.3,-5.2 -0.2,-5.4 0.7,-5.3 1.8,-5.1 2.7,-4.7 3.5,-4 4.3,-3.4 4.7,-2.4 5.2,-1.6 5.4,-0.5 m -85.1,0 5.4,0.5 5.2,1.6 4.8,2.4 4.2,3.4 3.5,4 2.7,4.7 1.8,5.1 0.8,5.3 -0.3,5.4 -1.3,5.2 -2.2,4.9 -3.1,4.4 -3.9,3.7 -4.6,3 -5,2 -5.3,1 h -5.4 l -5.2,-1 -5.1,-2 -4.5,-3 -3.9,-3.7 -3.1,-4.4 -2.2,-4.9 -1.3,-5.2 -0.3,-5.4 0.8,-5.3 1.8,-5.1 2.6,-4.7 3.6,-4 4.2,-3.4 4.8,-2.4 5.2,-1.6 5.3,-0.5 m -85,0 5.4,0.5 5.1,1.6 4.8,2.4 4.3,3.4 3.5,4 2.7,4.7 1.7,5.1 0.8,5.3 -0.2,5.4 -1.3,5.2 -2.3,4.9 -3.1,4.4 -3.9,3.7 -4.5,3 -5,2 -5.3,1 h -5.4 l -5.3,-1 -5,-2 -4.5,-3 -3.9,-3.7 -3.2,-4.4 -2.2,-4.9 -1.3,-5.2 -0.2,-5.4 0.8,-5.3 1.7,-5.1 2.7,-4.7 3.5,-4 4.3,-3.4 4.8,-2.4 5.1,-1.6 5.4,-0.5 m -85,0 5.3,0.5 5.2,1.6 4.8,2.4 4.2,3.4 3.5,4 2.7,4.7 1.8,5.1 0.8,5.3 -0.3,5.4 -1.3,5.2 -2.2,4.9 -3.1,4.4 -3.9,3.7 -4.6,3 -5,2 -5.2,1 h -5.4 l -5.3,-1 -5,-2 -4.6,-3 -3.9,-3.7 -3.1,-4.4 -2.2,-4.9 -1.3,-5.2 -0.3,-5.4 0.8,-5.3 1.8,-5.1 2.7,-4.7 3.5,-4 4.2,-3.4 4.8,-2.4 5.2,-1.6 5.4,-0.5 m -85.1,0 5.4,0.5 5.2,1.6 4.7,2.4 4.3,3.4 3.5,4 2.7,4.7 1.8,5.1 0.7,5.3 -0.2,5.4 -1.3,5.2 -2.2,4.9 -3.2,4.4 -3.9,3.7 -4.5,3 -5,2 -5.3,1 h -5.4 l -5.3,-1 -5,-2 -4.5,-3 -3.9,-3.7 -3.1,-4.4 -2.3,-4.9 -1.2,-5.2 -0.3,-5.4 0.8,-5.3 1.7,-5.1 2.7,-4.7 3.6,-4 4.2,-3.4 4.8,-2.4 5.2,-1.6 5.3,-0.5 m -85,0 5.3,0.5 5.2,1.6 4.8,2.4 4.2,3.4 3.6,4 2.7,4.7 1.7,5.1 0.8,5.3 -0.3,5.4 -1.2,5.2 -2.3,4.9 -3.1,4.4 -3.9,3.7 -4.5,3 -5,2 -5.3,1 h -5.4 l -5.3,-1 -5,-2 -4.5,-3 -3.9,-3.7 -3.2,-4.4 -2.2,-4.9 -1.3,-5.2 -0.2,-5.4 0.7,-5.3 1.8,-5.1 2.7,-4.7 3.5,-4 4.3,-3.4 4.7,-2.4 5.2,-1.6 5.4,-0.5 m -85.1,0 5.4,0.5 5.2,1.6 4.8,2.4 4.2,3.4 3.5,4 2.7,4.7 1.8,5.1 0.8,5.3 -0.3,5.4 -1.3,5.2 -2.2,4.9 -3.1,4.4 -3.9,3.7 -4.6,3 -5,2 -5.3,1 h -5.4 l -5.2,-1 -5,-2 -4.6,-3 -3.9,-3.7 -3.1,-4.4 -2.2,-4.9 -1.3,-5.2 -0.3,-5.4 0.8,-5.3 1.8,-5.1 2.7,-4.7 3.5,-4 4.2,-3.4 4.8,-2.4 5.2,-1.6 5.3,-0.5 m 850.4,-85 5.4,0.5 5.2,1.5 4.8,2.5 4.2,3.3 3.5,4.1 2.7,4.7 1.8,5 0.7,5.4 -0.2,5.4 -1.3,5.2 -2.2,4.9 -3.1,4.4 -3.9,3.7 -4.6,2.9 -5,2 -5.3,1 h -5.4 l -5.3,-1 -5,-2 -4.5,-2.9 -3.9,-3.7 -3.1,-4.4 -2.3,-4.9 -1.2,-5.2 -0.3,-5.4 0.8,-5.4 1.7,-5 2.7,-4.7 3.6,-4.1 4.2,-3.3 4.8,-2.5 5.2,-1.5 5.3,-0.5 m -85,0 5.4,0.5 5.1,1.5 4.8,2.5 4.3,3.3 3.5,4.1 2.7,4.7 1.7,5 0.8,5.4 -0.2,5.4 -1.3,5.2 -2.3,4.9 -3.1,4.4 -3.9,3.7 -4.5,2.9 -5,2 -5.3,1 h -5.4 l -5.3,-1 -5,-2 -4.5,-2.9 -3.9,-3.7 -3.2,-4.4 -2.2,-4.9 -1.3,-5.2 -0.2,-5.4 0.7,-5.4 1.8,-5 2.7,-4.7 3.5,-4.1 4.3,-3.3 4.8,-2.5 5.1,-1.5 5.4,-0.5 m -85,0 5.3,0.5 5.2,1.5 4.8,2.5 4.2,3.3 3.5,4.1 2.7,4.7 1.8,5 0.8,5.4 -0.3,5.4 -1.3,5.2 -2.2,4.9 -3.1,4.4 -3.9,3.7 -4.6,2.9 -5,2 -5.2,1 h -5.4 l -5.3,-1 -5,-2 -4.6,-2.9 -3.9,-3.7 -3.1,-4.4 -2.2,-4.9 -1.3,-5.2 -0.3,-5.4 0.8,-5.4 1.8,-5 2.7,-4.7 3.5,-4.1 4.2,-3.3 4.8,-2.5 5.2,-1.5 5.4,-0.5 m -85.1,0 5.4,0.5 5.2,1.5 4.7,2.5 4.3,3.3 3.5,4.1 2.7,4.7 1.8,5 0.7,5.4 -0.2,5.4 -1.3,5.2 -2.2,4.9 -3.2,4.4 -3.9,3.7 -4.5,2.9 -5,2 -5.3,1 h -5.4 l -5.3,-1 -5,-2 -4.5,-2.9 -3.9,-3.7 -3.1,-4.4 -2.3,-4.9 -1.2,-5.2 -0.3,-5.4 0.8,-5.4 1.7,-5 2.7,-4.7 3.6,-4.1 4.2,-3.3 4.8,-2.5 5.2,-1.5 5.3,-0.5 m -85,0 5.3,0.5 5.2,1.5 4.8,2.5 4.2,3.3 3.6,4.1 2.7,4.7 1.7,5 0.8,5.4 -0.3,5.4 -1.2,5.2 -2.3,4.9 -3.1,4.4 -3.9,3.7 -4.5,2.9 -5,2 -5.3,1 h -5.4 l -5.3,-1 -5,-2 -4.5,-2.9 -3.9,-3.7 -3.2,-4.4 -2.2,-4.9 -1.3,-5.2 -0.2,-5.4 0.7,-5.4 1.8,-5 2.7,-4.7 3.5,-4.1 4.3,-3.3 4.7,-2.5 5.2,-1.5 5.4,-0.5 m -85.1,0 5.4,0.5 5.2,1.5 4.8,2.5 4.2,3.3 3.5,4.1 2.7,4.7 1.8,5 0.8,5.4 -0.3,5.4 -1.3,5.2 -2.2,4.9 -3.1,4.4 -3.9,3.7 -4.6,2.9 -5,2 -5.3,1 h -5.4 l -5.2,-1 -5.1,-2 -4.5,-2.9 -3.9,-3.7 -3.1,-4.4 -2.2,-4.9 -1.3,-5.2 -0.3,-5.4 0.8,-5.4 1.8,-5 2.6,-4.7 3.6,-4.1 4.2,-3.3 4.8,-2.5 5.2,-1.5 5.3,-0.5 m -85,0 5.4,0.5 5.1,1.5 4.8,2.5 4.3,3.3 3.5,4.1 2.7,4.7 1.7,5 0.8,5.4 -0.2,5.4 -1.3,5.2 -2.3,4.9 -3.1,4.4 -3.9,3.7 -4.5,2.9 -5,2 -5.3,1 h -5.4 l -5.3,-1 -5,-2 -4.5,-2.9 -3.9,-3.7 -3.2,-4.4 -2.2,-4.9 -1.3,-5.2 -0.2,-5.4 0.8,-5.4 1.7,-5 2.7,-4.7 3.5,-4.1 4.3,-3.3 4.8,-2.5 5.1,-1.5 5.4,-0.5 m -85,0 5.3,0.5 5.2,1.5 4.8,2.5 4.2,3.3 3.5,4.1 2.7,4.7 1.8,5 0.8,5.4 -0.3,5.4 -1.3,5.2 -2.2,4.9 -3.1,4.4 -3.9,3.7 -4.6,2.9 -5,2 -5.2,1 h -5.4 l -5.3,-1 -5,-2 -4.6,-2.9 -3.9,-3.7 -3.1,-4.4 -2.2,-4.9 -1.3,-5.2 -0.3,-5.4 0.8,-5.4 1.8,-5 2.7,-4.7 3.5,-4.1 4.2,-3.3 4.8,-2.5 5.2,-1.5 5.4,-0.5 m -85.1,0 5.4,0.5 5.2,1.5 4.7,2.5 4.3,3.3 3.5,4.1 2.7,4.7 1.8,5 0.7,5.4 -0.2,5.4 -1.3,5.2 -2.2,4.9 -3.2,4.4 -3.9,3.7 -4.5,2.9 -5,2 -5.3,1 h -5.4 l -5.3,-1 -5,-2 -4.5,-2.9 -3.9,-3.7 -3.1,-4.4 -2.3,-4.9 -1.2,-5.2 -0.3,-5.4 0.8,-5.4 1.7,-5 2.7,-4.7 3.6,-4.1 4.2,-3.3 4.8,-2.5 5.2,-1.5 5.3,-0.5 m -85,0 5.3,0.5 5.2,1.5 4.8,2.5 4.2,3.3 3.6,4.1 2.7,4.7 1.7,5 0.8,5.4 -0.3,5.4 -1.2,5.2 -2.3,4.9 -3.1,4.4 -3.9,3.7 -4.5,2.9 -5,2 -5.3,1 h -5.4 l -5.3,-1 -5,-2 -4.5,-2.9 -3.9,-3.7 -3.2,-4.4 -2.2,-4.9 -1.3,-5.2 -0.2,-5.4 0.7,-5.4 1.8,-5 2.7,-4.7 3.5,-4.1 4.3,-3.3 4.7,-2.5 5.2,-1.5 5.4,-0.5 m -85.1,0 5.4,0.5 5.2,1.5 4.8,2.5 4.2,3.3 3.5,4.1 2.7,4.7 1.8,5 0.8,5.4 -0.3,5.4 -1.3,5.2 -2.2,4.9 -3.1,4.4 -3.9,3.7 -4.6,2.9 -5,2 -5.3,1 h -5.4 l -5.2,-1 -5,-2 -4.6,-2.9 -3.9,-3.7 -3.1,-4.4 -2.2,-4.9 -1.3,-5.2 -0.3,-5.4 0.8,-5.4 1.8,-5 2.7,-4.7 3.5,-4.1 4.2,-3.3 4.8,-2.5 5.2,-1.5 5.3,-0.5 m 850.4,-85.1 5.4,0.6 5.2,1.5 4.8,2.4 4.2,3.4 3.5,4 2.7,4.7 1.8,5.1 0.7,5.3 -0.2,5.4 -1.3,5.3 -2.2,4.9 -3.1,4.4 -3.9,3.7 -4.6,2.9 -5,2 -5.3,1 h -5.4 l -5.3,-1 -5,-2 -4.5,-2.9 -3.9,-3.7 -3.1,-4.4 -2.3,-4.9 -1.2,-5.3 -0.3,-5.4 0.8,-5.3 1.7,-5.1 2.7,-4.7 3.6,-4 4.2,-3.4 4.8,-2.4 5.2,-1.5 5.3,-0.6 m -85,0 5.4,0.6 5.1,1.5 4.8,2.4 4.3,3.4 3.5,4 2.7,4.7 1.7,5.1 0.8,5.3 -0.2,5.4 -1.3,5.3 -2.3,4.9 -3.1,4.4 -3.9,3.7 -4.5,2.9 -5,2 -5.3,1 h -5.4 l -5.3,-1 -5,-2 -4.5,-2.9 -3.9,-3.7 -3.2,-4.4 -2.2,-4.9 -1.3,-5.3 -0.2,-5.4 0.7,-5.3 1.8,-5.1 2.7,-4.7 3.5,-4 4.3,-3.4 4.8,-2.4 5.1,-1.5 5.4,-0.6 m -85,0 5.3,0.6 5.2,1.5 4.8,2.4 4.2,3.4 3.5,4 2.7,4.7 1.8,5.1 0.8,5.3 -0.3,5.4 -1.3,5.3 -2.2,4.9 -3.1,4.4 -3.9,3.7 -4.6,2.9 -5,2 -5.2,1 h -5.4 l -5.3,-1 -5,-2 -4.6,-2.9 -3.9,-3.7 -3.1,-4.4 -2.2,-4.9 -1.3,-5.3 -0.3,-5.4 0.8,-5.3 1.8,-5.1 2.7,-4.7 3.5,-4 4.2,-3.4 4.8,-2.4 5.2,-1.5 5.4,-0.6 m -85.1,0 5.4,0.6 5.2,1.5 4.7,2.4 4.3,3.4 3.5,4 2.7,4.7 1.8,5.1 0.7,5.3 -0.2,5.4 -1.3,5.3 -2.2,4.9 -3.2,4.4 -3.9,3.7 -4.5,2.9 -5,2 -5.3,1 h -5.4 l -5.3,-1 -5,-2 -4.5,-2.9 -3.9,-3.7 -3.1,-4.4 -2.3,-4.9 -1.2,-5.3 -0.3,-5.4 0.8,-5.3 1.7,-5.1 2.7,-4.7 3.6,-4 4.2,-3.4 4.8,-2.4 5.2,-1.5 5.3,-0.6 m -85,0 5.3,0.6 5.2,1.5 4.8,2.4 4.2,3.4 3.6,4 2.7,4.7 1.7,5.1 0.8,5.3 -0.3,5.4 -1.2,5.3 -2.3,4.9 -3.1,4.4 -3.9,3.7 -4.5,2.9 -5,2 -5.3,1 h -5.4 l -5.3,-1 -5,-2 -4.5,-2.9 -3.9,-3.7 -3.2,-4.4 -2.2,-4.9 -1.3,-5.3 -0.2,-5.4 0.7,-5.3 1.8,-5.1 2.7,-4.7 3.5,-4 4.3,-3.4 4.7,-2.4 5.2,-1.5 5.4,-0.6 m -85.1,0 5.4,0.6 5.2,1.5 4.8,2.4 4.2,3.4 3.5,4 2.7,4.7 1.8,5.1 0.8,5.3 -0.3,5.4 -1.3,5.3 -2.2,4.9 -3.1,4.4 -3.9,3.7 -4.6,2.9 -5,2 -5.3,1 h -5.4 l -5.2,-1 -5.1,-2 -4.5,-2.9 -3.9,-3.7 -3.1,-4.4 -2.2,-4.9 -1.3,-5.3 -0.3,-5.4 0.8,-5.3 1.8,-5.1 2.6,-4.7 3.6,-4 4.2,-3.4 4.8,-2.4 5.2,-1.5 5.3,-0.6 m -85,0 5.4,0.6 5.1,1.5 4.8,2.4 4.3,3.4 3.5,4 2.7,4.7 1.7,5.1 0.8,5.3 -0.2,5.4 -1.3,5.3 -2.3,4.9 -3.1,4.4 -3.9,3.7 -4.5,2.9 -5,2 -5.3,1 h -5.4 l -5.3,-1 -5,-2 -4.5,-2.9 -3.9,-3.7 -3.2,-4.4 -2.2,-4.9 -1.3,-5.3 -0.2,-5.4 0.8,-5.3 1.7,-5.1 2.7,-4.7 3.5,-4 4.3,-3.4 4.8,-2.4 5.1,-1.5 5.4,-0.6 m -85,0 5.3,0.6 5.2,1.5 4.8,2.4 4.2,3.4 3.5,4 2.7,4.7 1.8,5.1 0.8,5.3 -0.3,5.4 -1.3,5.3 -2.2,4.9 -3.1,4.4 -3.9,3.7 -4.6,2.9 -5,2 -5.2,1 h -5.4 l -5.3,-1 -5,-2 -4.6,-2.9 -3.9,-3.7 -3.1,-4.4 -2.2,-4.9 -1.3,-5.3 -0.3,-5.4 0.8,-5.3 1.8,-5.1 2.7,-4.7 3.5,-4 4.2,-3.4 4.8,-2.4 5.2,-1.5 5.4,-0.6 m -85.1,0 5.4,0.6 5.2,1.5 4.7,2.4 4.3,3.4 3.5,4 2.7,4.7 1.8,5.1 0.7,5.3 -0.2,5.4 -1.3,5.3 -2.2,4.9 -3.2,4.4 -3.9,3.7 -4.5,2.9 -5,2 -5.3,1 h -5.4 l -5.3,-1 -5,-2 -4.5,-2.9 -3.9,-3.7 -3.1,-4.4 -2.3,-4.9 -1.2,-5.3 -0.3,-5.4 0.8,-5.3 1.7,-5.1 2.7,-4.7 3.6,-4 4.2,-3.4 4.8,-2.4 5.2,-1.5 5.3,-0.6 m -85,0 5.3,0.6 5.2,1.5 4.8,2.4 4.2,3.4 3.6,4 2.7,4.7 1.7,5.1 0.8,5.3 -0.3,5.4 -1.2,5.3 -2.3,4.9 -3.1,4.4 -3.9,3.7 -4.5,2.9 -5,2 -5.3,1 h -5.4 l -5.3,-1 -5,-2 -4.5,-2.9 -3.9,-3.7 -3.2,-4.4 -2.2,-4.9 -1.3,-5.3 -0.2,-5.4 0.7,-5.3 1.8,-5.1 2.7,-4.7 3.5,-4 4.3,-3.4 4.7,-2.4 5.2,-1.5 5.4,-0.6 m -85.1,0 5.4,0.6 5.2,1.5 4.8,2.4 4.2,3.4 3.5,4 2.7,4.7 1.8,5.1 0.8,5.3 -0.3,5.4 -1.3,5.3 -2.2,4.9 -3.1,4.4 -3.9,3.7 -4.6,2.9 -5,2 -5.3,1 h -5.4 l -5.2,-1 -5,-2 -4.6,-2.9 -3.9,-3.7 -3.1,-4.4 -2.2,-4.9 -1.3,-5.3 -0.3,-5.4 0.8,-5.3 1.8,-5.1 2.7,-4.7 3.5,-4 4.2,-3.4 4.8,-2.4 5.2,-1.5 5.3,-0.6 m -85,0 5.4,0.6 5.1,1.5 4.8,2.4 4.3,3.4 3.5,4 2.7,4.7 1.7,5.1 0.8,5.3 -0.2,5.4 -1.3,5.3 -2.2,4.9 -3.2,4.4 -3.9,3.7 -4.5,2.9 -5,2 -5.3,1 h -5.4 l -5.3,-1 -5,-2 -4.5,-2.9 -3.9,-3.7 -3.1,-4.4 -2.3,-4.9 -1.3,-5.3 -0.2,-5.4 0.8,-5.3 1.7,-5.1 2.7,-4.7 3.5,-4 4.3,-3.4 4.8,-2.4 5.1,-1.5 5.4,-0.6 M 0,1133.8 V 0 m 0,1133.8 h 1133.8 m 0,0 V 0" />
      </g>
    </g>
    <flowRoot
       xml:space="preserve"
       id="flowRoot834"
       style="font-style:normal;font-weight:normal;font-size:40px;line-height:1.25;font-family:sans-serif;letter-spacing:0px;word-spacing:0px;fill:#000000;fill-opacity:1;stroke:none"
       transform="matrix(0.26458333,0,0,0.26458333,121.74653,90.663207)"><flowRegion
         id="flowRegion836"><rect
           id="rect838"
           width="221.72849"
           height="40.911179"
           x="1320.7744"
           y="1499.3893" /></flowRegion><flowPara
         id="flowPara840">DécoDéceou</flowPara></flowRoot>    <text
       xml:space="preserve"
       style="font-style:normal;font-weight:normal;font-size:10.58333302px;line-height:1.25;font-family:sans-serif;letter-spacing:0px;word-spacing:0px;fill:#000000;fill-opacity:1;stroke:none;stroke-width:0.26458332"
       x="529.92749"
       y="497.43265"
       id="text844"><tspan
         sodipodi:role="line"
         id="tspan842"
         x="529.90106"
         y="497.43265"
         style="font-size:3.52777767px;text-align:end;letter-spacing:-0.02645833px;text-anchor:end;stroke-width:0.26458332">v1, 12 x 12, 2021-07-21</tspan></text>
  </g>
</svg>
