<?xml version="1.0" encoding="UTF-8" standalone="no"?>
<!-- Created with Inkscape (http://www.inkscape.org/) -->

<svg
   xmlns:dc="http://purl.org/dc/elements/1.1/"
   xmlns:cc="http://creativecommons.org/ns#"
   xmlns:rdf="http://www.w3.org/1999/02/22-rdf-syntax-ns#"
   xmlns:svg="http://www.w3.org/2000/svg"
   xmlns="http://www.w3.org/2000/svg"
   xmlns:sodipodi="http://sodipodi.sourceforge.net/DTD/sodipodi-0.dtd"
   xmlns:inkscape="http://www.inkscape.org/namespaces/inkscape"
   version="1.1"
   id="svg815"
   xml:space="preserve"
   width="2168.4785"
   height="1426.079"
   viewBox="0 0 2168.4785 1426.079"
   sodipodi:docname="Grille v3.svg"
   inkscape:version="0.92.4 (5da689c313, 2019-01-14)"><metadata
     id="metadata821"><rdf:RDF><cc:Work
         rdf:about=""><dc:format>image/svg+xml</dc:format><dc:type
           rdf:resource="http://purl.org/dc/dcmitype/StillImage" /><dc:title /></cc:Work></rdf:RDF></metadata><defs
     id="defs819" /><sodipodi:namedview
     pagecolor="#ffffff"
     bordercolor="#666666"
     borderopacity="1"
     objecttolerance="10"
     gridtolerance="10"
     guidetolerance="10"
     inkscape:pageopacity="0"
     inkscape:pageshadow="2"
     inkscape:window-width="1920"
     inkscape:window-height="1017"
     id="namedview817"
     showgrid="false"
     fit-margin-top="0.5"
     fit-margin-left="0.5"
     fit-margin-right="0.5"
     fit-margin-bottom="0.5"
     inkscape:zoom="0.53357047"
     inkscape:cx="975.35596"
     inkscape:cy="618.28475"
     inkscape:window-x="-8"
     inkscape:window-y="-8"
     inkscape:window-maximized="1"
     inkscape:current-layer="g823" /><g
     id="g823"
     inkscape:groupmode="layer"
     inkscape:label="Grille"
     transform="matrix(1.3333333,0,0,-1.3333333,-1071.694,2404.1728)"><g
       id="g825"
       transform="translate(2157.5,847.7)"
       style="fill:none;fill-opacity:1;stroke:#fc0000;stroke-width:0.05669291;stroke-miterlimit:4;stroke-dasharray:none;stroke-opacity:1"><path
         d="m 0,0 -0.5,5.4 -1.5,5.3 -2.4,4.9 -3.3,4.4 -4.1,3.7 -4.7,2.9 -5.1,2 -5.4,1 h -5.5 l -5.4,-1 -5.1,-2 -4.7,-2.9 -4,-3.7 -3.3,-4.4 -2.5,-4.9 -1.5,-5.3 -0.5,-5.4 0.5,-5.5 1.5,-5.3 2.5,-4.9 3.3,-4.4 4,-3.7 4.7,-2.9 5.1,-2 5.4,-1 h 5.5 l 5.4,1 5.1,2 4.7,2.9 4.1,3.7 3.3,4.4 2.4,4.9 1.5,5.3 L 0,0 m -120.2,0 -0.5,5.4 -1.5,5.3 -2.4,4.9 -3.3,4.4 -4.1,3.7 -4.7,2.9 -5.1,2 -5.4,1 h -5.5 l -5.4,-1 -5.1,-2 -4.7,-2.9 -4,-3.7 -3.3,-4.4 -2.5,-4.9 -1.5,-5.3 -0.5,-5.4 0.5,-5.5 1.5,-5.3 2.5,-4.9 3.3,-4.4 4,-3.7 4.7,-2.9 5.1,-2 5.4,-1 h 5.5 l 5.4,1 5.1,2 4.7,2.9 4.1,3.7 3.3,4.4 2.4,4.9 1.5,5.3 0.5,5.5 m -120.2,0 -0.5,5.4 -1.5,5.3 -2.4,4.9 -3.3,4.4 -4.1,3.7 -4.6,2.9 -5.2,2 -5.4,1 h -5.5 l -5.4,-1 -5.1,-2 -4.7,-2.9 -4,-3.7 -3.3,-4.4 -2.5,-4.9 -1.5,-5.3 -0.5,-5.4 0.5,-5.5 1.5,-5.3 2.5,-4.9 3.3,-4.4 4,-3.7 4.7,-2.9 5.1,-2 5.4,-1 h 5.5 l 5.4,1 5.2,2 4.6,2.9 4.1,3.7 3.3,4.4 2.4,4.9 1.5,5.3 0.5,5.5 m -120.1,0 -0.5,5.4 -1.6,5.3 -2.4,4.9 -3.3,4.4 -4.1,3.7 -4.6,2.9 -5.2,2 -5.4,1 h -5.5 l -5.4,-1 -5.1,-2 -4.6,-2.9 -4.1,-3.7 -3.3,-4.4 -2.5,-4.9 -1.5,-5.3 -0.5,-5.4 0.5,-5.5 1.5,-5.3 2.5,-4.9 3.3,-4.4 4.1,-3.7 4.6,-2.9 5.1,-2 5.4,-1 h 5.5 l 5.4,1 5.2,2 4.6,2.9 4.1,3.7 3.3,4.4 2.4,4.9 1.6,5.3 0.5,5.5 m -120.2,0 -0.5,5.4 -1.5,5.3 -2.5,4.9 -3.3,4.4 -4.1,3.7 -4.6,2.9 -5.1,2 -5.4,1 h -5.5 l -5.4,-1 -5.2,-2 -4.6,-2.9 -4.1,-3.7 -3.3,-4.4 -2.4,-4.9 -1.6,-5.3 -0.5,-5.4 0.5,-5.5 1.6,-5.3 2.4,-4.9 3.3,-4.4 4.1,-3.7 4.6,-2.9 5.2,-2 5.4,-1 h 5.5 l 5.4,1 5.1,2 4.6,2.9 4.1,3.7 3.3,4.4 2.5,4.9 1.5,5.3 0.5,5.5 m -120.2,0 -0.5,5.4 -1.5,5.3 -2.5,4.9 -3.3,4.4 -4,3.7 -4.7,2.9 -5.1,2 -5.4,1 h -5.5 l -5.4,-1 -5.2,-2 -4.6,-2.9 -4.1,-3.7 -3.3,-4.4 -2.4,-4.9 -1.5,-5.3 -0.5,-5.4 0.5,-5.5 1.5,-5.3 2.4,-4.9 3.3,-4.4 4.1,-3.7 4.6,-2.9 5.2,-2 5.4,-1 h 5.5 l 5.4,1 5.1,2 4.7,2.9 4,3.7 3.3,4.4 2.5,4.9 1.5,5.3 0.5,5.5 m -120.2,0 -0.5,5.4 -1.5,5.3 -2.5,4.9 -3.3,4.4 -4,3.7 -4.7,2.9 -5.1,2 -5.4,1 h -5.5 l -5.4,-1 -5.1,-2 -4.7,-2.9 -4.1,-3.7 -3.3,-4.4 -2.4,-4.9 -1.5,-5.3 -0.5,-5.4 0.5,-5.5 1.5,-5.3 2.4,-4.9 3.3,-4.4 4.1,-3.7 4.7,-2.9 5.1,-2 5.4,-1 h 5.5 l 5.4,1 5.1,2 4.7,2.9 4,3.7 3.3,4.4 2.5,4.9 1.5,5.3 0.5,5.5 m -120.2,0 -0.5,5.4 -1.5,5.3 -2.5,4.9 -3.3,4.4 -4,3.7 -4.7,2.9 -5.1,2 -5.4,1 h -5.5 l -5.4,-1 -5.1,-2 -4.7,-2.9 -4.1,-3.7 -3.3,-4.4 -2.4,-4.9 -1.5,-5.3 -0.5,-5.4 0.5,-5.5 1.5,-5.3 2.4,-4.9 3.3,-4.4 4.1,-3.7 4.7,-2.9 5.1,-2 5.4,-1 h 5.5 l 5.4,1 5.1,2 4.7,2.9 4,3.7 3.3,4.4 2.5,4.9 1.5,5.3 0.5,5.5 m -120.2,0 -0.5,5.4 -1.5,5.3 -2.4,4.9 -3.4,4.4 -4,3.7 -4.7,2.9 -5.1,2 -5.4,1 h -5.5 l -5.4,-1 -5.1,-2 -4.7,-2.9 -4,-3.7 -3.4,-4.4 -2.4,-4.9 -1.5,-5.3 -0.5,-5.4 0.5,-5.5 1.5,-5.3 2.4,-4.9 3.4,-4.4 4,-3.7 4.7,-2.9 5.1,-2 5.4,-1 h 5.5 l 5.4,1 5.1,2 4.7,2.9 4,3.7 3.4,4.4 2.4,4.9 1.5,5.3 0.5,5.5 m 901.4,60.1 -0.5,5.5 -1.5,5.2 -2.5,5 -3.3,4.3 -4,3.7 -4.7,2.9 -5.1,2 -5.4,1 h -5.5 l -5.4,-1 -5.1,-2 -4.7,-2.9 -4.1,-3.7 -3.3,-4.3 -2.4,-5 -1.5,-5.2 -0.5,-5.5 0.5,-5.5 1.5,-5.3 2.4,-4.9 3.3,-4.4 4.1,-3.7 4.7,-2.9 5.1,-1.9 5.4,-1 h 5.5 l 5.4,1 5.1,1.9 4.7,2.9 4,3.7 3.3,4.4 2.5,4.9 1.5,5.3 0.5,5.5 m -120.2,0 -0.5,5.5 -1.5,5.2 -2.5,5 -3.3,4.3 -4,3.7 -4.7,2.9 -5.1,2 -5.4,1 h -5.5 l -5.4,-1 -5.1,-2 -4.7,-2.9 -4.1,-3.7 -3.3,-4.3 -2.4,-5 -1.5,-5.2 -0.5,-5.5 0.5,-5.5 1.5,-5.3 2.4,-4.9 3.3,-4.4 4.1,-3.7 4.7,-2.9 5.1,-1.9 5.4,-1 h 5.5 l 5.4,1 5.1,1.9 4.7,2.9 4,3.7 3.3,4.4 2.5,4.9 1.5,5.3 0.5,5.5 m -120.2,0 -0.5,5.5 -1.5,5.2 -2.4,5 -3.4,4.3 -4,3.7 -4.7,2.9 -5.1,2 -5.4,1 h -5.5 l -5.4,-1 -5.1,-2 -4.7,-2.9 -4,-3.7 -3.4,-4.3 -2.4,-5 -1.5,-5.2 -0.5,-5.5 0.5,-5.5 1.5,-5.3 2.4,-4.9 3.4,-4.4 4,-3.7 4.7,-2.9 5.1,-1.9 5.4,-1 h 5.5 l 5.4,1 5.1,1.9 4.7,2.9 4,3.7 3.4,4.4 2.4,4.9 1.5,5.3 0.5,5.5 m -120.2,0 -0.5,5.5 -1.5,5.2 -2.4,5 -3.3,4.3 -4.1,3.7 -4.7,2.9 -5.1,2 -5.4,1 h -5.5 l -5.4,-1 -5.1,-2 -4.7,-2.9 -4,-3.7 -3.3,-4.3 -2.5,-5 -1.5,-5.2 -0.5,-5.5 0.5,-5.5 1.5,-5.3 2.5,-4.9 3.3,-4.4 4,-3.7 4.7,-2.9 5.1,-1.9 5.4,-1 h 5.5 l 5.4,1 5.1,1.9 4.7,2.9 4.1,3.7 3.3,4.4 2.4,4.9 1.5,5.3 0.5,5.5 m -120.2,0 -0.5,5.5 -1.5,5.2 -2.4,5 -3.3,4.3 -4.1,3.7 -4.7,2.9 -5.1,2 -5.4,1 h -5.5 l -5.4,-1 -5.1,-2 -4.7,-2.9 -4,-3.7 -3.3,-4.3 -2.5,-5 -1.5,-5.2 -0.5,-5.5 0.5,-5.5 1.5,-5.3 2.5,-4.9 3.3,-4.4 4,-3.7 4.7,-2.9 5.1,-1.9 5.4,-1 h 5.5 l 5.4,1 5.1,1.9 4.7,2.9 4.1,3.7 3.3,4.4 2.4,4.9 1.5,5.3 0.5,5.5 m -120.2,0 -0.5,5.5 -1.5,5.2 -2.4,5 -3.3,4.3 -4.1,3.7 -4.6,2.9 -5.2,2 -5.4,1 h -5.5 l -5.4,-1 -5.1,-2 -4.7,-2.9 -4,-3.7 -3.3,-4.3 -2.5,-5 -1.5,-5.2 -0.5,-5.5 0.5,-5.5 1.5,-5.3 2.5,-4.9 3.3,-4.4 4,-3.7 4.7,-2.9 5.1,-1.9 5.4,-1 h 5.5 l 5.4,1 5.2,1.9 4.6,2.9 4.1,3.7 3.3,4.4 2.4,4.9 1.5,5.3 0.5,5.5 m -120.1,0 -0.5,5.5 -1.6,5.2 -2.4,5 -3.3,4.3 -4.1,3.7 -4.6,2.9 -5.2,2 -5.4,1 h -5.5 l -5.3,-1 -5.2,-2 -4.6,-2.9 -4.1,-3.7 -3.3,-4.3 -2.5,-5 -1.5,-5.2 -0.5,-5.5 0.5,-5.5 1.5,-5.3 2.5,-4.9 3.3,-4.4 4.1,-3.7 4.6,-2.9 5.2,-1.9 5.3,-1 h 5.5 l 5.4,1 5.2,1.9 4.6,2.9 4.1,3.7 3.3,4.4 2.4,4.9 1.6,5.3 0.5,5.5 m -120.2,0 -0.5,5.5 -1.5,5.2 -2.5,5 -3.3,4.3 -4.1,3.7 -4.6,2.9 -5.1,2 -5.4,1 h -5.5 l -5.4,-1 -5.2,-2 -4.6,-2.9 -4.1,-3.7 -3.3,-4.3 -2.4,-5 -1.6,-5.2 -0.5,-5.5 0.5,-5.5 1.6,-5.3 2.4,-4.9 3.3,-4.4 4.1,-3.7 4.6,-2.9 5.2,-1.9 5.4,-1 h 5.5 l 5.4,1 5.1,1.9 4.6,2.9 4.1,3.7 3.3,4.4 2.5,4.9 1.5,5.3 0.5,5.5 m -120.2,0 -0.5,5.5 -1.5,5.2 -2.5,5 -3.3,4.3 -4,3.7 -4.7,2.9 -5.1,2 -5.4,1 h -5.5 l -5.4,-1 -5.1,-2 -4.7,-2.9 -4.1,-3.7 -3.3,-4.3 -2.4,-5 -1.5,-5.2 -0.5,-5.5 0.5,-5.5 1.5,-5.3 2.4,-4.9 3.3,-4.4 4.1,-3.7 4.7,-2.9 5.1,-1.9 5.4,-1 h 5.5 l 5.4,1 5.1,1.9 4.7,2.9 4,3.7 3.3,4.4 2.5,4.9 1.5,5.3 0.5,5.5 m 961.5,120.2 -0.5,5.5 -1.5,5.2 -2.5,5 -3.3,4.3 -4,3.7 -4.7,2.9 -5.1,2 -5.4,1 h -5.5 l -5.4,-1 -5.1,-2 -4.7,-2.9 -4.1,-3.7 -3.3,-4.3 -2.4,-5 -1.5,-5.2 -0.5,-5.5 0.5,-5.5 1.5,-5.3 2.4,-4.9 3.3,-4.4 4.1,-3.7 4.7,-2.9 5.1,-1.9 5.4,-1.1 h 5.5 l 5.4,1.1 5.1,1.9 4.7,2.9 4,3.7 3.3,4.4 2.5,4.9 1.5,5.3 0.5,5.5 m -120.2,0 -0.5,5.5 -1.5,5.2 -2.5,5 -3.3,4.3 -4,3.7 -4.7,2.9 -5.1,2 -5.4,1 h -5.5 l -5.4,-1 -5.1,-2 -4.7,-2.9 -4.1,-3.7 -3.3,-4.3 -2.4,-5 -1.5,-5.2 -0.5,-5.5 0.5,-5.5 1.5,-5.3 2.4,-4.9 3.3,-4.4 4.1,-3.7 4.7,-2.9 5.1,-1.9 5.4,-1.1 h 5.5 l 5.4,1.1 5.1,1.9 4.7,2.9 4,3.7 3.3,4.4 2.5,4.9 1.5,5.3 0.5,5.5 m -120.2,0 -0.5,5.5 -1.5,5.2 -2.4,5 -3.4,4.3 -4,3.7 -4.7,2.9 -5.1,2 -5.4,1 h -5.5 l -5.4,-1 -5.1,-2 -4.7,-2.9 -4,-3.7 -3.4,-4.3 -2.4,-5 -1.5,-5.2 -0.5,-5.5 0.5,-5.5 1.5,-5.3 2.4,-4.9 3.4,-4.4 4,-3.7 4.7,-2.9 5.1,-1.9 5.4,-1.1 h 5.5 l 5.4,1.1 5.1,1.9 4.7,2.9 4,3.7 3.4,4.4 2.4,4.9 1.5,5.3 0.5,5.5 m -120.2,0 -0.5,5.5 -1.5,5.2 -2.4,5 -3.3,4.3 -4.1,3.7 -4.7,2.9 -5.1,2 -5.4,1 h -5.5 l -5.4,-1 -5.1,-2 -4.7,-2.9 -4,-3.7 -3.3,-4.3 -2.5,-5 -1.5,-5.2 -0.5,-5.5 0.5,-5.5 1.5,-5.3 2.5,-4.9 3.3,-4.4 4,-3.7 4.7,-2.9 5.1,-1.9 5.4,-1.1 h 5.5 l 5.4,1.1 5.1,1.9 4.7,2.9 4.1,3.7 3.3,4.4 2.4,4.9 1.5,5.3 0.5,5.5 m -120.2,0 -0.5,5.5 -1.5,5.2 -2.4,5 -3.3,4.3 -4.1,3.7 -4.7,2.9 -5.1,2 -5.4,1 h -5.5 l -5.4,-1 -5.1,-2 -4.7,-2.9 -4,-3.7 -3.3,-4.3 -2.5,-5 -1.5,-5.2 -0.5,-5.5 0.5,-5.5 1.5,-5.3 2.5,-4.9 3.3,-4.4 4,-3.7 4.7,-2.9 5.1,-1.9 5.4,-1.1 h 5.5 l 5.4,1.1 5.1,1.9 4.7,2.9 4.1,3.7 3.3,4.4 2.4,4.9 1.5,5.3 0.5,5.5 m -120.2,0 -0.5,5.5 -1.5,5.2 -2.4,5 -3.3,4.3 -4.1,3.7 -4.6,2.9 -5.2,2 -5.4,1 h -5.5 l -5.4,-1 -5.1,-2 -4.7,-2.9 -4,-3.7 -3.3,-4.3 -2.5,-5 -1.5,-5.2 -0.5,-5.5 0.5,-5.5 1.5,-5.3 2.5,-4.9 3.3,-4.4 4,-3.7 4.7,-2.9 5.1,-1.9 5.4,-1.1 h 5.5 l 5.4,1.1 5.2,1.9 4.6,2.9 4.1,3.7 3.3,4.4 2.4,4.9 1.5,5.3 0.5,5.5 m -120.1,0 -0.5,5.5 -1.6,5.2 -2.4,5 -3.3,4.3 -4.1,3.7 -4.6,2.9 -5.2,2 -5.4,1 h -5.5 l -5.3,-1 -5.2,-2 -4.6,-2.9 -4.1,-3.7 -3.3,-4.3 -2.5,-5 -1.5,-5.2 -0.5,-5.5 0.5,-5.5 1.5,-5.3 2.5,-4.9 3.3,-4.4 4.1,-3.7 4.6,-2.9 5.2,-1.9 5.3,-1.1 h 5.5 l 5.4,1.1 5.2,1.9 4.6,2.9 4.1,3.7 3.3,4.4 2.4,4.9 1.6,5.3 0.5,5.5 m -120.2,0 -0.5,5.5 -1.5,5.2 -2.5,5 -3.3,4.3 -4.1,3.7 -4.6,2.9 -5.1,2 -5.4,1 h -5.5 l -5.4,-1 -5.2,-2 -4.6,-2.9 -4.1,-3.7 -3.3,-4.3 -2.4,-5 -1.6,-5.2 -0.5,-5.5 0.5,-5.5 1.6,-5.3 2.4,-4.9 3.3,-4.4 4.1,-3.7 4.6,-2.9 5.2,-1.9 5.4,-1.1 h 5.5 l 5.4,1.1 5.1,1.9 4.6,2.9 4.1,3.7 3.3,4.4 2.5,4.9 1.5,5.3 0.5,5.5 m -120.2,0 -0.5,5.5 -1.5,5.2 -2.5,5 -3.3,4.3 -4,3.7 -4.7,2.9 -5.1,2 -5.4,1 h -5.5 l -5.4,-1 -5.1,-2 -4.7,-2.9 -4.1,-3.7 -3.3,-4.3 -2.4,-5 -1.5,-5.2 -0.5,-5.5 0.5,-5.5 1.5,-5.3 2.4,-4.9 3.3,-4.4 4.1,-3.7 4.7,-2.9 5.1,-1.9 5.4,-1.1 h 5.5 l 5.4,1.1 5.1,1.9 4.7,2.9 4,3.7 3.3,4.4 2.5,4.9 1.5,5.3 0.5,5.5 M 0,120.2 l -0.5,5.4 -1.5,5.3 -2.4,4.9 -3.3,4.4 -4.1,3.7 -4.7,2.9 -5.1,2 -5.4,1 h -5.5 l -5.4,-1 -5.1,-2 -4.7,-2.9 -4,-3.7 -3.3,-4.4 -2.5,-4.9 -1.5,-5.3 -0.5,-5.4 0.5,-5.5 1.5,-5.3 2.5,-4.9 3.3,-4.4 4,-3.7 4.7,-2.9 5.1,-2 5.4,-1 h 5.5 l 5.4,1 5.1,2 4.7,2.9 4.1,3.7 3.3,4.4 2.4,4.9 1.5,5.3 0.5,5.5 m -120.2,0 -0.5,5.4 -1.5,5.3 -2.4,4.9 -3.3,4.4 -4.1,3.7 -4.7,2.9 -5.1,2 -5.4,1 h -5.5 l -5.4,-1 -5.1,-2 -4.7,-2.9 -4,-3.7 -3.3,-4.4 -2.5,-4.9 -1.5,-5.3 -0.5,-5.4 0.5,-5.5 1.5,-5.3 2.5,-4.9 3.3,-4.4 4,-3.7 4.7,-2.9 5.1,-2 5.4,-1 h 5.5 l 5.4,1 5.1,2 4.7,2.9 4.1,3.7 3.3,4.4 2.4,4.9 1.5,5.3 0.5,5.5 m -120.2,0 -0.5,5.4 -1.5,5.3 -2.4,4.9 -3.3,4.4 -4.1,3.7 -4.6,2.9 -5.2,2 -5.4,1 h -5.5 l -5.4,-1 -5.1,-2 -4.7,-2.9 -4,-3.7 -3.3,-4.4 -2.5,-4.9 -1.5,-5.3 -0.5,-5.4 0.5,-5.5 1.5,-5.3 2.5,-4.9 3.3,-4.4 4,-3.7 4.7,-2.9 5.1,-2 5.4,-1 h 5.5 l 5.4,1 5.2,2 4.6,2.9 4.1,3.7 3.3,4.4 2.4,4.9 1.5,5.3 0.5,5.5 m -120.1,0 -0.5,5.4 -1.6,5.3 -2.4,4.9 -3.3,4.4 -4.1,3.7 -4.6,2.9 -5.2,2 -5.4,1 h -5.5 l -5.4,-1 -5.1,-2 -4.6,-2.9 -4.1,-3.7 -3.3,-4.4 -2.5,-4.9 -1.5,-5.3 -0.5,-5.4 0.5,-5.5 1.5,-5.3 2.5,-4.9 3.3,-4.4 4.1,-3.7 4.6,-2.9 5.1,-2 5.4,-1 h 5.5 l 5.4,1 5.2,2 4.6,2.9 4.1,3.7 3.3,4.4 2.4,4.9 1.6,5.3 0.5,5.5 m -120.2,0 -0.5,5.4 -1.5,5.3 -2.5,4.9 -3.3,4.4 -4.1,3.7 -4.6,2.9 -5.1,2 -5.4,1 h -5.5 l -5.4,-1 -5.2,-2 -4.6,-2.9 -4.1,-3.7 -3.3,-4.4 -2.4,-4.9 -1.6,-5.3 -0.5,-5.4 0.5,-5.5 1.6,-5.3 2.4,-4.9 3.3,-4.4 4.1,-3.7 4.6,-2.9 5.2,-2 5.4,-1 h 5.5 l 5.4,1 5.1,2 4.6,2.9 4.1,3.7 3.3,4.4 2.5,4.9 1.5,5.3 0.5,5.5 m -120.2,0 -0.5,5.4 -1.5,5.3 -2.5,4.9 -3.3,4.4 -4,3.7 -4.7,2.9 -5.1,2 -5.4,1 h -5.5 l -5.4,-1 -5.2,-2 -4.6,-2.9 -4.1,-3.7 -3.3,-4.4 -2.4,-4.9 -1.5,-5.3 -0.5,-5.4 0.5,-5.5 1.5,-5.3 2.4,-4.9 3.3,-4.4 4.1,-3.7 4.6,-2.9 5.2,-2 5.4,-1 h 5.5 l 5.4,1 5.1,2 4.7,2.9 4,3.7 3.3,4.4 2.5,4.9 1.5,5.3 0.5,5.5 m -120.2,0 -0.5,5.4 -1.5,5.3 -2.5,4.9 -3.3,4.4 -4,3.7 -4.7,2.9 -5.1,2 -5.4,1 h -5.5 l -5.4,-1 -5.1,-2 -4.7,-2.9 -4.1,-3.7 -3.3,-4.4 -2.4,-4.9 -1.5,-5.3 -0.5,-5.4 0.5,-5.5 1.5,-5.3 2.4,-4.9 3.3,-4.4 4.1,-3.7 4.7,-2.9 5.1,-2 5.4,-1 h 5.5 l 5.4,1 5.1,2 4.7,2.9 4,3.7 3.3,4.4 2.5,4.9 1.5,5.3 0.5,5.5 m -120.2,0 -0.5,5.4 -1.5,5.3 -2.5,4.9 -3.3,4.4 -4,3.7 -4.7,2.9 -5.1,2 -5.4,1 h -5.5 l -5.4,-1 -5.1,-2 -4.7,-2.9 -4.1,-3.7 -3.3,-4.4 -2.4,-4.9 -1.5,-5.3 -0.5,-5.4 0.5,-5.5 1.5,-5.3 2.4,-4.9 3.3,-4.4 4.1,-3.7 4.7,-2.9 5.1,-2 5.4,-1 h 5.5 l 5.4,1 5.1,2 4.7,2.9 4,3.7 3.3,4.4 2.5,4.9 1.5,5.3 0.5,5.5 m -120.2,0 -0.5,5.4 -1.5,5.3 -2.4,4.9 -3.4,4.4 -4,3.7 -4.7,2.9 -5.1,2 -5.4,1 h -5.5 l -5.4,-1 -5.1,-2 -4.7,-2.9 -4,-3.7 -3.4,-4.4 -2.4,-4.9 -1.5,-5.3 -0.5,-5.4 0.5,-5.5 1.5,-5.3 2.4,-4.9 3.4,-4.4 4,-3.7 4.7,-2.9 5.1,-2 5.4,-1 h 5.5 l 5.4,1 5.1,2 4.7,2.9 4,3.7 3.4,4.4 2.4,4.9 1.5,5.3 0.5,5.5 m 901.4,180.3 -0.5,5.4 -1.5,5.3 -2.5,4.9 -3.3,4.4 -4,3.7 -4.7,2.9 -5.1,2 -5.4,1 h -5.5 l -5.4,-1 -5.1,-2 -4.7,-2.9 -4.1,-3.7 -3.3,-4.4 -2.4,-4.9 -1.5,-5.3 -0.5,-5.4 0.5,-5.5 1.5,-5.3 2.4,-4.9 3.3,-4.4 4.1,-3.7 4.7,-2.9 5.1,-2 5.4,-1 h 5.5 l 5.4,1 5.1,2 4.7,2.9 4,3.7 3.3,4.4 2.5,4.9 1.5,5.3 0.5,5.5 m -120.2,0 -0.5,5.4 -1.5,5.3 -2.5,4.9 -3.3,4.4 -4,3.7 -4.7,2.9 -5.1,2 -5.4,1 h -5.5 l -5.4,-1 -5.1,-2 -4.7,-2.9 -4.1,-3.7 -3.3,-4.4 -2.4,-4.9 -1.5,-5.3 -0.5,-5.4 0.5,-5.5 1.5,-5.3 2.4,-4.9 3.3,-4.4 4.1,-3.7 4.7,-2.9 5.1,-2 5.4,-1 h 5.5 l 5.4,1 5.1,2 4.7,2.9 4,3.7 3.3,4.4 2.5,4.9 1.5,5.3 0.5,5.5 m -120.2,0 -0.5,5.4 -1.5,5.3 -2.4,4.9 -3.4,4.4 -4,3.7 -4.7,2.9 -5.1,2 -5.4,1 h -5.5 l -5.4,-1 -5.1,-2 -4.7,-2.9 -4,-3.7 -3.4,-4.4 -2.4,-4.9 -1.5,-5.3 -0.5,-5.4 0.5,-5.5 1.5,-5.3 2.4,-4.9 3.4,-4.4 4,-3.7 4.7,-2.9 5.1,-2 5.4,-1 h 5.5 l 5.4,1 5.1,2 4.7,2.9 4,3.7 3.4,4.4 2.4,4.9 1.5,5.3 0.5,5.5 m -120.2,0 -0.5,5.4 -1.5,5.3 -2.4,4.9 -3.3,4.4 -4.1,3.7 -4.7,2.9 -5.1,2 -5.4,1 h -5.5 l -5.4,-1 -5.1,-2 -4.7,-2.9 -4,-3.7 -3.3,-4.4 -2.5,-4.9 -1.5,-5.3 -0.5,-5.4 0.5,-5.5 1.5,-5.3 2.5,-4.9 3.3,-4.4 4,-3.7 4.7,-2.9 5.1,-2 5.4,-1 h 5.5 l 5.4,1 5.1,2 4.7,2.9 4.1,3.7 3.3,4.4 2.4,4.9 1.5,5.3 0.5,5.5 m -120.2,0 -0.5,5.4 -1.5,5.3 -2.4,4.9 -3.3,4.4 -4.1,3.7 -4.7,2.9 -5.1,2 -5.4,1 h -5.5 l -5.4,-1 -5.1,-2 -4.7,-2.9 -4,-3.7 -3.3,-4.4 -2.5,-4.9 -1.5,-5.3 -0.5,-5.4 0.5,-5.5 1.5,-5.3 2.5,-4.9 3.3,-4.4 4,-3.7 4.7,-2.9 5.1,-2 5.4,-1 h 5.5 l 5.4,1 5.1,2 4.7,2.9 4.1,3.7 3.3,4.4 2.4,4.9 1.5,5.3 0.5,5.5 m -120.2,0 -0.5,5.4 -1.5,5.3 -2.4,4.9 -3.3,4.4 -4.1,3.7 -4.6,2.9 -5.2,2 -5.4,1 h -5.5 l -5.4,-1 -5.1,-2 -4.7,-2.9 -4,-3.7 -3.3,-4.4 -2.5,-4.9 -1.5,-5.3 -0.5,-5.4 0.5,-5.5 1.5,-5.3 2.5,-4.9 3.3,-4.4 4,-3.7 4.7,-2.9 5.1,-2 5.4,-1 h 5.5 l 5.4,1 5.2,2 4.6,2.9 4.1,3.7 3.3,4.4 2.4,4.9 1.5,5.3 0.5,5.5 m -120.1,0 -0.5,5.4 -1.6,5.3 -2.4,4.9 -3.3,4.4 -4.1,3.7 -4.6,2.9 -5.2,2 -5.4,1 h -5.5 l -5.3,-1 -5.2,-2 -4.6,-2.9 -4.1,-3.7 -3.3,-4.4 -2.5,-4.9 -1.5,-5.3 -0.5,-5.4 0.5,-5.5 1.5,-5.3 2.5,-4.9 3.3,-4.4 4.1,-3.7 4.6,-2.9 5.2,-2 5.3,-1 h 5.5 l 5.4,1 5.2,2 4.6,2.9 4.1,3.7 3.3,4.4 2.4,4.9 1.6,5.3 0.5,5.5 m -120.2,0 -0.5,5.4 -1.5,5.3 -2.5,4.9 -3.3,4.4 -4.1,3.7 -4.6,2.9 -5.1,2 -5.4,1 h -5.5 l -5.4,-1 -5.2,-2 -4.6,-2.9 -4.1,-3.7 -3.3,-4.4 -2.4,-4.9 -1.6,-5.3 -0.5,-5.4 0.5,-5.5 1.6,-5.3 2.4,-4.9 3.3,-4.4 4.1,-3.7 4.6,-2.9 5.2,-2 5.4,-1 h 5.5 l 5.4,1 5.1,2 4.6,2.9 4.1,3.7 3.3,4.4 2.5,4.9 1.5,5.3 0.5,5.5 m -120.2,0 -0.5,5.4 -1.5,5.3 -2.5,4.9 -3.3,4.4 -4,3.7 -4.7,2.9 -5.1,2 -5.4,1 h -5.5 l -5.4,-1 -5.1,-2 -4.7,-2.9 -4.1,-3.7 -3.3,-4.4 -2.4,-4.9 -1.5,-5.3 -0.5,-5.4 0.5,-5.5 1.5,-5.3 2.4,-4.9 3.3,-4.4 4.1,-3.7 4.7,-2.9 5.1,-2 5.4,-1 h 5.5 l 5.4,1 5.1,2 4.7,2.9 4,3.7 3.3,4.4 2.5,4.9 1.5,5.3 0.5,5.5 M 0,240.3 l -0.5,5.5 -1.5,5.3 -2.4,4.9 -3.3,4.4 -4.1,3.7 -4.7,2.9 -5.1,2 -5.4,1 h -5.5 l -5.4,-1 -5.1,-2 -4.7,-2.9 -4,-3.7 -3.3,-4.4 -2.5,-4.9 -1.5,-5.3 -0.5,-5.5 0.5,-5.4 1.5,-5.3 2.5,-4.9 3.3,-4.4 4,-3.7 4.7,-2.9 5.1,-2 5.4,-1 h 5.5 l 5.4,1 5.1,2 4.7,2.9 4.1,3.7 3.3,4.4 2.4,4.9 1.5,5.3 0.5,5.4 m -120.2,0 -0.5,5.5 -1.5,5.3 -2.4,4.9 -3.3,4.4 -4.1,3.7 -4.7,2.9 -5.1,2 -5.4,1 h -5.5 l -5.4,-1 -5.1,-2 -4.7,-2.9 -4,-3.7 -3.3,-4.4 -2.5,-4.9 -1.5,-5.3 -0.5,-5.5 0.5,-5.4 1.5,-5.3 2.5,-4.9 3.3,-4.4 4,-3.7 4.7,-2.9 5.1,-2 5.4,-1 h 5.5 l 5.4,1 5.1,2 4.7,2.9 4.1,3.7 3.3,4.4 2.4,4.9 1.5,5.3 0.5,5.4 m -120.2,0 -0.5,5.5 -1.5,5.3 -2.4,4.9 -3.3,4.4 -4.1,3.7 -4.6,2.9 -5.2,2 -5.4,1 h -5.5 l -5.4,-1 -5.1,-2 -4.7,-2.9 -4,-3.7 -3.3,-4.4 -2.5,-4.9 -1.5,-5.3 -0.5,-5.5 0.5,-5.4 1.5,-5.3 2.5,-4.9 3.3,-4.4 4,-3.7 4.7,-2.9 5.1,-2 5.4,-1 h 5.5 l 5.4,1 5.2,2 4.6,2.9 4.1,3.7 3.3,4.4 2.4,4.9 1.5,5.3 0.5,5.4 m -120.1,0 -0.5,5.5 -1.6,5.3 -2.4,4.9 -3.3,4.4 -4.1,3.7 -4.6,2.9 -5.2,2 -5.4,1 h -5.5 l -5.4,-1 -5.1,-2 -4.6,-2.9 -4.1,-3.7 -3.3,-4.4 -2.5,-4.9 -1.5,-5.3 -0.5,-5.5 0.5,-5.4 1.5,-5.3 2.5,-4.9 3.3,-4.4 4.1,-3.7 4.6,-2.9 5.1,-2 5.4,-1 h 5.5 l 5.4,1 5.2,2 4.6,2.9 4.1,3.7 3.3,4.4 2.4,4.9 1.6,5.3 0.5,5.4 m -120.2,0 -0.5,5.5 -1.5,5.3 -2.5,4.9 -3.3,4.4 -4.1,3.7 -4.6,2.9 -5.1,2 -5.4,1 h -5.5 l -5.4,-1 -5.2,-2 -4.6,-2.9 -4.1,-3.7 -3.3,-4.4 -2.4,-4.9 -1.6,-5.3 -0.5,-5.5 0.5,-5.4 1.6,-5.3 2.4,-4.9 3.3,-4.4 4.1,-3.7 4.6,-2.9 5.2,-2 5.4,-1 h 5.5 l 5.4,1 5.1,2 4.6,2.9 4.1,3.7 3.3,4.4 2.5,4.9 1.5,5.3 0.5,5.4 m -120.2,0 -0.5,5.5 -1.5,5.3 -2.5,4.9 -3.3,4.4 -4,3.7 -4.7,2.9 -5.1,2 -5.4,1 h -5.5 l -5.4,-1 -5.2,-2 -4.6,-2.9 -4.1,-3.7 -3.3,-4.4 -2.4,-4.9 -1.5,-5.3 -0.5,-5.5 0.5,-5.4 1.5,-5.3 2.4,-4.9 3.3,-4.4 4.1,-3.7 4.6,-2.9 5.2,-2 5.4,-1 h 5.5 l 5.4,1 5.1,2 4.7,2.9 4,3.7 3.3,4.4 2.5,4.9 1.5,5.3 0.5,5.4 m -120.2,0 -0.5,5.5 -1.5,5.3 -2.5,4.9 -3.3,4.4 -4,3.7 -4.7,2.9 -5.1,2 -5.4,1 h -5.5 l -5.4,-1 -5.1,-2 -4.7,-2.9 -4.1,-3.7 -3.3,-4.4 -2.4,-4.9 -1.5,-5.3 -0.5,-5.5 0.5,-5.4 1.5,-5.3 2.4,-4.9 3.3,-4.4 4.1,-3.7 4.7,-2.9 5.1,-2 5.4,-1 h 5.5 l 5.4,1 5.1,2 4.7,2.9 4,3.7 3.3,4.4 2.5,4.9 1.5,5.3 0.5,5.4 m -120.2,0 -0.5,5.5 -1.5,5.3 -2.5,4.9 -3.3,4.4 -4,3.7 -4.7,2.9 -5.1,2 -5.4,1 h -5.5 l -5.4,-1 -5.1,-2 -4.7,-2.9 -4.1,-3.7 -3.3,-4.4 -2.4,-4.9 -1.5,-5.3 -0.5,-5.5 0.5,-5.4 1.5,-5.3 2.4,-4.9 3.3,-4.4 4.1,-3.7 4.7,-2.9 5.1,-2 5.4,-1 h 5.5 l 5.4,1 5.1,2 4.7,2.9 4,3.7 3.3,4.4 2.5,4.9 1.5,5.3 0.5,5.4 m -120.2,0 -0.5,5.5 -1.5,5.3 -2.4,4.9 -3.4,4.4 -4,3.7 -4.7,2.9 -5.1,2 -5.4,1 h -5.5 l -5.4,-1 -5.1,-2 -4.7,-2.9 -4,-3.7 -3.4,-4.4 -2.4,-4.9 -1.5,-5.3 -0.5,-5.5 0.5,-5.4 1.5,-5.3 2.4,-4.9 3.4,-4.4 4,-3.7 4.7,-2.9 5.1,-2 5.4,-1 h 5.5 l 5.4,1 5.1,2 4.7,2.9 4,3.7 3.4,4.4 2.4,4.9 1.5,5.3 0.5,5.4 m 901.4,180.4 -0.5,5.4 -1.5,5.3 -2.5,4.9 -3.3,4.4 -4,3.7 -4.7,2.9 -5.1,2 -5.4,1 h -5.5 l -5.4,-1 -5.1,-2 -4.7,-2.9 -4.1,-3.7 -3.3,-4.4 -2.4,-4.9 -1.5,-5.3 -0.5,-5.4 0.5,-5.5 1.5,-5.3 2.4,-4.9 3.3,-4.4 4.1,-3.7 4.7,-2.9 5.1,-2 5.4,-1 h 5.5 l 5.4,1 5.1,2 4.7,2.9 4,3.7 3.3,4.4 2.5,4.9 1.5,5.3 0.5,5.5 m -120.2,0 -0.5,5.4 -1.5,5.3 -2.5,4.9 -3.3,4.4 -4,3.7 -4.7,2.9 -5.1,2 -5.4,1 h -5.5 l -5.4,-1 -5.1,-2 -4.7,-2.9 -4.1,-3.7 -3.3,-4.4 -2.4,-4.9 -1.5,-5.3 -0.5,-5.4 0.5,-5.5 1.5,-5.3 2.4,-4.9 3.3,-4.4 4.1,-3.7 4.7,-2.9 5.1,-2 5.4,-1 h 5.5 l 5.4,1 5.1,2 4.7,2.9 4,3.7 3.3,4.4 2.5,4.9 1.5,5.3 0.5,5.5 m -120.2,0 -0.5,5.4 -1.5,5.3 -2.4,4.9 -3.4,4.4 -4,3.7 -4.7,2.9 -5.1,2 -5.4,1 h -5.5 l -5.4,-1 -5.1,-2 -4.7,-2.9 -4,-3.7 -3.4,-4.4 -2.4,-4.9 -1.5,-5.3 -0.5,-5.4 0.5,-5.5 1.5,-5.3 2.4,-4.9 3.4,-4.4 4,-3.7 4.7,-2.9 5.1,-2 5.4,-1 h 5.5 l 5.4,1 5.1,2 4.7,2.9 4,3.7 3.4,4.4 2.4,4.9 1.5,5.3 0.5,5.5 m -120.2,0 -0.5,5.4 -1.5,5.3 -2.4,4.9 -3.3,4.4 -4.1,3.7 -4.7,2.9 -5.1,2 -5.4,1 h -5.5 l -5.4,-1 -5.1,-2 -4.7,-2.9 -4,-3.7 -3.3,-4.4 -2.5,-4.9 -1.5,-5.3 -0.5,-5.4 0.5,-5.5 1.5,-5.3 2.5,-4.9 3.3,-4.4 4,-3.7 4.7,-2.9 5.1,-2 5.4,-1 h 5.5 l 5.4,1 5.1,2 4.7,2.9 4.1,3.7 3.3,4.4 2.4,4.9 1.5,5.3 0.5,5.5 m -120.2,0 -0.5,5.4 -1.5,5.3 -2.4,4.9 -3.3,4.4 -4.1,3.7 -4.7,2.9 -5.1,2 -5.4,1 h -5.5 l -5.4,-1 -5.1,-2 -4.7,-2.9 -4,-3.7 -3.3,-4.4 -2.5,-4.9 -1.5,-5.3 -0.5,-5.4 0.5,-5.5 1.5,-5.3 2.5,-4.9 3.3,-4.4 4,-3.7 4.7,-2.9 5.1,-2 5.4,-1 h 5.5 l 5.4,1 5.1,2 4.7,2.9 4.1,3.7 3.3,4.4 2.4,4.9 1.5,5.3 0.5,5.5 m -120.2,0 -0.5,5.4 -1.5,5.3 -2.4,4.9 -3.3,4.4 -4.1,3.7 -4.6,2.9 -5.2,2 -5.4,1 h -5.5 l -5.4,-1 -5.1,-2 -4.7,-2.9 -4,-3.7 -3.3,-4.4 -2.5,-4.9 -1.5,-5.3 -0.5,-5.4 0.5,-5.5 1.5,-5.3 2.5,-4.9 3.3,-4.4 4,-3.7 4.7,-2.9 5.1,-2 5.4,-1 h 5.5 l 5.4,1 5.2,2 4.6,2.9 4.1,3.7 3.3,4.4 2.4,4.9 1.5,5.3 0.5,5.5 m -120.1,0 -0.5,5.4 -1.6,5.3 -2.4,4.9 -3.3,4.4 -4.1,3.7 -4.6,2.9 -5.2,2 -5.4,1 h -5.5 l -5.3,-1 -5.2,-2 -4.6,-2.9 -4.1,-3.7 -3.3,-4.4 -2.5,-4.9 -1.5,-5.3 -0.5,-5.4 0.5,-5.5 1.5,-5.3 2.5,-4.9 3.3,-4.4 4.1,-3.7 4.6,-2.9 5.2,-2 5.3,-1 h 5.5 l 5.4,1 5.2,2 4.6,2.9 4.1,3.7 3.3,4.4 2.4,4.9 1.6,5.3 0.5,5.5 m -120.2,0 -0.5,5.4 -1.5,5.3 -2.5,4.9 -3.3,4.4 -4.1,3.7 -4.6,2.9 -5.1,2 -5.4,1 h -5.5 l -5.4,-1 -5.2,-2 -4.6,-2.9 -4.1,-3.7 -3.3,-4.4 -2.4,-4.9 -1.6,-5.3 -0.5,-5.4 0.5,-5.5 1.6,-5.3 2.4,-4.9 3.3,-4.4 4.1,-3.7 4.6,-2.9 5.2,-2 5.4,-1 h 5.5 l 5.4,1 5.1,2 4.6,2.9 4.1,3.7 3.3,4.4 2.5,4.9 1.5,5.3 0.5,5.5 m -120.2,0 -0.5,5.4 -1.5,5.3 -2.5,4.9 -3.3,4.4 -4,3.7 -4.7,2.9 -5.1,2 -5.4,1 h -5.5 l -5.4,-1 -5.1,-2 -4.7,-2.9 -4.1,-3.7 -3.3,-4.4 -2.4,-4.9 -1.5,-5.3 -0.5,-5.4 0.5,-5.5 1.5,-5.3 2.4,-4.9 3.3,-4.4 4.1,-3.7 4.7,-2.9 5.1,-2 5.4,-1 h 5.5 l 5.4,1 5.1,2 4.7,2.9 4,3.7 3.3,4.4 2.5,4.9 1.5,5.3 0.5,5.5 M 0,360.5 l -0.5,5.5 -1.5,5.3 -2.4,4.9 -3.3,4.4 -4.1,3.7 -4.7,2.9 -5.1,2 -5.4,1 h -5.5 l -5.4,-1 -5.1,-2 -4.7,-2.9 -4,-3.7 -3.3,-4.4 -2.5,-4.9 -1.5,-5.3 -0.5,-5.5 0.5,-5.4 1.5,-5.3 2.5,-4.9 3.3,-4.4 4,-3.7 4.7,-2.9 5.1,-2 5.4,-1 h 5.5 l 5.4,1 5.1,2 4.7,2.9 4.1,3.7 3.3,4.4 2.4,4.9 1.5,5.3 0.5,5.4 m -120.2,0 -0.5,5.5 -1.5,5.3 -2.4,4.9 -3.3,4.4 -4.1,3.7 -4.7,2.9 -5.1,2 -5.4,1 h -5.5 l -5.4,-1 -5.1,-2 -4.7,-2.9 -4,-3.7 -3.3,-4.4 -2.5,-4.9 -1.5,-5.3 -0.5,-5.5 0.5,-5.4 1.5,-5.3 2.5,-4.9 3.3,-4.4 4,-3.7 4.7,-2.9 5.1,-2 5.4,-1 h 5.5 l 5.4,1 5.1,2 4.7,2.9 4.1,3.7 3.3,4.4 2.4,4.9 1.5,5.3 0.5,5.4 m -120.2,0 -0.5,5.5 -1.5,5.3 -2.4,4.9 -3.3,4.4 -4.1,3.7 -4.6,2.9 -5.2,2 -5.4,1 h -5.5 l -5.4,-1 -5.1,-2 -4.7,-2.9 -4,-3.7 -3.3,-4.4 -2.5,-4.9 -1.5,-5.3 -0.5,-5.5 0.5,-5.4 1.5,-5.3 2.5,-4.9 3.3,-4.4 4,-3.7 4.7,-2.9 5.1,-2 5.4,-1 h 5.5 l 5.4,1 5.2,2 4.6,2.9 4.1,3.7 3.3,4.4 2.4,4.9 1.5,5.3 0.5,5.4 m -120.1,0 -0.5,5.5 -1.6,5.3 -2.4,4.9 -3.3,4.4 -4.1,3.7 -4.6,2.9 -5.2,2 -5.4,1 h -5.5 l -5.4,-1 -5.1,-2 -4.6,-2.9 -4.1,-3.7 -3.3,-4.4 -2.5,-4.9 -1.5,-5.3 -0.5,-5.5 0.5,-5.4 1.5,-5.3 2.5,-4.9 3.3,-4.4 4.1,-3.7 4.6,-2.9 5.1,-2 5.4,-1 h 5.5 l 5.4,1 5.2,2 4.6,2.9 4.1,3.7 3.3,4.4 2.4,4.9 1.6,5.3 0.5,5.4 m -120.2,0 -0.5,5.5 -1.5,5.3 -2.5,4.9 -3.3,4.4 -4.1,3.7 -4.6,2.9 -5.1,2 -5.4,1 h -5.5 l -5.4,-1 -5.2,-2 -4.6,-2.9 -4.1,-3.7 -3.3,-4.4 -2.4,-4.9 -1.6,-5.3 -0.5,-5.5 0.5,-5.4 1.6,-5.3 2.4,-4.9 3.3,-4.4 4.1,-3.7 4.6,-2.9 5.2,-2 5.4,-1 h 5.5 l 5.4,1 5.1,2 4.6,2.9 4.1,3.7 3.3,4.4 2.5,4.9 1.5,5.3 0.5,5.4 m -120.2,0 -0.5,5.5 -1.5,5.3 -2.5,4.9 -3.3,4.4 -4,3.7 -4.7,2.9 -5.1,2 -5.4,1 h -5.5 l -5.4,-1 -5.2,-2 -4.6,-2.9 -4.1,-3.7 -3.3,-4.4 -2.4,-4.9 -1.5,-5.3 -0.5,-5.5 0.5,-5.4 1.5,-5.3 2.4,-4.9 3.3,-4.4 4.1,-3.7 4.6,-2.9 5.2,-2 5.4,-1 h 5.5 l 5.4,1 5.1,2 4.7,2.9 4,3.7 3.3,4.4 2.5,4.9 1.5,5.3 0.5,5.4 m -120.2,0 -0.5,5.5 -1.5,5.3 -2.5,4.9 -3.3,4.4 -4,3.7 -4.7,2.9 -5.1,2 -5.4,1 h -5.5 l -5.4,-1 -5.1,-2 -4.7,-2.9 -4.1,-3.7 -3.3,-4.4 -2.4,-4.9 -1.5,-5.3 -0.5,-5.5 0.5,-5.4 1.5,-5.3 2.4,-4.9 3.3,-4.4 4.1,-3.7 4.7,-2.9 5.1,-2 5.4,-1 h 5.5 l 5.4,1 5.1,2 4.7,2.9 4,3.7 3.3,4.4 2.5,4.9 1.5,5.3 0.5,5.4 m -120.2,0 -0.5,5.5 -1.5,5.3 -2.5,4.9 -3.3,4.4 -4,3.7 -4.7,2.9 -5.1,2 -5.4,1 h -5.5 l -5.4,-1 -5.1,-2 -4.7,-2.9 -4.1,-3.7 -3.3,-4.4 -2.4,-4.9 -1.5,-5.3 -0.5,-5.5 0.5,-5.4 1.5,-5.3 2.4,-4.9 3.3,-4.4 4.1,-3.7 4.7,-2.9 5.1,-2 5.4,-1 h 5.5 l 5.4,1 5.1,2 4.7,2.9 4,3.7 3.3,4.4 2.5,4.9 1.5,5.3 0.5,5.4 m -120.2,0 -0.5,5.5 -1.5,5.3 -2.4,4.9 -3.4,4.4 -4,3.7 -4.7,2.9 -5.1,2 -5.4,1 h -5.5 l -5.4,-1 -5.1,-2 -4.7,-2.9 -4,-3.7 -3.4,-4.4 -2.4,-4.9 -1.5,-5.3 -0.5,-5.5 0.5,-5.4 1.5,-5.3 2.4,-4.9 3.4,-4.4 4,-3.7 4.7,-2.9 5.1,-2 5.4,-1 h 5.5 l 5.4,1 5.1,2 4.7,2.9 4,3.7 3.4,4.4 2.4,4.9 1.5,5.3 0.5,5.4 m 901.4,180.3 -0.5,5.5 -1.5,5.3 -2.5,4.9 -3.3,4.4 -4,3.7 -4.7,2.9 -5.1,2 -5.4,1 h -5.5 l -5.4,-1 -5.1,-2 -4.7,-2.9 -4.1,-3.7 -3.3,-4.4 -2.4,-4.9 -1.5,-5.3 -0.5,-5.5 0.5,-5.4 1.5,-5.3 2.4,-4.9 3.3,-4.4 4.1,-3.7 4.7,-2.9 5.1,-2 5.4,-1 h 5.5 l 5.4,1 5.1,2 4.7,2.9 4,3.7 3.3,4.4 2.5,4.9 1.5,5.3 0.5,5.4 m -120.2,0 -0.5,5.5 -1.5,5.3 -2.5,4.9 -3.3,4.4 -4,3.7 -4.7,2.9 -5.1,2 -5.4,1 h -5.5 l -5.4,-1 -5.1,-2 -4.7,-2.9 -4.1,-3.7 -3.3,-4.4 -2.4,-4.9 -1.5,-5.3 -0.5,-5.5 0.5,-5.4 1.5,-5.3 2.4,-4.9 3.3,-4.4 4.1,-3.7 4.7,-2.9 5.1,-2 5.4,-1 h 5.5 l 5.4,1 5.1,2 4.7,2.9 4,3.7 3.3,4.4 2.5,4.9 1.5,5.3 0.5,5.4 m -120.2,0 -0.5,5.5 -1.5,5.3 -2.4,4.9 -3.4,4.4 -4,3.7 -4.7,2.9 -5.1,2 -5.4,1 h -5.5 l -5.4,-1 -5.1,-2 -4.7,-2.9 -4,-3.7 -3.4,-4.4 -2.4,-4.9 -1.5,-5.3 -0.5,-5.5 0.5,-5.4 1.5,-5.3 2.4,-4.9 3.4,-4.4 4,-3.7 4.7,-2.9 5.1,-2 5.4,-1 h 5.5 l 5.4,1 5.1,2 4.7,2.9 4,3.7 3.4,4.4 2.4,4.9 1.5,5.3 0.5,5.4 m -120.2,0 -0.5,5.5 -1.5,5.3 -2.4,4.9 -3.3,4.4 -4.1,3.7 -4.7,2.9 -5.1,2 -5.4,1 h -5.5 l -5.4,-1 -5.1,-2 -4.7,-2.9 -4,-3.7 -3.3,-4.4 -2.5,-4.9 -1.5,-5.3 -0.5,-5.5 0.5,-5.4 1.5,-5.3 2.5,-4.9 3.3,-4.4 4,-3.7 4.7,-2.9 5.1,-2 5.4,-1 h 5.5 l 5.4,1 5.1,2 4.7,2.9 4.1,3.7 3.3,4.4 2.4,4.9 1.5,5.3 0.5,5.4 m -120.2,0 -0.5,5.5 -1.5,5.3 -2.4,4.9 -3.3,4.4 -4.1,3.7 -4.7,2.9 -5.1,2 -5.4,1 h -5.5 l -5.4,-1 -5.1,-2 -4.7,-2.9 -4,-3.7 -3.3,-4.4 -2.5,-4.9 -1.5,-5.3 -0.5,-5.5 0.5,-5.4 1.5,-5.3 2.5,-4.9 3.3,-4.4 4,-3.7 4.7,-2.9 5.1,-2 5.4,-1 h 5.5 l 5.4,1 5.1,2 4.7,2.9 4.1,3.7 3.3,4.4 2.4,4.9 1.5,5.3 0.5,5.4 m -120.2,0 -0.5,5.5 -1.5,5.3 -2.4,4.9 -3.3,4.4 -4.1,3.7 -4.6,2.9 -5.2,2 -5.4,1 h -5.5 l -5.4,-1 -5.1,-2 -4.7,-2.9 -4,-3.7 -3.3,-4.4 -2.5,-4.9 -1.5,-5.3 -0.5,-5.5 0.5,-5.4 1.5,-5.3 2.5,-4.9 3.3,-4.4 4,-3.7 4.7,-2.9 5.1,-2 5.4,-1 h 5.5 l 5.4,1 5.2,2 4.6,2.9 4.1,3.7 3.3,4.4 2.4,4.9 1.5,5.3 0.5,5.4 m -120.1,0 -0.5,5.5 -1.6,5.3 -2.4,4.9 -3.3,4.4 -4.1,3.7 -4.6,2.9 -5.2,2 -5.4,1 h -5.5 l -5.3,-1 -5.2,-2 -4.6,-2.9 -4.1,-3.7 -3.3,-4.4 -2.5,-4.9 -1.5,-5.3 -0.5,-5.5 0.5,-5.4 1.5,-5.3 2.5,-4.9 3.3,-4.4 4.1,-3.7 4.6,-2.9 5.2,-2 5.3,-1 h 5.5 l 5.4,1 5.2,2 4.6,2.9 4.1,3.7 3.3,4.4 2.4,4.9 1.6,5.3 0.5,5.4 m -120.2,0 -0.5,5.5 -1.5,5.3 -2.5,4.9 -3.3,4.4 -4.1,3.7 -4.6,2.9 -5.1,2 -5.4,1 h -5.5 l -5.4,-1 -5.2,-2 -4.6,-2.9 -4.1,-3.7 -3.3,-4.4 -2.4,-4.9 -1.6,-5.3 -0.5,-5.5 0.5,-5.4 1.6,-5.3 2.4,-4.9 3.3,-4.4 4.1,-3.7 4.6,-2.9 5.2,-2 5.4,-1 h 5.5 l 5.4,1 5.1,2 4.6,2.9 4.1,3.7 3.3,4.4 2.5,4.9 1.5,5.3 0.5,5.4 m -120.2,0 -0.5,5.5 -1.5,5.3 -2.5,4.9 -3.3,4.4 -4,3.7 -4.7,2.9 -5.1,2 -5.4,1 h -5.5 l -5.4,-1 -5.1,-2 -4.7,-2.9 -4.1,-3.7 -3.3,-4.4 -2.4,-4.9 -1.5,-5.3 -0.5,-5.5 0.5,-5.4 1.5,-5.3 2.4,-4.9 3.3,-4.4 4.1,-3.7 4.7,-2.9 5.1,-2 5.4,-1 h 5.5 l 5.4,1 5.1,2 4.7,2.9 4,3.7 3.3,4.4 2.5,4.9 1.5,5.3 0.5,5.4 M 0,480.7 l -0.5,5.5 -1.5,5.3 -2.4,4.9 -3.3,4.4 -4.1,3.7 -4.7,2.9 -5.1,1.9 -5.4,1.1 h -5.5 l -5.4,-1.1 -5.1,-1.9 -4.7,-2.9 -4,-3.7 -3.3,-4.4 -2.5,-4.9 -1.5,-5.3 -0.5,-5.5 0.5,-5.5 1.5,-5.2 2.5,-5 3.3,-4.3 4,-3.7 4.7,-2.9 5.1,-2 5.4,-1 h 5.5 l 5.4,1 5.1,2 4.7,2.9 4.1,3.7 3.3,4.3 2.4,5 1.5,5.2 0.5,5.5 m -120.2,0 -0.5,5.5 -1.5,5.3 -2.4,4.9 -3.3,4.4 -4.1,3.7 -4.7,2.9 -5.1,1.9 -5.4,1.1 h -5.5 l -5.4,-1.1 -5.1,-1.9 -4.7,-2.9 -4,-3.7 -3.3,-4.4 -2.5,-4.9 -1.5,-5.3 -0.5,-5.5 0.5,-5.5 1.5,-5.2 2.5,-5 3.3,-4.3 4,-3.7 4.7,-2.9 5.1,-2 5.4,-1 h 5.5 l 5.4,1 5.1,2 4.7,2.9 4.1,3.7 3.3,4.3 2.4,5 1.5,5.2 0.5,5.5 m -120.2,0 -0.5,5.5 -1.5,5.3 -2.4,4.9 -3.3,4.4 -4.1,3.7 -4.6,2.9 -5.2,1.9 -5.4,1.1 h -5.5 l -5.4,-1.1 -5.1,-1.9 -4.7,-2.9 -4,-3.7 -3.3,-4.4 -2.5,-4.9 -1.5,-5.3 -0.5,-5.5 0.5,-5.5 1.5,-5.2 2.5,-5 3.3,-4.3 4,-3.7 4.7,-2.9 5.1,-2 5.4,-1 h 5.5 l 5.4,1 5.2,2 4.6,2.9 4.1,3.7 3.3,4.3 2.4,5 1.5,5.2 0.5,5.5 m -120.1,0 -0.5,5.5 -1.6,5.3 -2.4,4.9 -3.3,4.4 -4.1,3.7 -4.6,2.9 -5.2,1.9 -5.4,1.1 h -5.5 l -5.4,-1.1 -5.1,-1.9 -4.6,-2.9 -4.1,-3.7 -3.3,-4.4 -2.5,-4.9 -1.5,-5.3 -0.5,-5.5 0.5,-5.5 1.5,-5.2 2.5,-5 3.3,-4.3 4.1,-3.7 4.6,-2.9 5.1,-2 5.4,-1 h 5.5 l 5.4,1 5.2,2 4.6,2.9 4.1,3.7 3.3,4.3 2.4,5 1.6,5.2 0.5,5.5 m -120.2,0 -0.5,5.5 -1.5,5.3 -2.5,4.9 -3.3,4.4 -4.1,3.7 -4.6,2.9 -5.1,1.9 -5.4,1.1 h -5.5 l -5.4,-1.1 -5.2,-1.9 -4.6,-2.9 -4.1,-3.7 -3.3,-4.4 -2.4,-4.9 -1.6,-5.3 -0.5,-5.5 0.5,-5.5 1.6,-5.2 2.4,-5 3.3,-4.3 4.1,-3.7 4.6,-2.9 5.2,-2 5.4,-1 h 5.5 l 5.4,1 5.1,2 4.6,2.9 4.1,3.7 3.3,4.3 2.5,5 1.5,5.2 0.5,5.5 m -120.2,0 -0.5,5.5 -1.5,5.3 -2.5,4.9 -3.3,4.4 -4,3.7 -4.7,2.9 -5.1,1.9 -5.4,1.1 h -5.5 l -5.4,-1.1 -5.2,-1.9 -4.6,-2.9 -4.1,-3.7 -3.3,-4.4 -2.4,-4.9 -1.5,-5.3 -0.5,-5.5 0.5,-5.5 1.5,-5.2 2.4,-5 3.3,-4.3 4.1,-3.7 4.6,-2.9 5.2,-2 5.4,-1 h 5.5 l 5.4,1 5.1,2 4.7,2.9 4,3.7 3.3,4.3 2.5,5 1.5,5.2 0.5,5.5 m -120.2,0 -0.5,5.5 -1.5,5.3 -2.5,4.9 -3.3,4.4 -4,3.7 -4.7,2.9 -5.1,1.9 -5.4,1.1 h -5.5 l -5.4,-1.1 -5.1,-1.9 -4.7,-2.9 -4.1,-3.7 -3.3,-4.4 -2.4,-4.9 -1.5,-5.3 -0.5,-5.5 0.5,-5.5 1.5,-5.2 2.4,-5 3.3,-4.3 4.1,-3.7 4.7,-2.9 5.1,-2 5.4,-1 h 5.5 l 5.4,1 5.1,2 4.7,2.9 4,3.7 3.3,4.3 2.5,5 1.5,5.2 0.5,5.5 m -120.2,0 -0.5,5.5 -1.5,5.3 -2.5,4.9 -3.3,4.4 -4,3.7 -4.7,2.9 -5.1,1.9 -5.4,1.1 h -5.5 l -5.4,-1.1 -5.1,-1.9 -4.7,-2.9 -4.1,-3.7 -3.3,-4.4 -2.4,-4.9 -1.5,-5.3 -0.5,-5.5 0.5,-5.5 1.5,-5.2 2.4,-5 3.3,-4.3 4.1,-3.7 4.7,-2.9 5.1,-2 5.4,-1 h 5.5 l 5.4,1 5.1,2 4.7,2.9 4,3.7 3.3,4.3 2.5,5 1.5,5.2 0.5,5.5 m -120.2,0 -0.5,5.5 -1.5,5.3 -2.4,4.9 -3.4,4.4 -4,3.7 -4.7,2.9 -5.1,1.9 -5.4,1.1 h -5.5 l -5.4,-1.1 -5.1,-1.9 -4.7,-2.9 -4,-3.7 -3.4,-4.4 -2.4,-4.9 -1.5,-5.3 -0.5,-5.5 0.5,-5.5 1.5,-5.2 2.4,-5 3.4,-4.3 4,-3.7 4.7,-2.9 5.1,-2 5.4,-1 h 5.5 l 5.4,1 5.1,2 4.7,2.9 4,3.7 3.4,4.3 2.4,5 1.5,5.2 0.5,5.5 m 901.4,180.3 -0.5,5.5 -1.5,5.3 -2.5,4.9 -3.3,4.4 -4,3.7 -4.7,2.9 -5.1,2 -5.4,1 h -5.5 l -5.4,-1 -5.1,-2 -4.7,-2.9 -4.1,-3.7 -3.3,-4.4 -2.4,-4.9 -1.5,-5.3 -0.5,-5.5 0.5,-5.4 1.5,-5.3 2.4,-4.9 3.3,-4.4 4.1,-3.7 4.7,-2.9 5.1,-2 5.4,-1 h 5.5 l 5.4,1 5.1,2 4.7,2.9 4,3.7 3.3,4.4 2.5,4.9 1.5,5.3 0.5,5.4 m -120.2,0 -0.5,5.5 -1.5,5.3 -2.5,4.9 -3.3,4.4 -4,3.7 -4.7,2.9 -5.1,2 -5.4,1 h -5.5 l -5.4,-1 -5.1,-2 -4.7,-2.9 -4.1,-3.7 -3.3,-4.4 -2.4,-4.9 -1.5,-5.3 -0.5,-5.5 0.5,-5.4 1.5,-5.3 2.4,-4.9 3.3,-4.4 4.1,-3.7 4.7,-2.9 5.1,-2 5.4,-1 h 5.5 l 5.4,1 5.1,2 4.7,2.9 4,3.7 3.3,4.4 2.5,4.9 1.5,5.3 0.5,5.4 m -120.2,0 -0.5,5.5 -1.5,5.3 -2.4,4.9 -3.4,4.4 -4,3.7 -4.7,2.9 -5.1,2 -5.4,1 h -5.5 l -5.4,-1 -5.1,-2 -4.7,-2.9 -4,-3.7 -3.4,-4.4 -2.4,-4.9 -1.5,-5.3 -0.5,-5.5 0.5,-5.4 1.5,-5.3 2.4,-4.9 3.4,-4.4 4,-3.7 4.7,-2.9 5.1,-2 5.4,-1 h 5.5 l 5.4,1 5.1,2 4.7,2.9 4,3.7 3.4,4.4 2.4,4.9 1.5,5.3 0.5,5.4 m -120.2,0 -0.5,5.5 -1.5,5.3 -2.4,4.9 -3.3,4.4 -4.1,3.7 -4.7,2.9 -5.1,2 -5.4,1 h -5.5 l -5.4,-1 -5.1,-2 -4.7,-2.9 -4,-3.7 -3.3,-4.4 -2.5,-4.9 -1.5,-5.3 -0.5,-5.5 0.5,-5.4 1.5,-5.3 2.5,-4.9 3.3,-4.4 4,-3.7 4.7,-2.9 5.1,-2 5.4,-1 h 5.5 l 5.4,1 5.1,2 4.7,2.9 4.1,3.7 3.3,4.4 2.4,4.9 1.5,5.3 0.5,5.4 m -120.2,0 -0.5,5.5 -1.5,5.3 -2.4,4.9 -3.3,4.4 -4.1,3.7 -4.7,2.9 -5.1,2 -5.4,1 h -5.5 l -5.4,-1 -5.1,-2 -4.7,-2.9 -4,-3.7 -3.3,-4.4 -2.5,-4.9 -1.5,-5.3 -0.5,-5.5 0.5,-5.4 1.5,-5.3 2.5,-4.9 3.3,-4.4 4,-3.7 4.7,-2.9 5.1,-2 5.4,-1 h 5.5 l 5.4,1 5.1,2 4.7,2.9 4.1,3.7 3.3,4.4 2.4,4.9 1.5,5.3 0.5,5.4 m -120.2,0 -0.5,5.5 -1.5,5.3 -2.4,4.9 -3.3,4.4 -4.1,3.7 -4.6,2.9 -5.2,2 -5.4,1 h -5.5 l -5.4,-1 -5.1,-2 -4.7,-2.9 -4,-3.7 -3.3,-4.4 -2.5,-4.9 -1.5,-5.3 -0.5,-5.5 0.5,-5.4 1.5,-5.3 2.5,-4.9 3.3,-4.4 4,-3.7 4.7,-2.9 5.1,-2 5.4,-1 h 5.5 l 5.4,1 5.2,2 4.6,2.9 4.1,3.7 3.3,4.4 2.4,4.9 1.5,5.3 0.5,5.4 m -120.1,0 -0.5,5.5 -1.6,5.3 -2.4,4.9 -3.3,4.4 -4.1,3.7 -4.6,2.9 -5.2,2 -5.4,1 h -5.5 l -5.3,-1 -5.2,-2 -4.6,-2.9 -4.1,-3.7 -3.3,-4.4 -2.5,-4.9 -1.5,-5.3 -0.5,-5.5 0.5,-5.4 1.5,-5.3 2.5,-4.9 3.3,-4.4 4.1,-3.7 4.6,-2.9 5.2,-2 5.3,-1 h 5.5 l 5.4,1 5.2,2 4.6,2.9 4.1,3.7 3.3,4.4 2.4,4.9 1.6,5.3 0.5,5.4 m -120.2,0 -0.5,5.5 -1.5,5.3 -2.5,4.9 -3.3,4.4 -4.1,3.7 -4.6,2.9 -5.1,2 -5.4,1 h -5.5 l -5.4,-1 -5.2,-2 -4.6,-2.9 -4.1,-3.7 -3.3,-4.4 -2.4,-4.9 -1.6,-5.3 -0.5,-5.5 0.5,-5.4 1.6,-5.3 2.4,-4.9 3.3,-4.4 4.1,-3.7 4.6,-2.9 5.2,-2 5.4,-1 h 5.5 l 5.4,1 5.1,2 4.6,2.9 4.1,3.7 3.3,4.4 2.5,4.9 1.5,5.3 0.5,5.4 m -120.2,0 -0.5,5.5 -1.5,5.3 -2.5,4.9 -3.3,4.4 -4,3.7 -4.7,2.9 -5.1,2 -5.4,1 h -5.5 l -5.4,-1 -5.1,-2 -4.7,-2.9 -4.1,-3.7 -3.3,-4.4 -2.4,-4.9 -1.5,-5.3 -0.5,-5.5 0.5,-5.4 1.5,-5.3 2.4,-4.9 3.3,-4.4 4.1,-3.7 4.7,-2.9 5.1,-2 5.4,-1 h 5.5 l 5.4,1 5.1,2 4.7,2.9 4,3.7 3.3,4.4 2.5,4.9 1.5,5.3 0.5,5.4 M 0,600.9 l -0.5,5.5 -1.5,5.3 -2.4,4.9 -3.3,4.4 -4.1,3.7 -4.7,2.8 -5.1,2 -5.4,1 h -5.5 l -5.4,-1 -5.1,-2 -4.7,-2.8 -4,-3.7 -3.3,-4.4 -2.5,-4.9 -1.5,-5.3 -0.5,-5.5 0.5,-5.5 1.5,-5.2 2.5,-5 3.3,-4.3 4,-3.7 4.7,-2.9 5.1,-2 5.4,-1 h 5.5 l 5.4,1 5.1,2 4.7,2.9 4.1,3.7 3.3,4.3 2.4,5 1.5,5.2 0.5,5.5 m -120.2,0 -0.5,5.5 -1.5,5.3 -2.4,4.9 -3.3,4.4 -4.1,3.7 -4.7,2.8 -5.1,2 -5.4,1 h -5.5 l -5.4,-1 -5.1,-2 -4.7,-2.8 -4,-3.7 -3.3,-4.4 -2.5,-4.9 -1.5,-5.3 -0.5,-5.5 0.5,-5.5 1.5,-5.2 2.5,-5 3.3,-4.3 4,-3.7 4.7,-2.9 5.1,-2 5.4,-1 h 5.5 l 5.4,1 5.1,2 4.7,2.9 4.1,3.7 3.3,4.3 2.4,5 1.5,5.2 0.5,5.5 m -120.2,0 -0.5,5.5 -1.5,5.3 -2.4,4.9 -3.3,4.4 -4.1,3.7 -4.6,2.8 -5.2,2 -5.4,1 h -5.5 l -5.4,-1 -5.1,-2 -4.7,-2.8 -4,-3.7 -3.3,-4.4 -2.5,-4.9 -1.5,-5.3 -0.5,-5.5 0.5,-5.5 1.5,-5.2 2.5,-5 3.3,-4.3 4,-3.7 4.7,-2.9 5.1,-2 5.4,-1 h 5.5 l 5.4,1 5.2,2 4.6,2.9 4.1,3.7 3.3,4.3 2.4,5 1.5,5.2 0.5,5.5 m -120.1,0 -0.5,5.5 -1.6,5.3 -2.4,4.9 -3.3,4.4 -4.1,3.7 -4.6,2.8 -5.2,2 -5.4,1 h -5.5 l -5.4,-1 -5.1,-2 -4.6,-2.8 -4.1,-3.7 -3.3,-4.4 -2.5,-4.9 -1.5,-5.3 -0.5,-5.5 0.5,-5.5 1.5,-5.2 2.5,-5 3.3,-4.3 4.1,-3.7 4.6,-2.9 5.1,-2 5.4,-1 h 5.5 l 5.4,1 5.2,2 4.6,2.9 4.1,3.7 3.3,4.3 2.4,5 1.6,5.2 0.5,5.5 m -120.2,0 -0.5,5.5 -1.5,5.3 -2.5,4.9 -3.3,4.4 -4.1,3.7 -4.6,2.8 -5.1,2 -5.4,1 h -5.5 l -5.4,-1 -5.2,-2 -4.6,-2.8 -4.1,-3.7 -3.3,-4.4 -2.4,-4.9 -1.6,-5.3 -0.5,-5.5 0.5,-5.5 1.6,-5.2 2.4,-5 3.3,-4.3 4.1,-3.7 4.6,-2.9 5.2,-2 5.4,-1 h 5.5 l 5.4,1 5.1,2 4.6,2.9 4.1,3.7 3.3,4.3 2.5,5 1.5,5.2 0.5,5.5 m -120.2,0 -0.5,5.5 -1.5,5.3 -2.5,4.9 -3.3,4.4 -4,3.7 -4.7,2.8 -5.1,2 -5.4,1 h -5.5 l -5.4,-1 -5.2,-2 -4.6,-2.8 -4.1,-3.7 -3.3,-4.4 -2.4,-4.9 -1.5,-5.3 -0.5,-5.5 0.5,-5.5 1.5,-5.2 2.4,-5 3.3,-4.3 4.1,-3.7 4.6,-2.9 5.2,-2 5.4,-1 h 5.5 l 5.4,1 5.1,2 4.7,2.9 4,3.7 3.3,4.3 2.5,5 1.5,5.2 0.5,5.5 m -120.2,0 -0.5,5.5 -1.5,5.3 -2.5,4.9 -3.3,4.4 -4,3.7 -4.7,2.8 -5.1,2 -5.4,1 h -5.5 l -5.4,-1 -5.1,-2 -4.7,-2.8 -4.1,-3.7 -3.3,-4.4 -2.4,-4.9 -1.5,-5.3 -0.5,-5.5 0.5,-5.5 1.5,-5.2 2.4,-5 3.3,-4.3 4.1,-3.7 4.7,-2.9 5.1,-2 5.4,-1 h 5.5 l 5.4,1 5.1,2 4.7,2.9 4,3.7 3.3,4.3 2.5,5 1.5,5.2 0.5,5.5 m -120.2,0 -0.5,5.5 -1.5,5.3 -2.5,4.9 -3.3,4.4 -4,3.7 -4.7,2.8 -5.1,2 -5.4,1 h -5.5 l -5.4,-1 -5.1,-2 -4.7,-2.8 -4.1,-3.7 -3.3,-4.4 -2.4,-4.9 -1.5,-5.3 -0.5,-5.5 0.5,-5.5 1.5,-5.2 2.4,-5 3.3,-4.3 4.1,-3.7 4.7,-2.9 5.1,-2 5.4,-1 h 5.5 l 5.4,1 5.1,2 4.7,2.9 4,3.7 3.3,4.3 2.5,5 1.5,5.2 0.5,5.5 m -120.2,0 -0.5,5.5 -1.5,5.3 -2.4,4.9 -3.4,4.4 -4,3.7 -4.7,2.8 -5.1,2 -5.4,1 h -5.5 l -5.4,-1 -5.1,-2 -4.7,-2.8 -4,-3.7 -3.4,-4.4 -2.4,-4.9 -1.5,-5.3 -0.5,-5.5 0.5,-5.5 1.5,-5.2 2.4,-5 3.4,-4.3 4,-3.7 4.7,-2.9 5.1,-2 5.4,-1 h 5.5 l 5.4,1 5.1,2 4.7,2.9 4,3.7 3.4,4.3 2.4,5 1.5,5.2 0.5,5.5 m 901.4,180.3 -0.5,5.5 -1.5,5.3 -2.5,4.9 -3.3,4.4 -4,3.7 -4.7,2.9 -5.1,2 -5.4,1 h -5.5 l -5.4,-1 -5.1,-2 -4.7,-2.9 -4.1,-3.7 -3.3,-4.4 -2.4,-4.9 -1.5,-5.3 -0.5,-5.5 0.5,-5.4 1.5,-5.3 2.4,-4.9 3.3,-4.4 4.1,-3.7 4.7,-2.9 5.1,-2 5.4,-1 h 5.5 l 5.4,1 5.1,2 4.7,2.9 4,3.7 3.3,4.4 2.5,4.9 1.5,5.3 0.5,5.4 m -120.2,0 -0.5,5.5 -1.5,5.3 -2.5,4.9 -3.3,4.4 -4,3.7 -4.7,2.9 -5.1,2 -5.4,1 h -5.5 l -5.4,-1 -5.1,-2 -4.7,-2.9 -4.1,-3.7 -3.3,-4.4 -2.4,-4.9 -1.5,-5.3 -0.5,-5.5 0.5,-5.4 1.5,-5.3 2.4,-4.9 3.3,-4.4 4.1,-3.7 4.7,-2.9 5.1,-2 5.4,-1 h 5.5 l 5.4,1 5.1,2 4.7,2.9 4,3.7 3.3,4.4 2.5,4.9 1.5,5.3 0.5,5.4 m -120.2,0 -0.5,5.5 -1.5,5.3 -2.4,4.9 -3.4,4.4 -4,3.7 -4.7,2.9 -5.1,2 -5.4,1 h -5.5 l -5.4,-1 -5.1,-2 -4.7,-2.9 -4,-3.7 -3.4,-4.4 -2.4,-4.9 -1.5,-5.3 -0.5,-5.5 0.5,-5.4 1.5,-5.3 2.4,-4.9 3.4,-4.4 4,-3.7 4.7,-2.9 5.1,-2 5.4,-1 h 5.5 l 5.4,1 5.1,2 4.7,2.9 4,3.7 3.4,4.4 2.4,4.9 1.5,5.3 0.5,5.4 m -120.2,0 -0.5,5.5 -1.5,5.3 -2.4,4.9 -3.3,4.4 -4.1,3.7 -4.7,2.9 -5.1,2 -5.4,1 h -5.5 l -5.4,-1 -5.1,-2 -4.7,-2.9 -4,-3.7 -3.3,-4.4 -2.5,-4.9 -1.5,-5.3 -0.5,-5.5 0.5,-5.4 1.5,-5.3 2.5,-4.9 3.3,-4.4 4,-3.7 4.7,-2.9 5.1,-2 5.4,-1 h 5.5 l 5.4,1 5.1,2 4.7,2.9 4.1,3.7 3.3,4.4 2.4,4.9 1.5,5.3 0.5,5.4 m -120.2,0 -0.5,5.5 -1.5,5.3 -2.4,4.9 -3.3,4.4 -4.1,3.7 -4.7,2.9 -5.1,2 -5.4,1 h -5.5 l -5.4,-1 -5.1,-2 -4.7,-2.9 -4,-3.7 -3.3,-4.4 -2.5,-4.9 -1.5,-5.3 -0.5,-5.5 0.5,-5.4 1.5,-5.3 2.5,-4.9 3.3,-4.4 4,-3.7 4.7,-2.9 5.1,-2 5.4,-1 h 5.5 l 5.4,1 5.1,2 4.7,2.9 4.1,3.7 3.3,4.4 2.4,4.9 1.5,5.3 0.5,5.4 m -120.2,0 -0.5,5.5 -1.5,5.3 -2.4,4.9 -3.3,4.4 -4.1,3.7 -4.6,2.9 -5.2,2 -5.4,1 h -5.5 l -5.4,-1 -5.1,-2 -4.7,-2.9 -4,-3.7 -3.3,-4.4 -2.5,-4.9 -1.5,-5.3 -0.5,-5.5 0.5,-5.4 1.5,-5.3 2.5,-4.9 3.3,-4.4 4,-3.7 4.7,-2.9 5.1,-2 5.4,-1 h 5.5 l 5.4,1 5.2,2 4.6,2.9 4.1,3.7 3.3,4.4 2.4,4.9 1.5,5.3 0.5,5.4 m -120.1,0 -0.5,5.5 -1.6,5.3 -2.4,4.9 -3.3,4.4 -4.1,3.7 -4.6,2.9 -5.2,2 -5.4,1 h -5.5 l -5.3,-1 -5.2,-2 -4.6,-2.9 -4.1,-3.7 -3.3,-4.4 -2.5,-4.9 -1.5,-5.3 -0.5,-5.5 0.5,-5.4 1.5,-5.3 2.5,-4.9 3.3,-4.4 4.1,-3.7 4.6,-2.9 5.2,-2 5.3,-1 h 5.5 l 5.4,1 5.2,2 4.6,2.9 4.1,3.7 3.3,4.4 2.4,4.9 1.6,5.3 0.5,5.4 m -120.2,0 -0.5,5.5 -1.5,5.3 -2.5,4.9 -3.3,4.4 -4.1,3.7 -4.6,2.9 -5.1,2 -5.4,1 h -5.5 l -5.4,-1 -5.2,-2 -4.6,-2.9 -4.1,-3.7 -3.3,-4.4 -2.4,-4.9 -1.6,-5.3 -0.5,-5.5 0.5,-5.4 1.6,-5.3 2.4,-4.9 3.3,-4.4 4.1,-3.7 4.6,-2.9 5.2,-2 5.4,-1 h 5.5 l 5.4,1 5.1,2 4.6,2.9 4.1,3.7 3.3,4.4 2.5,4.9 1.5,5.3 0.5,5.4 m -120.2,0 -0.5,5.5 -1.5,5.3 -2.5,4.9 -3.3,4.4 -4,3.7 -4.7,2.9 -5.1,2 -5.4,1 h -5.5 l -5.4,-1 -5.1,-2 -4.7,-2.9 -4.1,-3.7 -3.3,-4.4 -2.4,-4.9 -1.5,-5.3 -0.5,-5.5 0.5,-5.4 1.5,-5.3 2.4,-4.9 3.3,-4.4 4.1,-3.7 4.7,-2.9 5.1,-2 5.4,-1 h 5.5 l 5.4,1 5.1,2 4.7,2.9 4,3.7 3.3,4.4 2.5,4.9 1.5,5.3 0.5,5.4 M 0,721.1 l -0.5,5.5 -1.5,5.2 -2.4,5 -3.3,4.3 -4.1,3.7 -4.7,2.9 -5.1,2 -5.4,1 h -5.5 l -5.4,-1 -5.1,-2 -4.7,-2.9 -4,-3.7 -3.3,-4.3 -2.5,-5 -1.5,-5.2 -0.5,-5.5 0.5,-5.5 1.5,-5.3 2.5,-4.9 3.3,-4.4 4,-3.7 4.7,-2.8 5.1,-2 5.4,-1 h 5.5 l 5.4,1 5.1,2 4.7,2.8 4.1,3.7 3.3,4.4 2.4,4.9 1.5,5.3 0.5,5.5 m -120.2,0 -0.5,5.5 -1.5,5.2 -2.4,5 -3.3,4.3 -4.1,3.7 -4.7,2.9 -5.1,2 -5.4,1 h -5.5 l -5.4,-1 -5.1,-2 -4.7,-2.9 -4,-3.7 -3.3,-4.3 -2.5,-5 -1.5,-5.2 -0.5,-5.5 0.5,-5.5 1.5,-5.3 2.5,-4.9 3.3,-4.4 4,-3.7 4.7,-2.8 5.1,-2 5.4,-1 h 5.5 l 5.4,1 5.1,2 4.7,2.8 4.1,3.7 3.3,4.4 2.4,4.9 1.5,5.3 0.5,5.5 m -120.2,0 -0.5,5.5 -1.5,5.2 -2.4,5 -3.3,4.3 -4.1,3.7 -4.6,2.9 -5.2,2 -5.4,1 h -5.5 l -5.4,-1 -5.1,-2 -4.7,-2.9 -4,-3.7 -3.3,-4.3 -2.5,-5 -1.5,-5.2 -0.5,-5.5 0.5,-5.5 1.5,-5.3 2.5,-4.9 3.3,-4.4 4,-3.7 4.7,-2.8 5.1,-2 5.4,-1 h 5.5 l 5.4,1 5.2,2 4.6,2.8 4.1,3.7 3.3,4.4 2.4,4.9 1.5,5.3 0.5,5.5 m -120.1,0 -0.5,5.5 -1.6,5.2 -2.4,5 -3.3,4.3 -4.1,3.7 -4.6,2.9 -5.2,2 -5.4,1 h -5.5 l -5.4,-1 -5.1,-2 -4.6,-2.9 -4.1,-3.7 -3.3,-4.3 -2.5,-5 -1.5,-5.2 -0.5,-5.5 0.5,-5.5 1.5,-5.3 2.5,-4.9 3.3,-4.4 4.1,-3.7 4.6,-2.8 5.1,-2 5.4,-1 h 5.5 l 5.4,1 5.2,2 4.6,2.8 4.1,3.7 3.3,4.4 2.4,4.9 1.6,5.3 0.5,5.5 m -120.2,0 -0.5,5.5 -1.5,5.2 -2.5,5 -3.3,4.3 -4.1,3.7 -4.6,2.9 -5.1,2 -5.4,1 h -5.5 l -5.4,-1 -5.2,-2 -4.6,-2.9 -4.1,-3.7 -3.3,-4.3 -2.4,-5 -1.6,-5.2 -0.5,-5.5 0.5,-5.5 1.6,-5.3 2.4,-4.9 3.3,-4.4 4.1,-3.7 4.6,-2.8 5.2,-2 5.4,-1 h 5.5 l 5.4,1 5.1,2 4.6,2.8 4.1,3.7 3.3,4.4 2.5,4.9 1.5,5.3 0.5,5.5 m -120.2,0 -0.5,5.5 -1.5,5.2 -2.5,5 -3.3,4.3 -4,3.7 -4.7,2.9 -5.1,2 -5.4,1 h -5.5 l -5.4,-1 -5.2,-2 -4.6,-2.9 -4.1,-3.7 -3.3,-4.3 -2.4,-5 -1.5,-5.2 -0.5,-5.5 0.5,-5.5 1.5,-5.3 2.4,-4.9 3.3,-4.4 4.1,-3.7 4.6,-2.8 5.2,-2 5.4,-1 h 5.5 l 5.4,1 5.1,2 4.7,2.8 4,3.7 3.3,4.4 2.5,4.9 1.5,5.3 0.5,5.5 m -120.2,0 -0.5,5.5 -1.5,5.2 -2.5,5 -3.3,4.3 -4,3.7 -4.7,2.9 -5.1,2 -5.4,1 h -5.5 l -5.4,-1 -5.1,-2 -4.7,-2.9 -4.1,-3.7 -3.3,-4.3 -2.4,-5 -1.5,-5.2 -0.5,-5.5 0.5,-5.5 1.5,-5.3 2.4,-4.9 3.3,-4.4 4.1,-3.7 4.7,-2.8 5.1,-2 5.4,-1 h 5.5 l 5.4,1 5.1,2 4.7,2.8 4,3.7 3.3,4.4 2.5,4.9 1.5,5.3 0.5,5.5 m -120.2,0 -0.5,5.5 -1.5,5.2 -2.5,5 -3.3,4.3 -4,3.7 -4.7,2.9 -5.1,2 -5.4,1 h -5.5 l -5.4,-1 -5.1,-2 -4.7,-2.9 -4.1,-3.7 -3.3,-4.3 -2.4,-5 -1.5,-5.2 -0.5,-5.5 0.5,-5.5 1.5,-5.3 2.4,-4.9 3.3,-4.4 4.1,-3.7 4.7,-2.8 5.1,-2 5.4,-1 h 5.5 l 5.4,1 5.1,2 4.7,2.8 4,3.7 3.3,4.4 2.5,4.9 1.5,5.3 0.5,5.5 m -120.2,0 -0.5,5.5 -1.5,5.2 -2.4,5 -3.4,4.3 -4,3.7 -4.7,2.9 -5.1,2 -5.4,1 h -5.5 l -5.4,-1 -5.1,-2 -4.7,-2.9 -4,-3.7 -3.4,-4.3 -2.4,-5 -1.5,-5.2 -0.5,-5.5 0.5,-5.5 1.5,-5.3 2.4,-4.9 3.4,-4.4 4,-3.7 4.7,-2.8 5.1,-2 5.4,-1 h 5.5 l 5.4,1 5.1,2 4.7,2.8 4,3.7 3.4,4.4 2.4,4.9 1.5,5.3 0.5,5.5 M 0,841.3 l -0.5,5.5 -1.5,5.2 -2.4,5 -3.3,4.3 -4.1,3.7 -4.7,2.9 -5.1,2 -5.4,1 h -5.5 l -5.4,-1 -5.1,-2 -4.7,-2.9 -4,-3.7 -3.3,-4.3 -2.5,-5 -1.5,-5.2 -0.5,-5.5 0.5,-5.5 1.5,-5.3 2.5,-4.9 3.3,-4.4 4,-3.7 4.7,-2.9 5.1,-1.9 5.4,-1.1 h 5.5 l 5.4,1.1 5.1,1.9 4.7,2.9 4.1,3.7 3.3,4.4 2.4,4.9 1.5,5.3 0.5,5.5 m -120.2,0 -0.5,5.5 -1.5,5.2 -2.4,5 -3.3,4.3 -4.1,3.7 -4.7,2.9 -5.1,2 -5.4,1 h -5.5 l -5.4,-1 -5.1,-2 -4.7,-2.9 -4,-3.7 -3.3,-4.3 -2.5,-5 -1.5,-5.2 -0.5,-5.5 0.5,-5.5 1.5,-5.3 2.5,-4.9 3.3,-4.4 4,-3.7 4.7,-2.9 5.1,-1.9 5.4,-1.1 h 5.5 l 5.4,1.1 5.1,1.9 4.7,2.9 4.1,3.7 3.3,4.4 2.4,4.9 1.5,5.3 0.5,5.5 m -120.2,0 -0.5,5.5 -1.5,5.2 -2.4,5 -3.3,4.3 -4.1,3.7 -4.6,2.9 -5.2,2 -5.4,1 h -5.5 l -5.4,-1 -5.1,-2 -4.7,-2.9 -4,-3.7 -3.3,-4.3 -2.5,-5 -1.5,-5.2 -0.5,-5.5 0.5,-5.5 1.5,-5.3 2.5,-4.9 3.3,-4.4 4,-3.7 4.7,-2.9 5.1,-1.9 5.4,-1.1 h 5.5 l 5.4,1.1 5.2,1.9 4.6,2.9 4.1,3.7 3.3,4.4 2.4,4.9 1.5,5.3 0.5,5.5 m -120.1,0 -0.5,5.5 -1.6,5.2 -2.4,5 -3.3,4.3 -4.1,3.7 -4.6,2.9 -5.2,2 -5.4,1 h -5.5 l -5.4,-1 -5.1,-2 -4.6,-2.9 -4.1,-3.7 -3.3,-4.3 -2.5,-5 -1.5,-5.2 -0.5,-5.5 0.5,-5.5 1.5,-5.3 2.5,-4.9 3.3,-4.4 4.1,-3.7 4.6,-2.9 5.1,-1.9 5.4,-1.1 h 5.5 l 5.4,1.1 5.2,1.9 4.6,2.9 4.1,3.7 3.3,4.4 2.4,4.9 1.6,5.3 0.5,5.5 m -120.2,0 -0.5,5.5 -1.5,5.2 -2.5,5 -3.3,4.3 -4.1,3.7 -4.6,2.9 -5.1,2 -5.4,1 h -5.5 l -5.4,-1 -5.2,-2 -4.6,-2.9 -4.1,-3.7 -3.3,-4.3 -2.4,-5 -1.6,-5.2 -0.5,-5.5 0.5,-5.5 1.6,-5.3 2.4,-4.9 3.3,-4.4 4.1,-3.7 4.6,-2.9 5.2,-1.9 5.4,-1.1 h 5.5 l 5.4,1.1 5.1,1.9 4.6,2.9 4.1,3.7 3.3,4.4 2.5,4.9 1.5,5.3 0.5,5.5 m -120.2,0 -0.5,5.5 -1.5,5.2 -2.5,5 -3.3,4.3 -4,3.7 -4.7,2.9 -5.1,2 -5.4,1 h -5.5 l -5.4,-1 -5.2,-2 -4.6,-2.9 -4.1,-3.7 -3.3,-4.3 -2.4,-5 -1.5,-5.2 -0.5,-5.5 0.5,-5.5 1.5,-5.3 2.4,-4.9 3.3,-4.4 4.1,-3.7 4.6,-2.9 5.2,-1.9 5.4,-1.1 h 5.5 l 5.4,1.1 5.1,1.9 4.7,2.9 4,3.7 3.3,4.4 2.5,4.9 1.5,5.3 0.5,5.5 m -120.2,0 -0.5,5.5 -1.5,5.2 -2.5,5 -3.3,4.3 -4,3.7 -4.7,2.9 -5.1,2 -5.4,1 h -5.5 l -5.4,-1 -5.1,-2 -4.7,-2.9 -4.1,-3.7 -3.3,-4.3 -2.4,-5 -1.5,-5.2 -0.5,-5.5 0.5,-5.5 1.5,-5.3 2.4,-4.9 3.3,-4.4 4.1,-3.7 4.7,-2.9 5.1,-1.9 5.4,-1.1 h 5.5 l 5.4,1.1 5.1,1.9 4.7,2.9 4,3.7 3.3,4.4 2.5,4.9 1.5,5.3 0.5,5.5 m -120.2,0 -0.5,5.5 -1.5,5.2 -2.5,5 -3.3,4.3 -4,3.7 -4.7,2.9 -5.1,2 -5.4,1 h -5.5 l -5.4,-1 -5.1,-2 -4.7,-2.9 -4.1,-3.7 -3.3,-4.3 -2.4,-5 -1.5,-5.2 -0.5,-5.5 0.5,-5.5 1.5,-5.3 2.4,-4.9 3.3,-4.4 4.1,-3.7 4.7,-2.9 5.1,-1.9 5.4,-1.1 h 5.5 l 5.4,1.1 5.1,1.9 4.7,2.9 4,3.7 3.3,4.4 2.5,4.9 1.5,5.3 0.5,5.5 m -120.2,0 -0.5,5.5 -1.5,5.2 -2.4,5 -3.4,4.3 -4,3.7 -4.7,2.9 -5.1,2 -5.4,1 h -5.5 l -5.4,-1 -5.1,-2 -4.7,-2.9 -4,-3.7 -3.4,-4.3 -2.4,-5 -1.5,-5.2 -0.5,-5.5 0.5,-5.5 1.5,-5.3 2.4,-4.9 3.4,-4.4 4,-3.7 4.7,-2.9 5.1,-1.9 5.4,-1.1 h 5.5 l 5.4,1.1 5.1,1.9 4.7,2.9 4,3.7 3.4,4.4 2.4,4.9 1.5,5.3 0.5,5.5 M 149.4,320 l 9.2,6.7 8.6,7.5 7.7,8.2 7,9 6.1,9.6 5.1,10.1 4.2,10.5 3.2,10.9 2.1,11.2 1.1,11.3 v 11.3 l -1.1,11.3 -2.1,11.1 -3.2,10.9 -4.2,10.6 -5.1,10.1 -6.1,9.5 -7,9 -7.7,8.3 -8.6,7.4 -9.2,6.7 m -1380,-201.2 -9.2,6.7 -8.5,7.5 -7.8,8.2 -6.9,9 -6.1,9.6 -5.2,10.1 -4.2,10.5 -3.1,10.9 -2.2,11.2 -1,11.3 v 11.3 l 1,11.3 2.2,11.1 3.1,10.9 4.2,10.6 5.2,10.1 6.1,9.5 6.9,9 7.8,8.3 8.5,7.4 9.2,6.7 m 1348.9,-285.6 13.4,3 13.1,4 12.9,5 12.4,5.8 11.9,6.8 11.4,7.5 10.9,8.5 10.2,9.1 9.5,9.9 8.8,10.6 7.9,11.1 7.2,11.8 6.2,12.2 5.4,12.6 4.4,13 3.5,13.3 2.5,13.5 1.5,13.6 0.5,13.7 -0.5,13.7 -1.5,13.7 -2.5,13.5 -3.5,13.2 -4.4,13 -5.4,12.7 -6.2,12.2 -7.2,11.7 -7.9,11.2 -8.8,10.5 -9.5,9.9 -10.2,9.2 -10.9,8.4 -11.4,7.6 -11.9,6.7 -12.4,5.9 -12.9,4.9 -13.1,4 -13.4,3 m -1317.8,-370 -13.3,3 -13.2,4 -12.8,5 -12.4,5.8 -11.9,6.8 -11.5,7.5 -10.8,8.5 -10.2,9.1 -9.5,9.9 -8.8,10.6 -8,11.1 -7.1,11.8 -6.3,12.2 -5.3,12.6 -4.4,13 -3.5,13.3 -2.5,13.5 -1.5,13.6 -0.5,13.7 0.5,13.7 1.5,13.7 2.5,13.5 3.5,13.2 4.4,13 5.3,12.7 6.3,12.2 7.1,11.7 8,11.2 8.8,10.5 9.5,9.9 10.2,9.2 10.8,8.4 11.5,7.6 11.9,6.7 12.4,5.9 12.8,4.9 13.2,4 13.3,3 m -31.1,-84.4 5.6,3.5 5.8,3.1 6.1,2.9 5.9,2.3 4.6,1.4 4.3,0.9 4,0.5 6.9,-0.4 6,-2.1 5,-3.8 2.2,-2.5 2,-3 1.9,-3.7 1.7,-4 1.4,-4.5 1,-4.9 0.8,-5.3 0.4,-5.3 0.2,-5.1 v -5.6 M 149.4,320 l -5.6,-3.4 -5.7,-3.2 -6.2,-2.9 -5.8,-2.2 -4.6,-1.5 -4.3,-0.9 -4,-0.5 -6.9,0.4 -6,2.1 -5,3.8 -2.2,2.6 -2,2.9 -2,3.7 -1.6,4.1 -1.4,4.4 -1.1,5 -0.7,5.3 -0.5,5.3 -0.1,5 -0.1,5.6 m -1248.4,0 v 130 m 1248.4,0 0.1,6.6 0.3,6.5 0.8,6.7 1.2,6.1 1.4,4.5 1.6,4.1 2,3.7 4.2,5.5 4.9,3.9 6,2.2 3.3,0.4 h 3.5 l 4.1,-0.4 4.3,-0.9 4.6,-1.4 7.9,-3.2 8.1,-4.1 7.5,-4.6 M 83.6,355.6 v 130 m -1248.4,-130 v -6.5 l -0.3,-6.5 -0.8,-6.8 -1.3,-6.1 -1.3,-4.5 -1.6,-4.1 -2,-3.6 -4.2,-5.6 -5,-3.9 -5.9,-2.1 -3.3,-0.5 h -3.6 l -4,0.5 -4.3,0.9 -4.6,1.4 -7.9,3.2 -8.1,4.1 -7.6,4.5 m 1348.9,285.6 -4.9,1 -5.2,1.2 -4.7,1.7 -7.1,3.8 -5.4,4.9 -3.8,6.2 -1.4,3.7 -1,4 -0.8,4.9 -0.3,4.8 -0.1,5.6 m 0,-453.6 0.1,5.7 0.3,4.7 0.7,4.9 2.4,7.7 3.9,6.2 5.4,4.9 3.3,2.1 3.7,1.7 7.4,2.4 7.5,1.5 m -1317.8,0 5,-0.9 5.1,-1.3 4.8,-1.6 7.1,-3.8 5.4,-5 3.8,-6.2 1.4,-3.6 1,-4 0.8,-5 0.3,-4.7 v -5.7 m 0,453.6 v -5.6 l -0.3,-4.8 -0.8,-4.9 -2.4,-7.6 -3.8,-6.3 -5.4,-4.9 -3.3,-2 -3.8,-1.8 -7.3,-2.4 -7.6,-1.5 m 77.3,349.1 -5.1,-0.1 -3.8,-0.1 -4.6,-0.5 -4.1,-0.7 -8.8,-3.1 -6.8,-4.9 -4.9,-6.7 -1.2,-2.7 -1,-3 -0.9,-3.1 -0.9,-5.7 -0.4,-5.4 -0.1,-6.5 M 41.1,-113.4 h 5.1 l 3.8,0.2 4.5,0.4 4.2,0.8 8.8,3.1 6.8,4.8 4.9,6.8 1.2,2.7 1,2.9 0.8,3.2 1,5.6 0.4,5.5 v 6.5 m 0,0 v 264.7 m -1248.4,453.6 v 264.8 m 0,-983.1 0.1,-5.1 0.1,-3.7 0.5,-4.6 0.7,-4.2 3.1,-8.8 4.9,-6.8 6.7,-4.8 2.7,-1.3 3,-1 3.1,-0.8 5.7,-1 5.5,-0.3 6.5,-0.1 M 83.6,647.4 v 264.8 m 0,0 v 5 l -0.2,3.8 -0.4,4.6 -0.8,4.1 -3,8.8 -4.9,6.8 -6.7,4.9 -2.7,1.2 -3,1 -3.1,0.9 -5.7,0.9 -5.5,0.4 -6.5,0.1 M -1122.2,-113.4 H 41.1 M -1122.2,954.7 H 41.1 M -1164.8,-70.9 v 264.7"
         style="fill:none;fill-opacity:1;stroke:#fc0000;stroke-width:0.05669291;stroke-linecap:round;stroke-linejoin:round;stroke-miterlimit:4;stroke-dasharray:none;stroke-opacity:1"
         id="path827"
         inkscape:connector-curvature="0" /></g><flowRoot
       xml:space="preserve"
       id="flowRoot4540"
       style="font-style:normal;font-weight:normal;font-size:40px;line-height:1.25;font-family:sans-serif;letter-spacing:0px;word-spacing:0px;fill:#000000;fill-opacity:1;stroke:none;stroke-opacity:1"
       transform="matrix(0.75000002,0,0,-0.75000002,878.35464,1791.2628)"><flowRegion
         id="flowRegion4542"
         style="fill:#000000;fill-opacity:1;stroke:none;stroke-opacity:1"><rect
           id="rect4544"
           width="164.32942"
           height="47.04594"
           x="1604.8607"
           y="1359.8171"
           style="fill:#000000;fill-opacity:1;stroke:none;stroke-opacity:1" /></flowRegion><flowPara
         id="flowPara4546"
         style="font-style:normal;font-variant:normal;font-weight:normal;font-stretch:normal;font-size:14.66666698px;line-height:1.25;font-family:Arial;-inkscape-font-specification:Arial;fill:#000000;fill-opacity:1;stroke:none;stroke-opacity:1" /></flowRoot><text
       xml:space="preserve"
       style="font-style:normal;font-weight:normal;font-size:30px;line-height:1.25;font-family:sans-serif;letter-spacing:0px;word-spacing:0px;fill:#000000;fill-opacity:1;stroke:none;stroke-width:0.75"
       x="2085.7004"
       y="-742.00403"
       id="text1389"
       transform="scale(1,-1)"><tspan
         sodipodi:role="line"
         id="tspan1387"
         x="2085.7004"
         y="-742.00403"
         style="font-style:normal;font-variant:normal;font-weight:normal;font-stretch:normal;font-size:12px;font-family:'Century Gothic';-inkscape-font-specification:'Century Gothic';stroke-width:0.75">v3, 15 x 9, 2021-08-09</tspan></text>
</g></svg>